<?xml version="1.0" encoding="UTF-8"?>
<svg xmlns="http://www.w3.org/2000/svg" id="Layer_1" data-name="Layer 1" viewBox="0 0 512 512" width="512" height="512">
  <path fill="#fff"
    d="M256,105.477A151.2,151.2,0,0,0,108.966,221.6a6.015,6.015,0,0,0,5.843,7.4h.012a6,6,0,0,0,5.836-4.637C134.973,163.635,190.218,117.477,256,117.477c76.622,0,138.959,62.149,138.959,138.451S332.622,394.2,256,394.2c-73.609,0-134.031-57.2-138.669-129.54a6,6,0,1,0-11.975.769C110.378,344.384,176.022,406.237,256,406.237c83.239,0,150.959-67.46,150.959-150.38S339.239,105.477,256,105.477Z" />
  </svg>
