<?xml version="1.0" encoding="UTF-8"?>
<svg xmlns="http://www.w3.org/2000/svg" id="Layer_1" data-name="Layer 1" viewBox="0 0 512 512" width="512" height="512">
  <path fill="#fff"
    d="M482.849,235.374l-20.774-1.98a204.826,204.826,0,0,0-7.456-36.694l18.314-9.875a20.726,20.726,0,0,0-16.048-38.016L436.9,155.086A207.641,207.641,0,0,0,417.676,126.7l13.305-16.076a20.742,20.742,0,0,0-29.162-29.234L385.625,94.727A208.034,208.034,0,0,0,354.39,74l5.954-19.915a20.758,20.758,0,0,0-38.282-15.553L312.43,56.977a206.322,206.322,0,0,0-33.784-6.55l-1.98-20.682a20.764,20.764,0,0,0-41.332,0l-1.98,20.682a206.253,206.253,0,0,0-36.817,7.445l-9.922-18.308A20.757,20.757,0,0,0,148.577,55.7l6.263,19.837a208.109,208.109,0,0,0-28.465,19.189L110.181,81.391a20.742,20.742,0,0,0-29.162,29.234l13.3,16.076a207.523,207.523,0,0,0-20.767,31.148L53.5,151.882a20.643,20.643,0,0,0-25.1,12.06l-.02.05a20.632,20.632,0,0,0,9.657,26.146l18.453,9.589a204.983,204.983,0,0,0-6.559,33.667l-20.773,1.98a20.719,20.719,0,0,0,0,41.252l20.774,1.98A204.826,204.826,0,0,0,57.381,315.3l-18.309,9.872a20.737,20.737,0,0,0,9.78,38.985,20.913,20.913,0,0,0,6.269-.968L75.1,356.914A207.8,207.8,0,0,0,94.324,385.3l-13.3,16.072a20.737,20.737,0,0,0,29.163,29.234l16.19-13.332A208.034,208.034,0,0,0,157.61,438l-5.952,19.909a20.755,20.755,0,0,0,38.282,15.554l9.63-18.438a206.322,206.322,0,0,0,33.784,6.55l1.98,20.676a20.764,20.764,0,0,0,41.332,0l1.98-20.677a206.253,206.253,0,0,0,36.817-7.445l9.919,18.3a20.63,20.63,0,0,0,18.176,10.861,20.96,20.96,0,0,0,8.159-1.663,20.64,20.64,0,0,0,11.7-25.336l-6.261-19.831a208.109,208.109,0,0,0,28.465-19.189l16.19,13.332a20.742,20.742,0,0,0,29.163-29.234l-13.3-16.072a207.523,207.523,0,0,0,20.767-31.148l20.059,5.967a20.9,20.9,0,0,0,5.967.874,20.637,20.637,0,0,0,19.137-12.934l.02-.05a20.632,20.632,0,0,0-9.657-26.146l-18.453-9.589a204.983,204.983,0,0,0,6.559-33.667l20.773-1.98a20.719,20.719,0,0,0,0-41.252Zm-433.9,31.084L30.29,264.68a8.719,8.719,0,0,1,0-17.36l18.655-1.778q-.261,5.2-.263,10.458T48.945,266.458Zm411.536-106.2a8.727,8.727,0,0,1,6.757,16.006l-16.459,8.875a205.468,205.468,0,0,0-8.2-19.256Zm-51.033-69.6a8.742,8.742,0,0,1,12.289,12.32l-11.969,14.461a208.806,208.806,0,0,0-14.85-14.815ZM332.7,44.089a8.758,8.758,0,0,1,16.148,6.56L343.5,68.539a206.487,206.487,0,0,0-19.447-7.893Zm-85.419-13.2a8.764,8.764,0,0,1,17.44,0L266.5,49.452q-5.217-.261-10.5-.264t-10.5.264ZM165.007,41.4a8.689,8.689,0,0,1,11.057,3.879l8.9,16.416a206.456,206.456,0,0,0-19.32,8.192l-5.62-17.8A8.7,8.7,0,0,1,165.007,41.4ZM90.263,102.974a8.742,8.742,0,0,1,12.289-12.32l14.53,11.966a208.806,208.806,0,0,0-14.85,14.815Zm-46.7,76.516a8.683,8.683,0,0,1-4.058-11.02l.016-.039a8.685,8.685,0,0,1,10.553-5.047l17.994,5.352a205.282,205.282,0,0,0-7.9,19.381Zm7.959,172.251a8.727,8.727,0,0,1-6.757-16.007l16.454-8.872a205.468,205.468,0,0,0,8.2,19.256Zm51.033,69.6a8.742,8.742,0,0,1-12.29-12.32l11.965-14.457a208.806,208.806,0,0,0,14.85,14.815ZM179.3,467.905a8.758,8.758,0,0,1-16.149-6.56l5.346-17.884a206.237,206.237,0,0,0,19.448,7.893Zm85.417,13.2a8.764,8.764,0,0,1-17.442,0L245.5,462.548q5.217.261,10.5.264t10.5-.264ZM347,470.6a8.7,8.7,0,0,1-11.066-3.882L327.039,450.3a206.456,206.456,0,0,0,19.32-8.192l5.619,17.8A8.7,8.7,0,0,1,347,470.6Zm74.734-61.573a8.742,8.742,0,0,1-12.289,12.32L394.918,409.38a208.806,208.806,0,0,0,14.85-14.815ZM256,450.812C148.3,450.812,60.682,363.419,60.682,256S148.3,61.188,256,61.188,451.318,148.581,451.318,256,363.7,450.812,256,450.812Zm212.435-118.3a8.683,8.683,0,0,1,4.058,11.02l-.016.039a8.686,8.686,0,0,1-10.553,5.047l-17.994-5.352a205.282,205.282,0,0,0,7.9-19.381Zm13.275-67.83-18.655,1.778q.261-5.2.263-10.458t-.263-10.458l18.655,1.778a8.719,8.719,0,0,1,0,17.36Z" />
  <path fill="#fff"
    d="M256,76.584C156.687,76.584,75.889,157.07,75.889,256S156.687,435.416,256,435.416,436.111,354.93,436.111,256,355.313,76.584,256,76.584Zm0,346.832c-92.7,0-168.111-75.1-168.111-167.416S163.3,88.584,256,88.584,424.111,163.687,424.111,256,348.7,423.416,256,423.416Z" />
  </svg>
