<?xml version="1.0" encoding="UTF-8"?>
<svg xmlns="http://www.w3.org/2000/svg" id="Layer_1" data-name="Layer 1" viewBox="0 0 512 512" width="512" height="512">
  <path fill="#fff"
    d="M283.393,149.911A25.39,25.39,0,0,0,258,175.085V333.08a29.24,29.24,0,0,0,47.118,22.906A28.973,28.973,0,0,0,347,330.012v-6.936a36.9,36.9,0,0,0,22.309-33.713A36.5,36.5,0,0,0,358.2,263.036a28.375,28.375,0,0,0,2.558-3.282,27.966,27.966,0,0,0-7.805-38.726c-.678-.45-1.376-.861-2.086-1.249a36.68,36.68,0,0,0-42.1-44.017c.006-.226.022-.451.022-.677A25.39,25.39,0,0,0,283.393,149.911Zm31.66,37.31a24.688,24.688,0,0,1,21.381,37.017,5.97,5.97,0,0,0-.484,1.069,6,6,0,0,0-11.578.144A17.529,17.529,0,0,0,325.88,238a5.535,5.535,0,0,1-1.27,1.954,6,6,0,0,0,8.39,8.58,17.645,17.645,0,0,0,2.1-2.474,5.919,5.919,0,0,0,1.195.127,6,6,0,0,0,2.632-11.4,5.543,5.543,0,0,1-3.024-5.787,5.988,5.988,0,0,0,10.39,2l.017.011a15.9,15.9,0,0,1,1.851,25.092,36.455,36.455,0,0,0-15.462-3.429,6,6,0,0,0,0,12,24.679,24.679,0,1,1,0,49.357,6,6,0,0,0-.066,12c.819,0,1.37-.037,2.37-.09v4.06a16.959,16.959,0,1,1-33.918,0,5.988,5.988,0,1,0-11.975,0,28.866,28.866,0,0,0,6.331,18.054,17.868,17.868,0,0,1-8.213,2.023A17.215,17.215,0,0,1,270,333.08V175.085a13.339,13.339,0,0,1,26.676,0,13.116,13.116,0,0,1-1.346,5.858c-.714.455-1.389.931-2.075,1.438a6.006,6.006,0,0,0,7.15,9.652A24.485,24.485,0,0,1,315.053,187.221Z" />
  <path fill="#fff"
    d="M296.977,274.142a8.751,8.751,0,0,1,.376,3.913,6,6,0,1,0,11.9,1.563,20.817,20.817,0,0,0-11.105-21.2,8.807,8.807,0,0,1,1.564-8.01,6,6,0,1,0-9.359-7.51,20.648,20.648,0,0,0-4.552,13.388,20.743,20.743,0,0,0-9.381,3.732,6,6,0,0,0,7.015,9.736,8.831,8.831,0,0,1,13.545,4.391Z" />
  <path fill="#fff"
    d="M292.714,202.839a5.457,5.457,0,0,1-4.388-1.624,6,6,0,0,0-8.579,8.39,17.4,17.4,0,0,0,6.582,4.228,17.616,17.616,0,0,0,3.021.792,17.179,17.179,0,0,0,2.11,7.063,6,6,0,0,0,10.509-5.793,5.549,5.549,0,0,1,6.226-8.054,6,6,0,1,0,2.985-11.623,17.487,17.487,0,0,0-18.466,6.621Z" />
  <path fill="#fff"
    d="M305.15,303.279a11.864,11.864,0,0,1-4.948-2,6,6,0,0,0-6.883,9.83,23.762,23.762,0,0,0,9.91,4.018,23.623,23.623,0,0,0,6.965.1,24.033,24.033,0,0,0,5.2,11.626,6,6,0,1,0,9.258-7.634,12.024,12.024,0,0,1-2.335-10.712c.033-.1.061-.206.088-.31a11.967,11.967,0,0,1,3.028-5.094,6,6,0,0,0-8.48-8.491,23.982,23.982,0,0,0-5.239,7.879A11.95,11.95,0,0,1,305.15,303.279Z" />
  <path fill="#fff"
    d="M226.174,268.534a8.817,8.817,0,0,1,2.394,1.217,6,6,0,0,0,7.015-9.736,20.842,20.842,0,0,0-5.64-2.874,21.149,21.149,0,0,0-3.741-.859A20.64,20.64,0,0,0,221.65,242.9a6,6,0,1,0-9.359,7.51,8.811,8.811,0,0,1,1.564,8.01,20.817,20.817,0,0,0-11.1,21.2,6,6,0,0,0,11.9-1.563,8.829,8.829,0,0,1,11.527-9.521Z" />
  <path fill="#fff"
    d="M210.031,215.9a6,6,0,1,0,10.509,5.793,17.169,17.169,0,0,0,2.11-7.063,17.616,17.616,0,0,0,3.021-.792,17.4,17.4,0,0,0,6.582-4.228,6,6,0,0,0-8.579-8.39,5.461,5.461,0,0,1-4.388,1.624,17.488,17.488,0,0,0-18.466-6.621,6,6,0,0,0,2.985,11.623,5.553,5.553,0,0,1,6.226,8.054Z" />
  <path fill="#fff"
    d="M187.349,319.216a6,6,0,1,0,9.258,7.634,24.007,24.007,0,0,0,5.2-11.626,23.958,23.958,0,0,0,16.876-4.117,6,6,0,0,0-6.883-9.83,11.973,11.973,0,0,1-11.511,1.211,23.982,23.982,0,0,0-5.239-7.879,6,6,0,0,0-8.48,8.491,11.977,11.977,0,0,1,3.029,5.1c.026.1.054.2.086.305a12.028,12.028,0,0,1-2.334,10.714Z" />
  <path fill="#fff"
    d="M165,323.076v6.936a28.985,28.985,0,0,0,28.942,29.009,28.693,28.693,0,0,0,12.894-3.05,29.661,29.661,0,0,0,17.967,6.118A29.2,29.2,0,0,0,254,333.08V242a6,6,0,0,0-12,0v91.08a17.213,17.213,0,0,1-25.4,14.935,28.86,28.86,0,0,0,6.288-18,6,6,0,1,0-12,0,16.943,16.943,0,1,1-33.885,0v-4.06c1,.053,1.551.09,2.37.09a6,6,0,0,0-.05-12,24.679,24.679,0,1,1-.012-49.357,6,6,0,0,0,0-12,36.452,36.452,0,0,0-15.462,3.429,15.894,15.894,0,0,1,1.85-25.092l.017-.01a5.989,5.989,0,0,0,10.39-2,5.543,5.543,0,0,1-3.024,5.787,6,6,0,0,0,2.632,11.4,5.919,5.919,0,0,0,1.195-.127,17.645,17.645,0,0,0,2.1,2.474,6,6,0,0,0,8.39-8.58A5.535,5.535,0,0,1,186.12,238a17.529,17.529,0,0,0,1.508-12.552,6,6,0,0,0-11.578-.144,6.046,6.046,0,0,0-.485-1.069,24.683,24.683,0,0,1,36.023-32.205,6,6,0,1,0,7.13-9.652c-.7-.516-1.413-1-2.138-1.461a13.215,13.215,0,0,1,1-13.377,12.913,12.913,0,0,1,5.986-4.672A13.426,13.426,0,0,1,242,175.085V200a6,6,0,0,0,12,0V175.888c0-14.08-11.518-26.089-25.6-25.976a25.3,25.3,0,0,0-25.078,25.173c0,.233.016.464.022.7A36.695,36.695,0,0,0,160.265,211.9a36.685,36.685,0,0,0,.872,7.88c-.71.388-1.408.8-2.086,1.249a27.908,27.908,0,0,0-5.247,42.008,36.5,36.5,0,0,0-11.113,26.327A36.9,36.9,0,0,0,165,323.076Z" />
</svg>