<svg xmlns="http://www.w3.org/2000/svg" width="32" height="32" viewBox="0 0 32 32" fill="none">
  <path fill-rule="evenodd" clip-rule="evenodd" d="M0.585786 0.585786C1.36683 -0.195262 2.63317 -0.195262 3.41421 0.585786L16 13.1716L28.5858 0.585786C29.3668 -0.195262 30.6332 -0.195262 31.4142 0.585786C32.1953 1.36683 32.1953 2.63317 31.4142 3.41421L18.8284 16L31.4142 28.5858C32.1953 29.3668 32.1953 30.6332 31.4142 31.4142C30.6332 32.1953 29.3668 32.1953 28.5858 31.4142L16 18.8284L3.41421 31.4142C2.63317 32.1953 1.36683 32.1953 0.585786 31.4142C-0.195262 30.6332 -0.195262 29.3668 0.585786 28.5858L13.1716 16L0.585786 3.41421C-0.195262 2.63317 -0.195262 1.36683 0.585786 0.585786Z" fill="white"/>
</svg>
