<svg width="12" height="14" viewBox="0 0 12 14" fill="none" xmlns="http://www.w3.org/2000/svg">
  <g clip-path="url(#clip0_1525_2)">
    <path d="M10.8333 5.41667H11.6667V6.25H10.8333V5.41667ZM9.07417 1.99875L9.66333 1.40958L10.2525 1.99875L9.66333 2.58792L9.07417 1.99875ZM5.41667 0H6.25V0.833333H5.41667V0ZM2.00333 2.59708L1.41375 2.0075L2.00333 1.41833L2.5925 2.0075L2.00333 2.59708ZM0 5.41667H0.833333V6.25H0V5.41667ZM4.58333 12.5H7.08333V13.3333H4.58333V12.5ZM3.75 10.8333H7.91667V11.6667H3.75V10.8333ZM5.83333 1.66667C3.54167 1.66667 1.66667 3.54167 1.66667 5.83333C1.66667 7.66667 2.5 8.45833 3.125 9C3.54167 9.375 3.75 9.625 3.75 10H4.58333C4.58333 9.25 4.125 8.79167 3.66667 8.375C3.08333 7.875 2.5 7.29167 2.5 5.83333C2.5 4 4 2.5 5.83333 2.5C7.66667 2.5 9.16667 4 9.16667 5.83333C9.16667 7.29167 8.58333 7.875 8 8.375C7.54167 8.79167 7.08333 9.20833 7.08333 10H7.91667C7.91667 9.625 8.125 9.375 8.54167 9C9.16667 8.45833 10 7.66667 10 5.83333C10 3.54167 8.125 1.66667 5.83333 1.66667Z" fill="white"/>
  </g>
  <defs>
    <clipPath id="clip0_1525_2">
      <rect width="12" height="14" fill="white"/>
    </clipPath>
  </defs>
</svg>
