<svg width="10" height="10" viewBox="0 0 10 10" fill="none" xmlns="http://www.w3.org/2000/svg">
  <g clip-path="url(#clip0_42021_4633)">
    <path d="M8.88867 1.89453L3.16602 7.61719C2.96484 7.84961 2.61328 7.87305 2.38281 7.67188C2.15234 7.4707 2.12695 7.11914 2.32812 6.88867L2.38867 6.82812L8.09961 1.11133H6.11133C5.80469 1.11133 5.55664 0.863281 5.55664 0.556641C5.55664 0.25 5.80469 0 6.11133 0H9.44531C9.75195 0 10 0.248047 10 0.554688V3.88867C10 4.19531 9.75195 4.44336 9.44531 4.44336C9.13867 4.44336 8.89062 4.19531 8.89062 3.88867V1.89453H8.88867ZM7.77734 6.11133C7.77734 5.80469 8.02539 5.55664 8.33203 5.55664C8.63867 5.55664 8.88672 5.80469 8.88672 6.11133V8.88867C8.88672 9.50195 8.38867 10 7.77539 10H1.11133C0.498047 10 0 9.50195 0 8.88867V2.22266C0 1.61133 0.5 1.11133 1.11133 1.11133H3.88867C4.19531 1.11133 4.44336 1.35938 4.44336 1.66602C4.44336 1.97266 4.19531 2.2207 3.88867 2.2207H1.11133V8.88672H7.77734V6.11133Z" fill="#28587B"/>
  </g>
  <defs>
    <clipPath id="clip0_42021_4633">
      <rect width="10" height="10" fill="white"/>
    </clipPath>
  </defs>
</svg>
