<svg width="12" height="12" viewBox="0 0 12 12" fill="none" xmlns="http://www.w3.org/2000/svg">
  <path d="M2.00012 11.9999L10 11.9998C11.1046 11.9998 12 11.1043 12 9.99975L11.9999 1.99999C11.9999 0.895419 11.1044 -2.3178e-06 9.99988 8.94005e-06L2 9.04754e-05C0.89543 0.000101733 8.89416e-06 0.895543 2.0152e-05 2.00011L0.000101686 9.99988C0.000112944 11.1044 0.895553 11.9999 2.00012 11.9999Z" fill="#36AD58"/>
  <path d="M2.97153 9.99984V2H6.44575C7.22287 2 7.84762 2.21333 8.31999 2.63999C8.79237 3.05903 9.02855 3.61521 9.02855 4.30853C9.02855 5.00185 8.78856 5.56184 8.30857 5.98849C7.83619 6.41515 7.21525 6.62848 6.44575 6.62848H3.85151V9.99984H2.97153ZM6.37718 2.78856H3.85151V5.86278H6.37718C6.91812 5.86278 7.34858 5.72564 7.66858 5.45136C7.98857 5.16946 8.14857 4.79233 8.14857 4.31996C8.14857 3.84758 7.98857 3.47426 7.66858 3.19998C7.34858 2.9257 6.91812 2.78856 6.37718 2.78856Z" fill="white"/>
</svg>
