<svg width="14" height="14" viewBox="0 0 14 14" fill="none" xmlns="http://www.w3.org/2000/svg">
  <path d="M1.71661e-05 14.0001L14 14L13.9999 0.000142097L-0.000125521 0.000284786L1.71661e-05 14.0001Z" fill="#7CB48C"/>
  <path d="M3.4668 11.6667V2.3335H7.52009C8.42675 2.3335 9.15563 2.58238 9.70673 3.08015C10.2578 3.56904 10.5334 4.21792 10.5334 5.0268C10.5334 5.83568 10.2534 6.48901 9.6934 6.98678C9.14229 7.48455 8.41786 7.73344 7.52009 7.73344H4.49345V11.6667H3.4668ZM7.44009 3.25349H4.49345V6.84012H7.44009C8.07119 6.84012 8.57341 6.68012 8.94674 6.36012C9.32007 6.03123 9.50673 5.59124 9.50673 5.04013C9.50673 4.48903 9.32007 4.05348 8.94674 3.73348C8.57341 3.41348 8.07119 3.25349 7.44009 3.25349Z" fill="white"/>
</svg>
