<svg width="15" height="15" viewBox="0 0 15 15" fill="none" xmlns="http://www.w3.org/2000/svg">
  <path d="M15 7.5C15 11.6421 11.6421 15 7.5 15C3.35786 15 0 11.6421 0 7.5C0 3.35786 3.35786 0 7.5 0C11.6421 0 15 3.35786 15 7.5Z" fill="#C0C0C0"/>
  <path d="M6.99609 9.7085C6.99186 9.55615 6.98975 9.44189 6.98975 9.36572C6.98975 8.91715 7.05322 8.52995 7.18018 8.2041C7.27327 7.95866 7.4235 7.7111 7.63086 7.46143C7.7832 7.27946 8.05615 7.01497 8.44971 6.66797C8.84749 6.31673 9.10563 6.03743 9.22412 5.83008C9.34261 5.62272 9.40186 5.39632 9.40186 5.15088C9.40186 4.70654 9.22835 4.31722 8.88135 3.98291C8.53434 3.64437 8.10905 3.4751 7.60547 3.4751C7.11882 3.4751 6.71257 3.62744 6.38672 3.93213C6.06087 4.23682 5.84717 4.71289 5.74561 5.36035L4.57129 5.2207C4.67708 4.35319 4.99023 3.6888 5.51074 3.22754C6.03548 2.76628 6.72738 2.53564 7.58643 2.53564C8.49626 2.53564 9.22201 2.7832 9.76367 3.27832C10.3053 3.77344 10.5762 4.37223 10.5762 5.07471C10.5762 5.48096 10.481 5.85547 10.2905 6.19824C10.1001 6.54102 9.7277 6.95785 9.17334 7.44873C8.80094 7.77881 8.55762 8.02214 8.44336 8.17871C8.3291 8.33529 8.24447 8.51514 8.18945 8.71826C8.13444 8.92139 8.1027 9.25146 8.09424 9.7085H6.99609ZM6.92627 12V10.6987H8.22754V12H6.92627Z" fill="white"/>
</svg>
