<svg width="32" height="32" viewBox="0 0 32 32" xmlns="http://www.w3.org/2000/svg">
  <path d="M28.2692 32H3.73084C1.67028 32 0 30.3297 0 28.2692V3.73084C0 1.67028 1.67028 0 3.73084 0H28.2688C30.3293 0 31.9996 1.67028 31.9996 3.73084V28.2688C32 30.3297 30.3297 32 28.2692 32Z" fill="black"/>
  <path d="M4.91456 5.5752L13.5153 17.0754L4.86035 26.4253H6.80839L14.386 18.2391L20.5082 26.4253H27.137L18.0521 14.2784L26.1082 5.5752H24.1602L17.1818 13.1143L11.5433 5.5752H4.91456ZM7.77923 7.01034H10.8245L24.2719 24.9905H21.2267L7.77923 7.01034Z" fill="white"/>
</svg>
