<svg width="14" height="14" viewBox="0 0 14 14" fill="none" xmlns="http://www.w3.org/2000/svg">
  <path d="M0.000143051 14.0001L14 14L13.9999 0.000143051L3.64968e-07 0.00028574L0.000143051 14.0001Z" fill="#5B88BD"/>
  <g clip-path="url(#clip0_42619_10830)">
    <path d="M11.9689 3.53482C11.7599 3.32506 11.5115 3.15863 11.238 3.04507C10.9645 2.9315 10.6713 2.87305 10.3752 2.87305C10.079 2.87305 9.7858 2.9315 9.51231 3.04507C9.23882 3.15863 8.99044 3.32506 8.7814 3.53482L9.3139 4.06732C9.45352 3.92771 9.61926 3.81696 9.80167 3.74141C9.98408 3.66585 10.1796 3.62696 10.377 3.62696C10.5745 3.62696 10.77 3.66585 10.9524 3.74141C11.1348 3.81696 11.3005 3.92771 11.4402 4.06732C11.5798 4.20693 11.6905 4.37268 11.7661 4.55509C11.8416 4.7375 11.8805 4.93301 11.8805 5.13045C11.8805 5.32789 11.8416 5.52339 11.7661 5.70581C11.6905 5.88822 11.5798 6.05396 11.4402 6.19357L8.44015 9.19357C8.15869 9.47553 7.77675 9.63413 7.37835 9.63448C6.97996 9.63483 6.59774 9.47691 6.31578 9.19545C6.03382 8.91398 5.87522 8.53204 5.87487 8.13365C5.87452 7.73525 6.03244 7.35303 6.3139 7.07107L6.84265 6.53857L6.3139 6.00607L5.7814 6.53857C5.57164 6.7476 5.40521 6.99599 5.29165 7.26948C5.17809 7.54297 5.11963 7.83619 5.11963 8.13232C5.11963 8.42845 5.17809 8.72167 5.29165 8.99516C5.40521 9.26865 5.57164 9.51704 5.7814 9.72607C6.20571 10.1449 6.77893 10.3783 7.37515 10.3748C7.67242 10.376 7.96699 10.3183 8.24183 10.2051C8.51667 10.0918 8.76633 9.92516 8.9764 9.71482L11.9764 6.71482C12.3968 6.29195 12.6321 5.71952 12.6307 5.12327C12.6293 4.52702 12.3913 3.9557 11.9689 3.53482Z" fill="white"/>
    <path d="M2.57118 10.3074C2.43115 10.1681 2.32004 10.0024 2.24422 9.81995C2.1684 9.6375 2.12937 9.44188 2.12937 9.24431C2.12937 9.04674 2.1684 8.85111 2.24422 8.66867C2.32004 8.48623 2.43115 8.32056 2.57118 8.18118L5.57118 5.18118C5.71056 5.04116 5.87622 4.93004 6.05867 4.85422C6.24111 4.7784 6.43673 4.73937 6.6343 4.73937C6.83187 4.73937 7.0275 4.7784 7.20994 4.85422C7.39238 4.93004 7.55805 5.04116 7.69743 5.18118C7.83657 5.32166 7.9461 5.48863 8.01954 5.67221C8.09297 5.8558 8.12881 6.05225 8.12493 6.24993C8.12607 6.44824 8.08788 6.6448 8.01257 6.82824C7.93726 7.01169 7.82633 7.17839 7.68618 7.31868L6.89118 8.12493L7.42368 8.65743L8.21868 7.86243C8.64186 7.43925 8.87961 6.86528 8.87961 6.26681C8.87961 5.66833 8.64186 5.09437 8.21868 4.67118C7.79549 4.248 7.22153 4.01025 6.62305 4.01025C6.02458 4.01025 5.45061 4.248 5.02743 4.67118L2.02743 7.67118C1.8171 7.88028 1.65019 8.1289 1.5363 8.40274C1.4224 8.67658 1.36377 8.97023 1.36377 9.26681C1.36377 9.56339 1.4224 9.85704 1.5363 10.1309C1.65019 10.4047 1.8171 10.6533 2.02743 10.8624C2.45449 11.2781 3.02901 11.5074 3.62493 11.4999C4.22609 11.5005 4.80307 11.2632 5.22993 10.8399L4.69743 10.3074C4.55805 10.4475 4.39238 10.5586 4.20994 10.6344C4.0275 10.7102 3.83187 10.7492 3.6343 10.7492C3.43673 10.7492 3.24111 10.7102 3.05867 10.6344C2.87622 10.5586 2.71056 10.4475 2.57118 10.3074Z" fill="white"/>
  </g>
  <defs>
    <clipPath id="clip0_42619_10830">
      <rect width="12" height="12" fill="white" transform="translate(1 1)"/>
    </clipPath>
  </defs>
</svg>
