<svg width="14" height="14" viewBox="0 0 14 14" fill="none" xmlns="http://www.w3.org/2000/svg">
  <path d="M2.00013 13.9998L11.9999 13.9997C13.1044 13.9996 13.9999 13.1042 13.9999 11.9996L13.9998 2.00002C13.9997 0.895447 13.1043 2.53387e-05 11.9997 3.65966e-05L1.99999 0.000138515C0.895419 0.000149773 -2.90538e-06 0.895591 8.35246e-06 2.00016L0.000110269 11.9998C0.000121527 13.1043 0.895559 13.9998 2.00013 13.9998Z" fill="#D7D7D7"/>
  <path fill-rule="evenodd" clip-rule="evenodd" d="M12.8331 3.61758C12.8331 3.65744 12.8198 3.69341 12.7941 3.72646C12.7674 3.75855 12.7397 3.77507 12.7079 3.77507C12.4524 3.79841 12.2421 3.87618 12.08 4.00937C11.9168 4.14159 11.7496 4.39534 11.5762 4.76867L8.92888 10.4211C8.91144 10.4736 8.86321 10.4998 8.78318 10.4998C8.72059 10.4998 8.67236 10.4736 8.63747 10.4211L7.15274 7.47918L5.44536 10.4211C5.41047 10.4736 5.36224 10.4998 5.29965 10.4998C5.22372 10.4998 5.17345 10.4736 5.14882 10.4211L2.54772 4.76867C2.3856 4.4177 2.21425 4.17271 2.03366 4.03368C1.8541 3.89465 1.60271 3.80813 1.28155 3.77507C1.25384 3.77507 1.22716 3.76146 1.20356 3.73327C1.17894 3.70605 1.16663 3.67396 1.16663 3.63799C1.16663 3.54563 1.19433 3.49994 1.24974 3.49994C1.48163 3.49994 1.72378 3.50966 1.97722 3.52911C2.2122 3.54952 2.43383 3.55924 2.6411 3.55924C2.85247 3.55924 3.1018 3.54952 3.3891 3.52911C3.68974 3.50966 3.95652 3.49994 4.18842 3.49994C4.24382 3.49994 4.27153 3.54563 4.27153 3.63799C4.27153 3.72938 4.25408 3.77507 4.22022 3.77507C3.98833 3.7916 3.80569 3.84799 3.6723 3.94229C3.53891 4.03757 3.47222 4.16201 3.47222 4.31659C3.47222 4.39534 3.49992 4.49353 3.55533 4.61117L5.70495 9.21067L6.92496 7.0271L5.78807 4.76867C5.58388 4.36617 5.4156 4.10562 5.28426 3.98896C5.15293 3.87327 4.95387 3.80132 4.68709 3.77507C4.66246 3.77507 4.63989 3.76146 4.61731 3.73327C4.59474 3.70605 4.58345 3.67396 4.58345 3.63799C4.58345 3.54563 4.60705 3.49994 4.65631 3.49994C4.8882 3.49994 5.1006 3.50966 5.29452 3.52911C5.48127 3.54952 5.68033 3.55924 5.8917 3.55924C6.09897 3.55924 6.31855 3.54952 6.55044 3.52911C6.78951 3.50966 7.02449 3.49994 7.25638 3.49994C7.31179 3.49994 7.33949 3.54563 7.33949 3.63799C7.33949 3.72938 7.32307 3.77507 7.28819 3.77507C6.8244 3.80521 6.59251 3.92965 6.59251 4.14937C6.59251 4.24757 6.64586 4.4002 6.7536 4.60631L7.50571 6.05295L8.25372 4.72978C8.35736 4.54312 8.40969 4.38562 8.40969 4.25729C8.40969 3.9559 8.17779 3.79549 7.71401 3.77507C7.67194 3.77507 7.65142 3.72938 7.65142 3.63799C7.65142 3.60494 7.66168 3.57383 7.6822 3.54466C7.70375 3.51452 7.72427 3.49994 7.74479 3.49994C7.91101 3.49994 8.1152 3.50966 8.35736 3.52911C8.58925 3.54952 8.7801 3.55924 8.92888 3.55924C9.03559 3.55924 9.19361 3.55049 9.40087 3.53397C9.66355 3.51161 9.88416 3.49994 10.0606 3.49994C10.1017 3.49994 10.1222 3.53883 10.1222 3.61758C10.1222 3.72257 10.0842 3.77507 10.0083 3.77507C9.73845 3.80132 9.52092 3.87229 9.35675 3.98701C9.19258 4.10173 8.98737 4.36229 8.74213 4.76867L7.74479 6.51572L9.0951 9.1222L11.0888 4.72978C11.1575 4.56937 11.1924 4.42159 11.1924 4.28743C11.1924 3.96563 10.9605 3.79549 10.4967 3.77507C10.4547 3.77507 10.4341 3.72938 10.4341 3.63799C10.4341 3.54563 10.4649 3.49994 10.5275 3.49994C10.6968 3.49994 10.8979 3.50966 11.1298 3.52911C11.3443 3.54952 11.5248 3.55924 11.6695 3.55924C11.8224 3.55924 11.9989 3.54952 12.199 3.52911C12.4073 3.50966 12.594 3.49994 12.7602 3.49994C12.8085 3.49994 12.8331 3.53883 12.8331 3.61758Z" fill="black"/>
</svg>
