<svg width="15" height="14" viewBox="0 0 15 14" fill="none" xmlns="http://www.w3.org/2000/svg">
  <g clip-path="url(#clip0_5193_2105)">
    <path d="M7.30777 5.6582C6.54214 5.6582 5.9209 6.25736 5.9209 6.99572C5.9209 7.73412 6.54214 8.33328 7.30777 8.33328C8.0734 8.33328 8.69464 7.73412 8.69464 6.99572C8.69464 6.25736 8.0734 5.6582 7.30777 5.6582Z" fill="#867379"/>
    <path d="M9.02793 3.55273H5.51483C4.51296 3.55273 3.69922 4.33755 3.69922 5.30381V8.692C3.69922 9.65823 4.51296 10.443 5.51483 10.443H9.02793C10.0298 10.443 10.8435 9.65823 10.8435 8.692V5.30381C10.8435 4.33755 10.0298 3.55273 9.02793 3.55273ZM7.30854 9.08437C6.1142 9.08437 5.14298 8.14768 5.14298 6.99576C5.14298 5.84389 6.1142 4.90715 7.30854 4.90715C8.50293 4.90715 9.47416 5.84389 9.47416 6.99576C9.47416 8.14768 8.50293 9.08437 7.30854 9.08437ZM9.60103 5.26158C9.31666 5.26158 9.08479 5.03795 9.08479 4.76369C9.08479 4.48945 9.31666 4.26581 9.60103 4.26581C9.8854 4.26581 10.1173 4.48945 10.1173 4.76369C10.1173 5.03795 9.8854 5.26158 9.60103 5.26158Z" fill="#867379"/>
    <path d="M7.27269 0C3.26525 0 0.0146484 3.1308 0.0146484 7C0.0146484 10.8692 3.26525 14 7.27269 14C11.2802 14 14.5308 10.865 14.5308 7C14.5308 3.13502 11.2802 0 7.27269 0ZM11.6695 8.69199C11.6695 10.097 10.4839 11.2405 9.02706 11.2405H5.51396C4.05711 11.2405 2.8715 10.097 2.8715 8.69199V5.30381C2.8715 3.89873 4.05711 2.75527 5.51396 2.75527H9.02706C10.4839 2.75527 11.6695 3.89873 11.6695 5.30381V8.69199Z" fill="#867379"/>
  </g>
  <defs>
    <clipPath id="clip0_5193_2105">
      <rect width="15" height="14" fill="white"/>
    </clipPath>
  </defs>
</svg>
