<svg width="12" height="18" viewBox="0 0 12 18" fill="none" xmlns="http://www.w3.org/2000/svg">
  <path d="M1.94843 15.4939C0.462639 13.9175 0.0431425 12.1227 0.515307 10.0941C0.798975 8.87339 2.29401 6.54994 3.05908 6.12951C3.13577 6.39626 3.24203 6.79639 3.32797 7.09311C3.43053 6.98003 3.4795 6.86308 3.50537 6.81765C4.27414 5.41624 5.50768 4.58602 6.8133 3.83022C7.49706 3.43492 8.19191 3.03963 8.80637 2.54188C9.47165 2.00451 9.9318 1.27481 10.0963 0.378866C10.1064 0.324742 10.1388 0.259021 10.1184 0C10.2136 0.144974 10.416 0.429124 10.4742 0.549936C11.4934 2.65206 11.8519 4.87113 11.473 7.19652C11.3603 7.8895 11.1182 8.55928 10.9528 9.24549C10.9103 9.42043 10.8835 9.61566 10.8789 9.80026C11.0517 9.78963 11.279 9.78866 11.449 9.7616C11.619 9.73454 11.8195 9.64948 11.9988 9.59633C12.0062 9.70457 11.9711 9.82732 11.9507 9.89401C11.0351 12.9887 9.31826 15.3189 6.23764 16.3115C5.38387 16.587 4.51161 16.4865 3.52755 16.4178C3.68186 16.1666 3.76594 15.9887 3.88606 15.8418C5.47534 13.9001 6.84564 11.8086 7.81214 9.45135C8.07086 8.82023 8.15125 8.49066 8.34991 7.83344C8.39242 7.69233 8.47373 7.19265 8.48851 7.04285C8.45063 7.02835 8.41274 7.01385 8.37393 6.99839C8.28985 7.15206 8.23626 7.31927 8.17989 7.48357C7.65599 9.01353 6.78281 10.3454 5.90131 11.6685C4.47095 13.816 2.88907 15.8235 0.997636 17.5477C0.824847 17.7052 0.640971 17.8579 0.440463 17.97C0.345291 18.0232 0.129075 18.001 0.0662425 17.9352C-0.00767757 17.8579 -0.0159936 17.6888 0.0228145 17.5776C0.0782545 17.4201 0.198375 17.2771 0.315723 17.1553C0.838707 16.6131 1.37001 16.0805 1.94936 15.4929L1.94843 15.4939Z" fill="#595959"/>
</svg>
