<svg width="17" height="16" viewBox="0 0 17 16" fill="none" xmlns="http://www.w3.org/2000/svg">
  <path d="M0.605469 0V16H16.6055V0H0.605469ZM12.6055 8.66666C12.6055 9.03466 12.3075 9.33331 11.9388 9.33331C11.5702 9.33331 11.2722 9.03466 11.2722 8.66666V6.276L5.74347 11.8047C5.61347 11.9347 5.44281 12 5.27212 12C5.10147 12 4.93078 11.9347 4.80078 11.8047C4.54012 11.544 4.54012 11.1227 4.80078 10.862L10.3294 5.33334H7.93878C7.57013 5.33334 7.27212 5.03469 7.27212 4.66669C7.27212 4.29869 7.57013 4 7.93881 4H11.9388C12.0255 4 12.1122 4.018 12.1935 4.05134C12.3568 4.11869 12.4868 4.24869 12.5541 4.412C12.5881 4.49334 12.6055 4.58 12.6055 4.66666V8.66666Z" fill="black" fill-opacity="0.85"/>
</svg>
