<svg width="22" height="22" viewBox="0 0 22 22" fill="none" xmlns="http://www.w3.org/2000/svg">
  <rect width="22" height="22" fill="white"/>
  <path d="M14.6333 15.4999H14.5588L15.1048 14.5708C15.1668 14.4652 15.2 14.3411 15.2 14.2142V8.42869C15.2 2.07342 10.712 2 10.6666 2C10.5164 2 10.3723 2.06769 10.266 2.18818C10.1598 2.30867 10.1 2.4721 10.1 2.64255L10.0997 3.92828H9.5333C9.41519 3.92817 9.30005 3.97011 9.20406 4.04818L5.23738 7.26252C5.13875 7.34242 5.06529 7.45609 5.0278 7.58684C4.9903 7.71758 4.99075 7.85852 5.02907 7.98896L5.59574 9.91757C5.63752 10.0605 5.7223 10.1822 5.83523 10.2613C5.94817 10.3405 6.08204 10.372 6.21341 10.3504L8.97309 9.90311L6.78603 13.8735C6.72821 13.9784 6.69833 14.1 6.69994 14.2237C6.70156 14.3475 6.73462 14.468 6.79515 14.571L7.34114 15.4999H7.26662C6.8159 15.5005 6.38378 15.7039 6.06508 16.0654C5.74638 16.427 5.56711 16.9172 5.56661 17.4285V20H16.3333V17.4285C16.3329 16.9172 16.1536 16.427 15.8349 16.0654C15.5162 15.7039 15.084 15.5005 14.6333 15.4999ZM10.5806 9.41195C10.6378 9.30804 10.6677 9.18773 10.6667 9.06518C10.6657 8.94264 10.6339 8.82297 10.5749 8.72029C10.516 8.6176 10.4324 8.53616 10.334 8.48558C10.2356 8.435 10.1265 8.41738 10.0196 8.43479L6.52106 9.00174L6.2363 8.03242L9.71463 5.21434H10.6661C10.8163 5.21434 10.9604 5.14666 11.0667 5.02617C11.1729 4.90567 11.2327 4.74224 11.2327 4.5718L11.2333 3.36828C12.0841 3.58345 13.6228 4.35901 13.9873 7.14263H12.3667V8.42837H14.0667V9.7141H12.3667V10.9998H14.0667V12.2856H12.3667V13.5713H14.0667V14.0196L13.1967 15.4999H8.70302L7.94095 14.2029L10.5806 9.41195ZM15.2 18.7143H6.69995V17.4285C6.70009 17.2581 6.75983 17.0946 6.86607 16.9741C6.97231 16.8536 7.11637 16.7858 7.26662 16.7857H14.6333C14.7836 16.7858 14.9277 16.8535 15.034 16.9741C15.1402 17.0946 15.1999 17.2581 15.2 17.4285V18.7143Z" fill="black"/>
</svg>
