<svg width="512" height="512" viewBox="0 0 512 512" fill="none" xmlns="http://www.w3.org/2000/svg">
  <circle cx="256" cy="256" r="255" fill="#EEEEEE"/>
  <path d="M256.276 119.75V92.5C212.553 92.5 171.446 109.504 140.531 140.379C109.602 171.253 92.5703 212.319 92.5703 255.988C92.5703 299.656 109.602 340.709 140.531 371.611C171.46 402.471 212.567 419.476 256.276 419.476V392.225C219.829 392.225 185.562 378.055 159.783 352.317C134.018 326.566 119.821 292.353 119.821 255.974C119.821 219.581 134.018 185.382 159.783 159.645C185.548 133.92 219.815 119.75 256.276 119.75Z" fill="black" fill-opacity="0.85"/>
  <path d="M256.309 324.108C293.986 324.108 324.53 293.608 324.53 255.983C324.53 218.358 293.986 187.857 256.309 187.857C218.631 187.857 188.088 218.358 188.088 255.983C188.088 293.608 218.631 324.108 256.309 324.108Z" fill="black" fill-opacity="0.85"/>
  <path d="M446.832 269.818C444.134 306.946 430.727 342.208 408.095 371.802C385.45 401.396 354.889 423.577 319.695 435.922C284.543 448.28 246.815 450.119 210.572 441.208C174.356 432.297 141.792 413.168 116.395 385.89C90.9979 358.626 74.2662 324.822 67.9851 288.116C61.7039 251.424 66.2547 213.982 81.1469 179.837C96.0392 145.693 120.401 116.862 151.589 96.4654C182.804 76.0413 219.006 65.2502 256.298 65.2502V38C213.692 38 172.326 50.3307 136.683 73.6433C101.04 96.9559 73.2035 129.901 56.1857 168.924C39.1543 207.946 33.9631 250.743 41.1299 292.694C48.2968 334.646 67.4401 373.287 96.4616 404.448C125.483 435.608 162.693 457.463 204.073 467.641C221.309 471.892 238.844 474.004 256.352 474.004C280.864 474.004 305.307 469.848 328.743 461.619C368.937 447.517 403.858 422.174 429.732 388.343C455.606 354.539 470.921 314.236 474 271.78L446.832 269.818Z" fill="black" fill-opacity="0.85"/>
  <path d="M472.487 225.792C466.192 180.775 446.354 139.491 415.098 106.409L395.301 125.116C422.633 154.056 439.991 190.176 445.509 229.566L472.487 225.792Z" fill="black" fill-opacity="0.85"/>
  <path d="M394.544 87.3074C386.914 81.0807 378.835 75.3445 370.51 70.2351L356.271 93.4659C363.547 97.935 370.619 102.963 377.295 108.413L394.544 87.3074Z" fill="black" fill-opacity="0.85"/>
</svg>
