<svg width="32" height="32" viewBox="0 0 32 32" fill="none" xmlns="http://www.w3.org/2000/svg">
  <g clip-path="url(#clip0_3056_3332)">
    <path d="M29.7511 15.9795C29.7526 17.7829 29.3982 19.569 28.7082 21.2355C28.0183 22.9021 27.0063 24.4165 25.73 25.6923C24.4538 26.968 22.9384 27.98 21.2704 28.6705C19.6023 29.361 17.8144 29.7164 16.0088 29.7164C14.2032 29.7164 12.4153 29.361 10.7473 28.6705C9.07932 27.98 7.56389 26.968 6.28766 25.6923C5.01143 24.4165 3.99942 22.9021 3.30947 21.2355C2.61951 19.569 2.26514 17.7829 2.26661 15.9795C2.26514 14.1761 2.61951 12.39 3.30947 10.7235C3.99942 9.0569 5.01143 7.54247 6.28766 6.26673C7.56389 4.991 9.07932 3.97898 10.7473 3.28849C12.4153 2.59801 14.2032 2.24261 16.0088 2.24261C17.8144 2.24261 19.6023 2.59801 21.2704 3.28849C22.9384 3.97898 24.4538 4.991 25.73 6.26673C27.0063 7.54247 28.0183 9.0569 28.7082 10.7235C29.3982 12.39 29.7526 14.1761 29.7511 15.9795Z" fill="url(#paint0_linear_3056_3332)" stroke="url(#paint1_linear_3056_3332)" stroke-width="2.66669" stroke-linecap="round"/>
    <path d="M10.5387 8.52188L10.4385 8.62188L10.8408 10.6308L11.7459 10.7309C16.5582 4.92703 21.6523 10.5175 16.8871 15.2362C15.2955 16.8122 14.888 18.5042 14.8757 20.56C14.8757 20.7441 15.57 20.9618 15.7808 20.9618C15.9916 20.9618 16.5854 20.7439 16.5854 20.56C16.3179 18.7735 17.1683 17.4684 18.1945 16.4415C21.5338 13.1002 23.0721 9.70115 20.1273 7.26666C18.0426 5.54323 14.0985 5.25704 10.5388 8.52148L10.5387 8.52188ZM15.7405 23.5538C14.9104 23.8811 14.5236 24.3328 14.2396 25.0528V25.1363C14.4799 26.0527 14.8448 26.439 15.7405 26.6354H15.9074C16.6939 26.4389 17.1024 26.0309 17.4083 25.1363V25.0528C17.1243 24.2673 16.7157 23.8374 15.9074 23.5538H15.7405Z" fill="white" stroke="white" stroke-width="1.06667"/>
  </g>
  <defs>
    <linearGradient id="paint0_linear_3056_3332" x1="16.224" y1="30.5687" x2="15.9173" y2="1.29472" gradientUnits="userSpaceOnUse">
      <stop stop-color="#0645AD"/>
      <stop offset="1" stop-color="#398FEA"/>
    </linearGradient>
    <linearGradient id="paint1_linear_3056_3332" x1="16.224" y1="30.5687" x2="15.9173" y2="1.29472" gradientUnits="userSpaceOnUse">
      <stop stop-color="#0645AD"/>
      <stop offset="1" stop-color="#398FEA"/>
    </linearGradient>
    <clipPath id="clip0_3056_3332">
      <rect width="30.1714" height="30.1352" fill="white" transform="translate(0.914062 0.914291)"/>
    </clipPath>
  </defs>
</svg>
