<svg width="91" height="38" viewBox="0 0 91 38" fill="none" xmlns="http://www.w3.org/2000/svg">
<path d="M43.5284 20.6751V22.7631H31.4564V21.1311L38.2964 14.5311C39.1284 13.7311 39.6884 13.0431 39.9764 12.4671C40.2644 11.8751 40.4084 11.2831 40.4084 10.6911C40.4084 9.81106 40.0964 9.13106 39.4724 8.65106C38.8644 8.15506 37.9844 7.90706 36.8324 7.90706C34.9764 7.90706 33.5444 8.51506 32.5364 9.73106L30.9044 8.31506C31.5604 7.51506 32.4164 6.89106 33.4724 6.44306C34.5444 5.99506 35.7364 5.77106 37.0484 5.77106C38.8084 5.77106 40.2084 6.19506 41.2484 7.04306C42.2884 7.87506 42.8084 9.01106 42.8084 10.4511C42.8084 11.3471 42.6164 12.1951 42.2324 12.9951C41.8484 13.7951 41.1204 14.7071 40.0484 15.7311L34.9124 20.6751H43.5284ZM59.6723 18.6351H56.4803V22.7631H54.1523V18.6351H44.8163V16.9551L53.4083 5.96306H56.0003L47.7683 16.5711H54.2243V12.9231H56.4803V16.5711H59.6723V18.6351Z" fill="#fff" fill-opacity="0.65"/>
<path d="M10.716 28.2451L8.34 34.6051H7.236L5.4 29.7811L3.54 34.6051H2.436L0.072 28.2451H1.164L3.012 33.3091L4.932 28.2451H5.904L7.788 33.3331L9.684 28.2451H10.716ZM14.4332 34.6771C13.8012 34.6771 13.2332 34.5371 12.7292 34.2571C12.2252 33.9771 11.8292 33.5931 11.5412 33.1051C11.2612 32.6091 11.1212 32.0491 11.1212 31.4251C11.1212 30.8011 11.2612 30.2451 11.5412 29.7571C11.8292 29.2611 12.2252 28.8771 12.7292 28.6051C13.2332 28.3251 13.8012 28.1851 14.4332 28.1851C15.0652 28.1851 15.6292 28.3251 16.1252 28.6051C16.6292 28.8771 17.0212 29.2611 17.3012 29.7571C17.5892 30.2451 17.7332 30.8011 17.7332 31.4251C17.7332 32.0491 17.5892 32.6091 17.3012 33.1051C17.0212 33.5931 16.6292 33.9771 16.1252 34.2571C15.6292 34.5371 15.0652 34.6771 14.4332 34.6771ZM14.4332 33.6691C14.8412 33.6691 15.2052 33.5771 15.5252 33.3931C15.8532 33.2011 16.1092 32.9371 16.2932 32.6011C16.4772 32.2571 16.5692 31.8651 16.5692 31.4251C16.5692 30.9851 16.4772 30.5971 16.2932 30.2611C16.1092 29.9171 15.8532 29.6531 15.5252 29.4691C15.2052 29.2851 14.8412 29.1931 14.4332 29.1931C14.0252 29.1931 13.6572 29.2851 13.3292 29.4691C13.0092 29.6531 12.7532 29.9171 12.5612 30.2611C12.3772 30.5971 12.2852 30.9851 12.2852 31.4251C12.2852 31.8651 12.3772 32.2571 12.5612 32.6011C12.7532 32.9371 13.0092 33.2011 13.3292 33.3931C13.6572 33.5771 14.0252 33.6691 14.4332 33.6691ZM20.4304 29.3131C20.6304 28.9451 20.9264 28.6651 21.3184 28.4731C21.7104 28.2811 22.1864 28.1851 22.7464 28.1851V29.3011C22.6824 29.2931 22.5944 29.2891 22.4824 29.2891C21.8584 29.2891 21.3664 29.4771 21.0064 29.8531C20.6544 30.2211 20.4784 30.7491 20.4784 31.4371V34.6051H19.3264V28.2451H20.4304V29.3131ZM26.6382 31.6411L25.3182 32.8651V34.6051H24.1662V25.7011H25.3182V31.4131L28.7862 28.2451H30.1782L27.5022 30.8731L30.4422 34.6051H29.0262L26.6382 31.6411ZM31.4787 28.2451H32.6307V34.6051H31.4787V28.2451ZM32.0547 27.0211C31.8307 27.0211 31.6427 26.9491 31.4907 26.8051C31.3467 26.6611 31.2747 26.4851 31.2747 26.2771C31.2747 26.0691 31.3467 25.8931 31.4907 25.7491C31.6427 25.5971 31.8307 25.5211 32.0547 25.5211C32.2787 25.5211 32.4627 25.5931 32.6067 25.7371C32.7587 25.8731 32.8347 26.0451 32.8347 26.2531C32.8347 26.4691 32.7587 26.6531 32.6067 26.8051C32.4627 26.9491 32.2787 27.0211 32.0547 27.0211ZM38.2263 28.1851C39.0343 28.1851 39.6743 28.4211 40.1463 28.8931C40.6263 29.3571 40.8663 30.0411 40.8663 30.9451V34.6051H39.7143V31.0771C39.7143 30.4611 39.5663 29.9971 39.2703 29.6851C38.9743 29.3731 38.5503 29.2171 37.9983 29.2171C37.3743 29.2171 36.8823 29.4011 36.5223 29.7691C36.1623 30.1291 35.9823 30.6491 35.9823 31.3291V34.6051H34.8303V28.2451H35.9343V29.2051C36.1663 28.8771 36.4783 28.6251 36.8703 28.4491C37.2703 28.2731 37.7223 28.1851 38.2263 28.1851ZM49.1174 28.2451V33.7411C49.1174 34.8531 48.8414 35.6731 48.2894 36.2011C47.7374 36.7371 46.9134 37.0051 45.8174 37.0051C45.2174 37.0051 44.6454 36.9211 44.1014 36.7531C43.5574 36.5931 43.1174 36.3611 42.7814 36.0571L43.3334 35.1691C43.6294 35.4251 43.9934 35.6251 44.4254 35.7691C44.8654 35.9211 45.3174 35.9971 45.7814 35.9971C46.5254 35.9971 47.0734 35.8211 47.4254 35.4691C47.7854 35.1171 47.9654 34.5811 47.9654 33.8611V33.3571C47.6934 33.6851 47.3574 33.9331 46.9574 34.1011C46.5654 34.2611 46.1374 34.3411 45.6734 34.3411C45.0654 34.3411 44.5134 34.2131 44.0174 33.9571C43.5294 33.6931 43.1454 33.3291 42.8654 32.8651C42.5854 32.3931 42.4454 31.8571 42.4454 31.2571C42.4454 30.6571 42.5854 30.1251 42.8654 29.6611C43.1454 29.1891 43.5294 28.8251 44.0174 28.5691C44.5134 28.3131 45.0654 28.1851 45.6734 28.1851C46.1534 28.1851 46.5974 28.2731 47.0054 28.4491C47.4214 28.6251 47.7614 28.8851 48.0254 29.2291V28.2451H49.1174ZM45.8054 33.3331C46.2214 33.3331 46.5934 33.2451 46.9214 33.0691C47.2574 32.8931 47.5174 32.6491 47.7014 32.3371C47.8934 32.0171 47.9894 31.6571 47.9894 31.2571C47.9894 30.6411 47.7854 30.1451 47.3774 29.7691C46.9694 29.3851 46.4454 29.1931 45.8054 29.1931C45.1574 29.1931 44.6294 29.3851 44.2214 29.7691C43.8134 30.1451 43.6094 30.6411 43.6094 31.2571C43.6094 31.6571 43.7014 32.0171 43.8854 32.3371C44.0774 32.6491 44.3374 32.8931 44.6654 33.0691C45.0014 33.2451 45.3814 33.3331 45.8054 33.3331ZM57.9372 28.1851C58.7452 28.1851 59.3852 28.4211 59.8572 28.8931C60.3372 29.3571 60.5772 30.0411 60.5772 30.9451V34.6051H59.4252V31.0771C59.4252 30.4611 59.2772 29.9971 58.9812 29.6851C58.6852 29.3731 58.2612 29.2171 57.7092 29.2171C57.0852 29.2171 56.5932 29.4011 56.2332 29.7691C55.8732 30.1291 55.6932 30.6491 55.6932 31.3291V34.6051H54.5412V25.7011H55.6932V29.1451C55.9332 28.8411 56.2452 28.6051 56.6292 28.4371C57.0212 28.2691 57.4572 28.1851 57.9372 28.1851ZM65.4683 34.6771C64.8363 34.6771 64.2683 34.5371 63.7643 34.2571C63.2603 33.9771 62.8643 33.5931 62.5763 33.1051C62.2963 32.6091 62.1563 32.0491 62.1563 31.4251C62.1563 30.8011 62.2963 30.2451 62.5763 29.7571C62.8643 29.2611 63.2603 28.8771 63.7643 28.6051C64.2683 28.3251 64.8363 28.1851 65.4683 28.1851C66.1003 28.1851 66.6643 28.3251 67.1603 28.6051C67.6643 28.8771 68.0563 29.2611 68.3363 29.7571C68.6243 30.2451 68.7683 30.8011 68.7683 31.4251C68.7683 32.0491 68.6243 32.6091 68.3363 33.1051C68.0563 33.5931 67.6643 33.9771 67.1603 34.2571C66.6643 34.5371 66.1003 34.6771 65.4683 34.6771ZM65.4683 33.6691C65.8763 33.6691 66.2403 33.5771 66.5603 33.3931C66.8883 33.2011 67.1443 32.9371 67.3283 32.6011C67.5123 32.2571 67.6043 31.8651 67.6043 31.4251C67.6043 30.9851 67.5123 30.5971 67.3283 30.2611C67.1443 29.9171 66.8883 29.6531 66.5603 29.4691C66.2403 29.2851 65.8763 29.1931 65.4683 29.1931C65.0603 29.1931 64.6923 29.2851 64.3643 29.4691C64.0443 29.6531 63.7883 29.9171 63.5963 30.2611C63.4123 30.5971 63.3203 30.9851 63.3203 31.4251C63.3203 31.8651 63.4123 32.2571 63.5963 32.6011C63.7883 32.9371 64.0443 33.2011 64.3643 33.3931C64.6923 33.5771 65.0603 33.6691 65.4683 33.6691ZM76.2895 28.2451V34.6051H75.1975V33.6451C74.9655 33.9731 74.6575 34.2291 74.2735 34.4131C73.8975 34.5891 73.4855 34.6771 73.0375 34.6771C72.1895 34.6771 71.5215 34.4451 71.0335 33.9811C70.5455 33.5091 70.3015 32.8171 70.3015 31.9051V28.2451H71.4535V31.7731C71.4535 32.3891 71.6015 32.8571 71.8975 33.1771C72.1935 33.4891 72.6175 33.6451 73.1695 33.6451C73.7775 33.6451 74.2575 33.4611 74.6095 33.0931C74.9615 32.7251 75.1375 32.2051 75.1375 31.5331V28.2451H76.2895ZM79.5866 29.3131C79.7866 28.9451 80.0826 28.6651 80.4746 28.4731C80.8666 28.2811 81.3426 28.1851 81.9026 28.1851V29.3011C81.8386 29.2931 81.7506 29.2891 81.6386 29.2891C81.0146 29.2891 80.5226 29.4771 80.1626 29.8531C79.8106 30.2211 79.6346 30.7491 79.6346 31.4371V34.6051H78.4826V28.2451H79.5866V29.3131ZM85.1933 34.6771C84.6733 34.6771 84.1733 34.6091 83.6933 34.4731C83.2133 34.3291 82.8373 34.1491 82.5653 33.9331L83.0453 33.0211C83.3253 33.2211 83.6653 33.3811 84.0653 33.5011C84.4653 33.6211 84.8693 33.6811 85.2773 33.6811C86.2853 33.6811 86.7893 33.3931 86.7893 32.8171C86.7893 32.6251 86.7213 32.4731 86.5853 32.3611C86.4493 32.2491 86.2773 32.1691 86.0693 32.1211C85.8693 32.0651 85.5813 32.0051 85.2053 31.9411C84.6933 31.8611 84.2733 31.7691 83.9453 31.6651C83.6253 31.5611 83.3493 31.3851 83.1173 31.1371C82.8853 30.8891 82.7693 30.5411 82.7693 30.0931C82.7693 29.5171 83.0093 29.0571 83.4893 28.7131C83.9693 28.3611 84.6133 28.1851 85.4213 28.1851C85.8453 28.1851 86.2693 28.2371 86.6933 28.3411C87.1173 28.4451 87.4653 28.5851 87.7373 28.7611L87.2453 29.6731C86.7253 29.3371 86.1133 29.1691 85.4093 29.1691C84.9213 29.1691 84.5493 29.2491 84.2933 29.4091C84.0373 29.5691 83.9093 29.7811 83.9093 30.0451C83.9093 30.2531 83.9813 30.4171 84.1253 30.5371C84.2693 30.6571 84.4453 30.7451 84.6533 30.8011C84.8693 30.8571 85.1693 30.9211 85.5533 30.9931C86.0653 31.0811 86.4773 31.1771 86.7893 31.2811C87.1093 31.3771 87.3813 31.5451 87.6053 31.7851C87.8293 32.0251 87.9413 32.3611 87.9413 32.7931C87.9413 33.3691 87.6933 33.8291 87.1973 34.1731C86.7093 34.5091 86.0413 34.6771 85.1933 34.6771Z" fill="#fff" fill-opacity="0.65"/>
</svg>
