<svg width="14" height="14" viewBox="0 0 14 14" fill="none" xmlns="http://www.w3.org/2000/svg">
<circle cx="7" cy="7" r="7" fill="#28587B"/>
<path d="M7.6462 8.59871C7.63054 8.5832 7.60939 8.5745 7.58735 8.5745C7.56531 8.5745 7.54416 8.5832 7.5285 8.59871L6.31812 9.80919C5.75772 10.3696 4.81192 10.429 4.19319 9.80919C3.57342 9.18936 3.63279 8.24453 4.19319 7.68408L5.40357 6.47361C5.43586 6.44131 5.43586 6.38819 5.40357 6.35589L4.989 5.94129C4.97334 5.92578 4.95219 5.91708 4.93015 5.91708C4.90811 5.91708 4.88696 5.92578 4.87129 5.94129L3.66092 7.15176C2.77969 8.03306 2.77969 9.45917 3.66092 10.3394C4.54214 11.2197 5.96813 11.2207 6.84831 10.3394L8.05869 9.12894C8.09098 9.09665 8.09098 9.04352 8.05869 9.01123L7.6462 8.59871ZM10.3399 3.66097C9.45864 2.77968 8.03265 2.77968 7.15247 3.66097L5.94105 4.87145C5.92554 4.88711 5.91684 4.90826 5.91684 4.9303C5.91684 4.95234 5.92554 4.9735 5.94105 4.98916L6.35458 5.40272C6.38687 5.43501 6.43999 5.43501 6.47228 5.40272L7.68266 4.19225C8.24306 3.6318 9.18886 3.57242 9.80759 4.19225C10.4274 4.81207 10.368 5.75691 9.80759 6.31735L8.59721 7.52782C8.58171 7.54349 8.57301 7.56464 8.57301 7.58668C8.57301 7.60872 8.58171 7.62988 8.59721 7.64554L9.01178 8.06014C9.04407 8.09244 9.0972 8.09244 9.12949 8.06014L10.3399 6.84967C11.22 5.96837 11.22 4.54226 10.3399 3.66097ZM8.02223 5.54544C8.00657 5.52993 7.98542 5.52123 7.96338 5.52123C7.94134 5.52123 7.92019 5.52993 7.90453 5.54544L5.54523 7.90389C5.52972 7.91955 5.52102 7.9407 5.52102 7.96274C5.52102 7.98478 5.52972 8.00594 5.54523 8.0216L5.95772 8.43412C5.99001 8.46641 6.04313 8.46641 6.07542 8.43412L8.43368 6.07567C8.46597 6.04338 8.46597 5.99025 8.43368 5.95796L8.02223 5.54544Z" fill="white" fill-opacity="0.85"/>
</svg>
