<svg xmlns="http://www.w3.org/2000/svg" width="16" height="16" fill="#515151">
  <path
    d="M13.714 11.429c-.404.002-.799.115-1.143.326l-1.766-1.771a3.43 3.43 0 0 0 0-3.966l1.766-1.771c.344.211.739.324 1.143.326.452 0 .894-.134 1.27-.385s.669-.608.842-1.026.218-.877.13-1.321-.306-.851-.626-1.17-.727-.537-1.17-.626-.903-.043-1.321.13-.775.466-1.026.842-.385.818-.385 1.27c.002.404.115.799.326 1.143L9.983 5.194a3.43 3.43 0 0 0-3.966 0L4.246 3.429c.211-.344.324-.739.326-1.143 0-.452-.134-.894-.385-1.27S3.578.347 3.16.174 2.283-.044 1.84.044.989.35.669.669.132 1.396.044 1.84s-.043.903.13 1.321.466.775.842 1.026.818.385 1.27.385c.404-.002.799-.115 1.143-.326l1.766 1.771a3.43 3.43 0 0 0 0 3.966l-1.766 1.771c-.344-.211-.739-.324-1.143-.326-.452 0-.894.134-1.27.385s-.669.608-.842 1.026-.218.877-.13 1.321.306.851.626 1.17.727.537 1.17.626.903.043 1.321-.13.775-.466 1.026-.842.385-.818.385-1.27c-.002-.404-.115-.799-.326-1.143l1.771-1.766a3.43 3.43 0 0 0 3.966 0l1.771 1.766c-.211.344-.324.739-.326 1.143 0 .452.134.894.385 1.27s.608.669 1.026.842.877.218 1.321.13.851-.306 1.17-.626.537-.727.626-1.17.043-.903-.13-1.321-.466-.775-.842-1.026-.818-.385-1.27-.385zm0-10.286c.226 0 .447.067.635.193a1.14 1.14 0 0 1 .421.513c.087.209.109.439.065.66s-.153.425-.313.585-.364.269-.585.313-.451.021-.66-.065-.387-.233-.513-.421-.193-.409-.193-.635c0-.303.12-.594.335-.808s.505-.335.808-.335zM1.143 2.286c0-.226.067-.447.193-.635s.304-.334.513-.421.439-.109.66-.065.425.153.585.313.269.363.313.585.021.451-.065.66-.233.387-.421.513-.409.193-.635.193c-.303 0-.594-.12-.808-.335s-.335-.505-.335-.808zm1.143 12.571c-.226 0-.447-.067-.635-.193a1.14 1.14 0 0 1-.421-.513c-.087-.209-.109-.439-.065-.66a1.14 1.14 0 0 1 .898-.898c.222-.044.451-.022.66.065s.387.233.513.421.193.409.193.635c0 .303-.12.594-.335.808s-.505.335-.808.335zM8 10.286c-.452 0-.894-.134-1.27-.385s-.669-.608-.842-1.026-.218-.877-.13-1.321.306-.851.626-1.17.727-.537 1.17-.626.903-.043 1.321.13.775.466 1.026.842.385.818.385 1.27c0 .606-.241 1.188-.669 1.616s-1.01.669-1.616.669zm5.714 4.571c-.226 0-.447-.067-.635-.193a1.14 1.14 0 0 1-.421-.513c-.087-.209-.109-.439-.065-.66a1.14 1.14 0 0 1 .898-.898c.222-.044.451-.022.66.065a1.14 1.14 0 0 1 .513.421c.126.188.193.409.193.635 0 .303-.12.594-.335.808s-.505.335-.808.335z"/>
</svg>
