<svg width="97" height="97" viewBox="0 0 97 97" fill="none" xmlns="http://www.w3.org/2000/svg">
<path d="M48.5128 83.0881H17.209V9.48602H57.0279L74.3908 26.8014V53.2575H72.8066V27.4588L56.3784 11.0702H18.7932V81.5039H48.5128V83.0881Z" fill="#fff"/>
<path d="M65.1792 85.6149C62.4231 85.6149 59.729 84.7975 57.4375 83.2662C55.1461 81.7349 53.3603 79.5584 52.3059 77.012C51.2516 74.4656 50.9761 71.6637 51.5144 68.9607C52.0527 66.2578 53.3804 63.7751 55.3298 61.8269C57.2792 59.8786 59.7625 58.5523 62.4658 58.0155C65.1691 57.4788 67.9708 57.7559 70.5166 58.8116C73.0624 59.8674 75.2379 61.6545 76.7679 63.9468C78.298 66.2391 79.1138 68.9337 79.1122 71.6898C79.108 75.383 77.6385 78.9237 75.0262 81.5345C72.4139 84.1453 68.8724 85.6128 65.1792 85.6149ZM65.1792 59.3409C62.7368 59.3409 60.3493 60.0652 58.3185 61.4221C56.2877 62.779 54.705 64.7076 53.7703 66.9641C52.8356 69.2205 52.5911 71.7035 53.0676 74.0989C53.5441 76.4944 54.7202 78.6947 56.4472 80.4217C58.1742 82.1488 60.3746 83.3249 62.77 83.8013C65.1655 84.2778 67.6484 84.0333 69.9049 83.0986C72.1613 82.164 74.09 80.5812 75.4469 78.5504C76.8038 76.5197 77.528 74.1321 77.528 71.6898C77.5259 68.4153 76.2242 65.2755 73.9088 62.9601C71.5934 60.6447 68.4536 59.343 65.1792 59.3409Z" fill="#fff"/>
<path d="M73.5988 27.9182H56.1329L55.9111 10.286L57.4953 10.2702L57.6934 26.334H73.5988V27.9182Z" fill="#fff"/>
<path d="M65.9709 64.141H64.3867V78.7869H65.9709V64.141Z" fill="#fff"/>
<path d="M72.5053 70.6758H57.8594V72.26H72.5053V70.6758Z" fill="#fff"/>
<path d="M48.5212 84.3C49.7679 84.3 50.7786 83.2893 50.7786 82.0425C50.7786 80.7957 49.7679 79.785 48.5212 79.785C47.2744 79.785 46.2637 80.7957 46.2637 82.0425C46.2637 83.2893 47.2744 84.3 48.5212 84.3Z" fill="#fff"/>
<path d="M73.5983 55.515C74.8451 55.515 75.8558 54.5043 75.8558 53.2575C75.8558 52.0108 74.8451 51.0001 73.5983 51.0001C72.3515 51.0001 71.3408 52.0108 71.3408 53.2575C71.3408 54.5043 72.3515 55.515 73.5983 55.515Z" fill="#FF0000"/>
</svg>
