<svg width="20" height="20" viewBox="0 0 20 20" fill="none" xmlns="http://www.w3.org/2000/svg">
<circle cx="10" cy="10" r="9.5" fill="#FDCD56" stroke="white"/>
<circle cx="10" cy="10" r="6.5" fill="#F5B945" stroke="white"/>
<path d="M12.7263 10.5702L13.0896 10.9137L12.7263 10.5702C12.5818 10.723 12.5137 10.9326 12.5407 11.1412L13.0366 11.0768L12.5407 11.1412L12.9129 14.0093L10.3002 12.769L10.0858 13.2207L10.3002 12.769C10.1102 12.6788 9.88978 12.6788 9.69982 12.769L7.08711 14.0093L7.45927 11.1412C7.48633 10.9326 7.41821 10.723 7.27374 10.5702L5.28684 8.4686L8.12956 7.93626C8.33624 7.89755 8.51458 7.76798 8.61526 7.58337L10 5.04429L11.3847 7.58337C11.4854 7.76798 11.6638 7.89755 11.8704 7.93626L14.7132 8.4686L12.7263 10.5702ZM15.0911 8.06888L15.0908 8.06921L15.0911 8.06888Z" fill="#FDCD56" stroke="white"/>
</svg>
