<svg width="12" height="12" viewBox="0 0 12 12" fill="none" xmlns="http://www.w3.org/2000/svg">
<path d="M5.75 0.75C2.85078 0.75 0.5 3.10078 0.5 6C0.5 8.89922 2.85078 11.25 5.75 11.25C8.64922 11.25 11 8.89922 11 6C11 3.10078 8.64922 0.75 5.75 0.75ZM7.68828 7.99453L6.91484 7.99102L5.75 6.60234L4.58633 7.98984L3.81172 7.99336C3.76016 7.99336 3.71797 7.95234 3.71797 7.89961C3.71797 7.87734 3.72617 7.85625 3.74023 7.83867L5.26484 6.02227L3.74023 4.20703C3.72607 4.18986 3.71822 4.16835 3.71797 4.14609C3.71797 4.09453 3.76016 4.05234 3.81172 4.05234L4.58633 4.05586L5.75 5.44453L6.91367 4.05703L7.68711 4.05352C7.73867 4.05352 7.78086 4.09453 7.78086 4.14727C7.78086 4.16953 7.77266 4.19063 7.75859 4.2082L6.23633 6.02344L7.75977 7.83984C7.77383 7.85742 7.78203 7.87852 7.78203 7.90078C7.78203 7.95234 7.73984 7.99453 7.68828 7.99453Z" fill="black" fill-opacity="0.25"/>
</svg>
