<svg width="34" height="32" viewBox="0 0 34 32" fill="none" xmlns="http://www.w3.org/2000/svg">
  <path fill-rule="evenodd" clip-rule="evenodd" d="M25.3963 0C27.676 0 29.869 0.942222 31.4823 2.63289C33.0973 4.32 34 6.59556 34 8.97778V23.0222C34 27.9822 30.141 32 25.3963 32H8.602C3.8573 32 0 27.9822 0 23.0222V8.97778C0 4.01778 3.8403 0 8.602 0H25.3963ZM28.103 11.6266L28.239 11.4844C28.6453 10.9689 28.6453 10.2222 28.2203 9.70663C27.984 9.44174 27.6593 9.27996 27.321 9.24441C26.964 9.22485 26.624 9.35107 26.3673 9.59996L18.702 16C17.716 16.8551 16.3033 16.8551 15.302 16L7.65203 9.59996C7.12333 9.19107 6.39233 9.24441 5.95203 9.72441C5.49303 10.2044 5.44203 10.9689 5.83133 11.5022L6.05403 11.7333L13.789 18.0444C14.741 18.8266 15.8953 19.2533 17.104 19.2533C18.3093 19.2533 19.484 18.8266 20.4343 18.0444L28.103 11.6266Z" fill="#384052"/>
</svg>
