<svg width="24" height="18" viewBox="0 0 24 18" fill="none" xmlns="http://www.w3.org/2000/svg">
<path d="M22.5625 0.0625H1.4375C0.988086 0.0625 0.625 0.425586 0.625 0.875V17.125C0.625 17.5744 0.988086 17.9375 1.4375 17.9375H22.5625C23.0119 17.9375 23.375 17.5744 23.375 17.125V0.875C23.375 0.425586 23.0119 0.0625 22.5625 0.0625ZM20.5109 2.82754L12.5002 9.06094C12.3021 9.21582 12.0254 9.21582 11.8273 9.06094L3.81406 2.82754C3.78386 2.80423 3.7617 2.77205 3.7507 2.73551C3.7397 2.69897 3.74041 2.65991 3.75273 2.6238C3.76505 2.58768 3.78836 2.55633 3.81939 2.53413C3.85042 2.51193 3.88762 2.49999 3.92578 2.5H20.3992C20.4374 2.49999 20.4746 2.51193 20.5056 2.53413C20.5366 2.55633 20.56 2.58768 20.5723 2.6238C20.5846 2.65991 20.5853 2.69897 20.5743 2.73551C20.5633 2.77205 20.5411 2.80423 20.5109 2.82754Z" fill="#28587B"/>
</svg>
