<svg width="25" height="25" viewBox="0 0 25 25" fill="none" xmlns="http://www.w3.org/2000/svg">
<path d="M12.5 25C19.4036 25 25 19.4036 25 12.5C25 5.59644 19.4036 0 12.5 0C5.59644 0 0 5.59644 0 12.5C0 19.4036 5.59644 25 12.5 25Z" fill="#627EEA"/>
<path d="M12.8892 3.125V10.0547L18.7462 12.6719L12.8892 3.125Z" fill="white" fill-opacity="0.602"/>
<path d="M12.8891 3.125L7.03125 12.6719L12.8891 10.0547V3.125Z" fill="white"/>
<path d="M12.8892 17.1625V21.871L18.7501 13.7625L12.8892 17.1625Z" fill="white" fill-opacity="0.602"/>
<path d="M12.8891 21.871V17.1617L7.03125 13.7625L12.8891 21.871Z" fill="white"/>
<path d="M12.8892 16.0726L18.7462 12.6718L12.8892 10.0562V16.0726Z" fill="white" fill-opacity="0.2"/>
<path d="M7.03125 12.6718L12.8891 16.0726V10.0562L7.03125 12.6718Z" fill="white" fill-opacity="0.602"/>
</svg>
