<svg width="14" height="14" viewBox="0 0 14 14" fill="none" xmlns="http://www.w3.org/2000/svg">
<path d="M0 0V14H14V0H0ZM4.09719 2.33319H5.04962C5.76275 2.33319 6.00688 2.34894 6.02262 2.39925C6.034 2.43819 6.041 3.19681 6.041 4.09019L6.03662 5.71244L6.31225 5.46613C6.69725 5.12663 7.021 5.00806 7.63394 4.98531C8.03731 4.97394 8.20138 4.98969 8.484 5.09031C9.10394 5.29769 9.54144 5.72381 9.76937 6.3525C9.85819 6.59881 9.86956 6.85606 9.88575 8.85238L9.90413 11.0832H7.95594V9.26275C7.95594 7.46944 7.95156 7.44669 7.83081 7.22794C7.65975 6.93875 7.47512 6.80619 7.18375 6.77469C6.68719 6.72 6.34288 6.88844 6.14687 7.29444C6.05325 7.48125 6.04187 7.67725 6.0375 9.25181C6.0305 10.2134 6.01912 11.0202 6.01912 11.0408C6.01475 11.0683 5.58162 11.0841 5.05531 11.0841H4.10069V6.70906L4.09719 2.33319Z" fill="#333333"/>
</svg>
