<svg width="13" height="14" viewBox="0 0 13 14" fill="none" xmlns="http://www.w3.org/2000/svg">
<path d="M12.6855 3.46155C12.4838 2.96084 12.1929 2.5071 11.8292 2.12573C11.4653 1.74323 11.0362 1.43925 10.5652 1.23035C10.0769 1.01286 9.5531 0.901539 9.0243 0.902843C8.28243 0.902843 7.55862 1.12064 6.92961 1.53203C6.77913 1.63045 6.63618 1.73854 6.50074 1.85631C6.36531 1.73854 6.22236 1.63045 6.07188 1.53203C5.44287 1.12064 4.71906 0.902843 3.97719 0.902843C3.44299 0.902843 2.92533 1.01255 2.43627 1.23035C1.96377 1.44008 1.53791 1.74177 1.17224 2.12573C0.808074 2.50667 0.517167 2.96052 0.316008 3.46155C0.106841 3.98265 0 4.53602 0 5.10552C0 5.64275 0.102327 6.20257 0.305475 6.77207C0.475517 7.248 0.719295 7.74167 1.03079 8.24018C1.52436 9.02909 2.20303 9.85188 3.04572 10.686C4.44218 12.0686 5.82509 13.0237 5.88378 13.0624L6.24041 13.3076C6.39842 13.4157 6.60157 13.4157 6.75957 13.3076L7.11621 13.0624C7.1749 13.022 8.5563 12.0686 9.95426 10.686C10.797 9.85188 11.4756 9.02909 11.9692 8.24018C12.2807 7.74167 12.526 7.248 12.6945 6.77207C12.8977 6.20257 13 5.64275 13 5.10552C13.0015 4.53602 12.8946 3.98265 12.6855 3.46155Z" fill="#D21717" fill-opacity="0.85"/>
</svg>
