<svg width="207" height="207" viewBox="0 0 207 207" fill="none" xmlns="http://www.w3.org/2000/svg">
<path d="M103.5 0.6875C46.7236 0.6875 0.6875 46.7236 0.6875 103.5C0.6875 160.276 46.7236 206.312 103.5 206.312C160.276 206.312 206.312 160.276 206.312 103.5C206.312 46.7236 160.276 0.6875 103.5 0.6875ZM103.5 188.871C56.3623 188.871 18.1289 150.638 18.1289 103.5C18.1289 56.3623 56.3623 18.1289 103.5 18.1289C150.638 18.1289 188.871 56.3623 188.871 103.5C188.871 150.638 150.638 188.871 103.5 188.871Z" fill="#D9D9D9" fill-opacity="0.85"/>
<path d="M92.4808 143.891C92.4808 146.812 93.6414 149.614 95.7072 151.68C97.773 153.746 100.575 154.906 103.496 154.906C106.418 154.906 109.22 153.746 111.286 151.68C113.351 149.614 114.512 146.812 114.512 143.891C114.512 140.969 113.351 138.167 111.286 136.101C109.22 134.036 106.418 132.875 103.496 132.875C100.575 132.875 97.773 134.036 95.7072 136.101C93.6414 138.167 92.4808 140.969 92.4808 143.891ZM97.9886 118.188H109.004C110.014 118.188 110.84 117.361 110.84 116.352V53.9297C110.84 52.9199 110.014 52.0938 109.004 52.0938H97.9886C96.9788 52.0938 96.1527 52.9199 96.1527 53.9297V116.352C96.1527 117.361 96.9788 118.188 97.9886 118.188Z" fill="#D9D9D9" fill-opacity="0.85"/>
</svg>
