<svg width="97" height="97" viewBox="0 0 97 97" fill="none" xmlns="http://www.w3.org/2000/svg">
<path d="M80.5666 86.1852H15.337C14.4757 86.1862 13.6227 86.0176 12.8266 85.689C12.0304 85.3603 11.3068 84.8781 10.6971 84.2698C10.0873 83.6615 9.60334 82.9391 9.27278 82.1438C8.94222 81.3484 8.77155 80.4958 8.77051 79.6345V30.9124C8.7726 29.1749 9.46318 27.5091 10.691 26.2798C11.9188 25.0505 13.5838 24.358 15.3212 24.3538H47.3538C47.5638 24.3538 47.7653 24.4372 47.9139 24.5858C48.0624 24.7343 48.1459 24.9358 48.1459 25.1459C48.1459 25.3559 48.0624 25.5574 47.9139 25.706C47.7653 25.8545 47.5638 25.938 47.3538 25.938H15.337C14.6831 25.9369 14.0354 26.0648 13.431 26.3143C12.8265 26.5639 12.2772 26.9301 11.8145 27.3921C11.3517 27.8541 10.9846 28.4029 10.7341 29.0069C10.4836 29.6109 10.3547 30.2584 10.3547 30.9124V79.6345C10.3547 80.9517 10.878 82.2149 11.8094 83.1463C12.7408 84.0777 14.004 84.601 15.3212 84.601H80.5507C81.8687 84.601 83.1327 84.078 84.0654 83.1468C84.998 82.2157 85.523 80.9524 85.5251 79.6345V40.7423C85.5251 40.5323 85.6086 40.3308 85.7571 40.1822C85.9057 40.0337 86.1072 39.9502 86.3172 39.9502C86.5273 39.9502 86.7288 40.0337 86.8773 40.1822C87.0259 40.3308 87.1093 40.5323 87.1093 40.7423V79.6345C87.1052 81.3692 86.4147 83.0318 85.1889 84.2591C83.963 85.4865 82.3013 86.1789 80.5666 86.1852Z" fill="#050505"/>
<path d="M58.7124 41.875C58.5493 41.8742 58.3888 41.8334 58.2451 41.7562C58.0672 41.6706 57.9179 41.5353 57.8152 41.3666C57.7126 41.1979 57.6611 41.0031 57.6668 40.8057L57.7223 37.6373C55.7917 37.4443 54.0023 36.5389 52.7033 35.0978C51.4042 33.6566 50.6887 31.7832 50.6963 29.843V18.1041C50.6984 15.9598 51.5512 13.904 53.0674 12.3878C54.5836 10.8716 56.6394 10.0188 58.7837 10.0167H79.0377C81.1813 10.0209 83.236 10.8743 84.7517 12.3901C86.2675 13.9058 87.1209 15.9605 87.1251 18.1041V29.5975C87.1209 31.7411 86.2675 33.7957 84.7517 35.3115C83.236 36.8272 81.1813 37.6806 79.0377 37.6848H64.4155L59.354 41.6453C59.1724 41.7925 58.9462 41.8735 58.7124 41.875ZM58.7837 11.6009C57.0596 11.603 55.4067 12.2888 54.1876 13.508C52.9685 14.7271 52.2826 16.38 52.2806 18.1041V29.8509C52.2735 31.4725 52.8995 33.0328 54.0252 34.2C55.151 35.3672 56.6877 36.0491 58.3084 36.1006C58.5823 36.1089 58.8417 36.2252 59.0302 36.424C59.2186 36.6228 59.3208 36.8881 59.3144 37.162L59.2669 39.7047L63.5838 36.3224C63.7674 36.1797 63.993 36.1017 64.2254 36.1006H79.0377C80.7618 36.0985 82.4147 35.4127 83.6338 34.1936C84.853 32.9745 85.5388 31.3216 85.5409 29.5975V18.1041C85.5388 16.38 84.853 14.7271 83.6338 13.508C82.4147 12.2888 80.7618 11.603 79.0377 11.6009H58.7837Z" fill="#050505"/>
<path d="M45.8485 36.6868H17.8398V37.8749H45.8485V36.6868Z" fill="#050505"/>
<path d="M17.3485 39.1264C18.3678 39.1264 19.1941 38.3001 19.1941 37.2808C19.1941 36.2615 18.3678 35.4352 17.3485 35.4352C16.3292 35.4352 15.5029 36.2615 15.5029 37.2808C15.5029 38.3001 16.3292 39.1264 17.3485 39.1264Z" fill="#090909"/>
<path d="M46.5614 39.1264C47.5807 39.1264 48.407 38.3001 48.407 37.2808C48.407 36.2615 47.5807 35.4352 46.5614 35.4352C45.5421 35.4352 44.7158 36.2615 44.7158 37.2808C44.7158 38.3001 45.5421 39.1264 46.5614 39.1264Z" fill="#090909"/>
<path d="M58.9579 22.2151C59.9772 22.2151 60.8035 21.3888 60.8035 20.3695C60.8035 19.3502 59.9772 18.5239 58.9579 18.5239C57.9386 18.5239 57.1123 19.3502 57.1123 20.3695C57.1123 21.3888 57.9386 22.2151 58.9579 22.2151Z" fill="#090909"/>
<path d="M58.9579 29.8113C59.9772 29.8113 60.8035 28.985 60.8035 27.9657C60.8035 26.9464 59.9772 26.1201 58.9579 26.1201C57.9386 26.1201 57.1123 26.9464 57.1123 27.9657C57.1123 28.985 57.9386 29.8113 58.9579 29.8113Z" fill="#090909"/>
<path d="M71.4101 29.8113C72.4293 29.8113 73.2557 28.985 73.2557 27.9657C73.2557 26.9464 72.4293 26.1201 71.4101 26.1201C70.3908 26.1201 69.5645 26.9464 69.5645 27.9657C69.5645 28.985 70.3908 29.8113 71.4101 29.8113Z" fill="#090909"/>
<path d="M79.3944 22.2151C80.4137 22.2151 81.24 21.3888 81.24 20.3695C81.24 19.3502 80.4137 18.5239 79.3944 18.5239C78.3751 18.5239 77.5488 19.3502 77.5488 20.3695C77.5488 21.3888 78.3751 22.2151 79.3944 22.2151Z" fill="#090909"/>
<path d="M79.3863 19.5774H58.958V21.1616H79.3863V19.5774Z" fill="#050505"/>
<path d="M71.4019 27.1736H58.958V28.7578H71.4019V27.1736Z" fill="#050505"/>
<path d="M86.2694 42.2711C87.6431 42.2711 88.7566 41.1575 88.7566 39.7839C88.7566 38.4102 87.6431 37.2967 86.2694 37.2967C84.8958 37.2967 83.7822 38.4102 83.7822 39.7839C83.7822 41.1575 84.8958 42.2711 86.2694 42.2711Z" fill="#FF0000"/>
<path d="M17.3491 32.7659C18.1934 32.7659 18.8778 32.0814 18.8778 31.2371C18.8778 30.3928 18.1934 29.7084 17.3491 29.7084C16.5048 29.7084 15.8203 30.3928 15.8203 31.2371C15.8203 32.0814 16.5048 32.7659 17.3491 32.7659Z" fill="#FF0000"/>
<path d="M23.1313 32.7659C23.9756 32.7659 24.66 32.0814 24.66 31.2371C24.66 30.3928 23.9756 29.7084 23.1313 29.7084C22.287 29.7084 21.6025 30.3928 21.6025 31.2371C21.6025 32.0814 22.287 32.7659 23.1313 32.7659Z" fill="#090909"/>
<path d="M28.8188 32.7659C29.6631 32.7659 30.3475 32.0814 30.3475 31.2371C30.3475 30.3928 29.6631 29.7084 28.8188 29.7084C27.9745 29.7084 27.29 30.3928 27.29 31.2371C27.29 32.0814 27.9745 32.7659 28.8188 32.7659Z" fill="#090909"/>
<path d="M48.5417 60.9726C46.7532 60.9726 45.0378 60.2627 43.7724 58.9988C42.507 57.7349 41.7951 56.0203 41.793 54.2318V51.3882C41.9101 49.6823 42.6703 48.0845 43.9201 46.9176C45.1698 45.7507 46.816 45.1016 48.5258 45.1016C50.2357 45.1016 51.8818 45.7507 53.1316 46.9176C54.3814 48.0845 55.1416 49.6823 55.2587 51.3882V54.2318C55.2566 56.0148 54.549 57.7246 53.2905 58.9876C52.0319 60.2506 50.3247 60.9642 48.5417 60.9726ZM48.5417 46.2237C47.1726 46.2258 45.8602 46.7706 44.8921 47.7386C43.9241 48.7067 43.3793 50.0191 43.3772 51.3882V54.2318C43.4789 55.5276 44.0655 56.7373 45.0198 57.6197C45.9741 58.5021 47.2261 58.9921 48.5258 58.9921C49.8256 58.9921 51.0775 58.5021 52.0319 57.6197C52.9862 56.7373 53.5728 55.5276 53.6745 54.2318V51.3882C53.6724 50.0246 53.132 48.7169 52.1708 47.7498C51.2095 46.7826 49.9052 46.2341 48.5417 46.2237Z" fill="#090909"/>
<path d="M47.9554 76.474H46.8703C45.1208 76.5344 43.3711 76.364 41.6662 75.9671C39.9604 75.446 38.3539 74.6427 36.9135 73.5908C36.6163 73.3745 36.3746 73.0909 36.208 72.7633C36.0414 72.4356 35.9547 72.0732 35.9551 71.7056V67.7451C35.9528 67.1973 36.0861 66.6574 36.3432 66.1737C36.6003 65.6899 36.9731 65.2774 37.4284 64.9727L43.7652 60.735V58.6359H45.3494V61.6221L38.3314 66.3747C38.0882 66.5322 37.8882 66.7481 37.7499 67.0027C37.6115 67.2573 37.5391 67.5425 37.5393 67.8322V71.7927C37.5383 71.9106 37.5659 72.0269 37.6197 72.1317C37.6735 72.2366 37.7519 72.3268 37.8482 72.3947C39.1413 73.3317 40.5815 74.0465 42.1097 74.5096C43.6688 74.8577 45.266 75.0042 46.8623 74.9453H47.9396H49.3971H50.4585C52.0548 75.0044 53.6521 74.858 55.2111 74.5096C56.7416 74.0461 58.1844 73.3314 59.4805 72.3947C59.5768 72.3268 59.6553 72.2366 59.7091 72.1317C59.7629 72.0269 59.7905 71.9106 59.7894 71.7927V67.8322C59.7875 67.5429 59.7142 67.2585 59.576 67.0042C59.4379 66.75 59.2391 66.5338 58.9973 66.3747L51.9793 61.6221V58.6359H53.5635V60.7825L59.9003 65.0203C60.3566 65.3245 60.7306 65.7368 60.989 66.2205C61.2474 66.7041 61.3823 67.2442 61.3816 67.7926V71.7531C61.3782 72.12 61.2899 72.4811 61.1236 72.8082C60.9573 73.1353 60.7176 73.4194 60.4231 73.6383C58.981 74.6875 57.3751 75.4905 55.6705 76.0146C53.9657 76.4119 52.2159 76.5823 50.4664 76.5216H49.405L47.9554 76.474Z" fill="#090909"/>
</svg>
