<svg width="22" height="22" viewBox="0 0 22 22" fill="none" xmlns="http://www.w3.org/2000/svg">
<path d="M20.3438 0.84375H1.65625C1.20684 0.84375 0.84375 1.20684 0.84375 1.65625V20.3438C0.84375 20.7932 1.20684 21.1562 1.65625 21.1562H20.3438C20.7932 21.1562 21.1562 20.7932 21.1562 20.3438V1.65625C21.1562 1.20684 20.7932 0.84375 20.3438 0.84375ZM6.86895 18.1525H3.85508V8.4584H6.86895V18.1525ZM5.36328 7.13301C5.01778 7.13301 4.68004 7.03056 4.39277 6.83861C4.1055 6.64666 3.8816 6.37383 3.74938 6.05463C3.61716 5.73543 3.58257 5.38419 3.64997 5.04533C3.71738 4.70647 3.88375 4.39521 4.12805 4.15091C4.37236 3.9066 4.68362 3.74023 5.02248 3.67282C5.36134 3.60542 5.71258 3.64001 6.03178 3.77223C6.35098 3.90445 6.62381 4.12835 6.81575 4.41562C7.0077 4.70289 7.11016 5.04063 7.11016 5.38613C7.10762 6.35098 6.32559 7.13301 5.36328 7.13301ZM18.1525 18.1525H15.1412V13.4375C15.1412 12.3127 15.1209 10.868 13.5746 10.868C12.008 10.868 11.7668 12.0918 11.7668 13.3562V18.1525H8.75801V8.4584H11.6475V9.78379H11.6881C12.0893 9.02207 13.0719 8.21719 14.5395 8.21719C17.5914 8.21719 18.1525 10.2256 18.1525 12.8357V18.1525Z" fill="#28587B"/>
</svg>
