<svg width="24" height="22" viewBox="0 0 24 22" fill="none" xmlns="http://www.w3.org/2000/svg">
<path d="M10.3232 0.999999C11.0684 -0.333334 12.9316 -0.333333 13.6768 1L23.7377 19C24.483 20.3333 23.5514 22 22.0609 22H1.93911C0.448604 22 -0.482958 20.3333 0.262293 19L10.3232 0.999999Z" fill="#FFC700"/>
<path d="M12.4774 14.2969H11.6024C11.5737 14.2969 11.5498 14.2921 11.5307 14.2825C11.5212 14.273 11.5068 14.2634 11.4877 14.2539C11.4781 14.2347 11.4638 14.2013 11.4447 14.1534C11.4255 14.0961 11.4064 13.967 11.3873 13.7662C11.3682 13.5558 11.3347 13.2211 11.2869 12.7621C11.2486 12.3031 11.196 11.6624 11.1291 10.8401V9.57781C11.1291 9.31006 11.1291 9.04709 11.1291 8.7889C11.1291 8.53072 11.1291 8.26775 11.1291 8C11.3395 8 11.569 8 11.8176 8C12.0662 8 12.3387 8 12.6352 8C12.6639 8 12.6878 8.00956 12.7069 8.02869C12.7356 8.03825 12.7547 8.05259 12.7643 8.07172C12.7834 8.09084 12.793 8.11953 12.793 8.15778V10.8401C12.7547 11.2226 12.7165 11.6098 12.6782 12.0019C12.6495 12.3844 12.6161 12.7669 12.5778 13.1494C12.5491 13.5319 12.5157 13.9144 12.4774 14.2969ZM12.9221 18.141C12.7117 18.141 12.5109 18.141 12.3196 18.141C12.1379 18.141 11.9515 18.141 11.7602 18.141C11.569 18.141 11.3682 18.141 11.1578 18.141C11.1291 18.141 11.1004 18.1314 11.0717 18.1123C11.0526 18.1027 11.0335 18.0836 11.0143 18.0549C11.0048 18.0358 11 18.0119 11 17.9832V16.1759C11.2104 16.1759 11.4112 16.1759 11.6024 16.1759C11.7937 16.1759 11.9802 16.1759 12.1618 16.1759C12.3531 16.1759 12.5539 16.1759 12.7643 16.1759C12.8025 16.1759 12.8312 16.1855 12.8503 16.2046C12.8695 16.2142 12.8838 16.2285 12.8934 16.2476C12.9125 16.2668 12.9221 16.2954 12.9221 16.3337V18.141Z" fill="black"/>
</svg>
