<svg width="97" height="97" viewBox="0 0 97 97" fill="none" xmlns="http://www.w3.org/2000/svg">
<path d="M49.0175 23.7359C47.7642 23.7359 46.539 23.3643 45.4969 22.668C44.4548 21.9717 43.6426 20.982 43.163 19.8241C42.6834 18.6662 42.5579 17.3921 42.8024 16.1629C43.0469 14.9337 43.6505 13.8045 44.5367 12.9183C45.4229 12.0321 46.552 11.4286 47.7812 11.1841C49.0104 10.9396 50.2846 11.0651 51.4425 11.5447C52.6004 12.0243 53.59 12.8365 54.2863 13.8786C54.9826 14.9207 55.3543 16.1458 55.3543 17.3991C55.3439 19.0766 54.6729 20.6823 53.4868 21.8685C52.3007 23.0546 50.6949 23.7256 49.0175 23.7359ZM49.0175 12.5752C48.0775 12.5752 47.1586 12.854 46.3771 13.3762C45.5955 13.8984 44.9864 14.6407 44.6266 15.5091C44.2669 16.3775 44.1728 17.3331 44.3562 18.255C44.5396 19.1769 44.9922 20.0238 45.6569 20.6884C46.3215 21.3531 47.1684 21.8057 48.0903 21.9891C49.0122 22.1725 49.9678 22.0784 50.8362 21.7187C51.7046 21.359 52.4469 20.7498 52.9691 19.9682C53.4914 19.1867 53.7701 18.2678 53.7701 17.3278C53.7701 16.7037 53.6472 16.0857 53.4083 15.5091C53.1695 14.9325 52.8194 14.4086 52.3781 13.9672C51.9368 13.5259 51.4128 13.1758 50.8362 12.937C50.2596 12.6982 49.6416 12.5752 49.0175 12.5752Z" fill="#090909"/>
<path d="M55.9321 75.2701H54.3479L54.9183 54.1685C54.9351 53.7153 55.045 53.2705 55.2413 52.8616C55.4375 52.4528 55.7158 52.0888 56.0589 51.7922L57.7302 50.3426C58.2525 49.8888 58.6546 49.3129 58.9005 48.6661C59.1465 48.0194 59.2288 47.3218 59.1402 46.6356L57.2787 31.9659C57.1729 31.1433 56.7712 30.3874 56.1488 29.8394C55.5264 29.2913 54.7258 28.9885 53.8964 28.9876H44.0585C43.2292 28.9885 42.4286 29.2913 41.8062 29.8394C41.1837 30.3874 40.7821 31.1433 40.6763 31.9659L38.8148 46.5643C38.7261 47.2506 38.8085 47.9481 39.0544 48.5948C39.3004 49.2416 39.7025 49.8175 40.2248 50.2713L41.8961 51.7209C42.2392 52.0175 42.5175 52.3815 42.7137 52.7903C42.91 53.1992 43.0199 53.644 43.0367 54.0972L43.607 75.1988H42.0228L41.4525 54.1764C41.4454 53.9369 41.389 53.7015 41.2868 53.4848C41.1845 53.2681 41.0387 53.0748 40.8585 52.917L39.1871 51.4674C38.4664 50.8444 37.9118 50.0521 37.5731 49.1617C37.2343 48.2714 37.1221 47.3108 37.2465 46.3663L39.1079 31.7599C39.2637 30.5566 39.8519 29.451 40.7628 28.6494C41.6737 27.8477 42.8451 27.4049 44.0585 27.4034H53.8964C55.1098 27.4049 56.2813 27.8477 57.1922 28.6494C58.1031 29.451 58.6913 30.5566 58.8471 31.7599L60.7164 46.3663C60.8415 47.3087 60.732 48.2673 60.3976 49.1572C60.0632 50.0471 59.5143 50.8406 58.7995 51.4674L57.1282 52.917C56.9479 53.0748 56.8021 53.2681 56.6999 53.4848C56.5977 53.7015 56.5413 53.9369 56.5341 54.1764L55.9321 75.2701Z" fill="#090909"/>
<path d="M42.8149 77.2028C43.8954 77.2028 44.7714 76.3268 44.7714 75.2463C44.7714 74.1657 43.8954 73.2898 42.8149 73.2898C41.7344 73.2898 40.8584 74.1657 40.8584 75.2463C40.8584 76.3268 41.7344 77.2028 42.8149 77.2028Z" fill="#090909"/>
<path d="M35.5913 67.5471C36.6718 67.5471 37.5477 66.6711 37.5477 65.5906C37.5477 64.51 36.6718 63.6341 35.5913 63.6341C34.5107 63.6341 33.6348 64.51 33.6348 65.5906C33.6348 66.6711 34.5107 67.5471 35.5913 67.5471Z" fill="#090909"/>
<path d="M63.267 77.2028C64.3476 77.2028 65.2235 76.3268 65.2235 75.2463C65.2235 74.1657 64.3476 73.2898 63.267 73.2898C62.1865 73.2898 61.3105 74.1657 61.3105 75.2463C61.3105 76.3268 62.1865 77.2028 63.267 77.2028Z" fill="#090909"/>
<path d="M55.0844 77.2028C56.165 77.2028 57.0409 76.3268 57.0409 75.2463C57.0409 74.1657 56.165 73.2898 55.0844 73.2898C54.0039 73.2898 53.1279 74.1657 53.1279 75.2463C53.1279 76.3268 54.0039 77.2028 55.0844 77.2028Z" fill="#090909"/>
<path d="M62.4832 66.2005C62.3784 66.2001 62.2747 66.1789 62.1782 66.1381C62.0816 66.0973 61.9941 66.0377 61.9208 65.9629C61.7732 65.8145 61.6904 65.6137 61.6904 65.4045C61.6904 65.1952 61.7732 64.9944 61.9208 64.846L71.8458 54.921C71.9973 54.7912 72.1922 54.7234 72.3916 54.7311C72.591 54.7388 72.7801 54.8215 72.9211 54.9625C73.0622 55.1036 73.1448 55.2927 73.1525 55.4921C73.1602 55.6914 73.0924 55.8863 72.9627 56.0379L63.0376 65.9629C62.8914 66.1121 62.6921 66.1975 62.4832 66.2005Z" fill="#090909"/>
<path d="M73.058 62.6994C72.8479 62.6994 72.6464 62.616 72.4978 62.4674C72.3493 62.3189 72.2658 62.1174 72.2658 61.9073V55.9666H66.4122C66.2021 55.9666 66.0007 55.8831 65.8521 55.7346C65.7036 55.586 65.6201 55.3845 65.6201 55.1745C65.6201 54.9644 65.7036 54.7629 65.8521 54.6144C66.0007 54.4658 66.2021 54.3824 66.4122 54.3824H72.2658C72.4712 54.3749 72.676 54.4089 72.8679 54.4824C73.0598 54.5559 73.235 54.6673 73.3829 54.81C73.5307 54.9527 73.6483 55.1238 73.7286 55.313C73.8089 55.5022 73.8502 55.7056 73.8501 55.9111V61.9073C73.8501 62.1174 73.7666 62.3189 73.6181 62.4674C73.4695 62.616 73.268 62.6994 73.058 62.6994Z" fill="#090909"/>
<path d="M62.4824 68.1174C63.9786 68.1174 65.1914 66.9045 65.1914 65.4084C65.1914 63.9123 63.9786 62.6994 62.4824 62.6994C60.9863 62.6994 59.7734 63.9123 59.7734 65.4084C59.7734 66.9045 60.9863 68.1174 62.4824 68.1174Z" fill="#FF0000"/>
<path d="M35.3135 66.2005C35.1046 66.1975 34.9053 66.1121 34.7591 65.9629L24.834 56.0379C24.7043 55.8863 24.6364 55.6914 24.6441 55.4921C24.6518 55.2927 24.7345 55.1036 24.8756 54.9625C25.0166 54.8215 25.2057 54.7388 25.4051 54.7311C25.6044 54.7234 25.7994 54.7912 25.9509 54.921L35.8759 64.846C36.0234 64.9944 36.1063 65.1952 36.1063 65.4045C36.1063 65.6137 36.0234 65.8145 35.8759 65.9629C35.8026 66.0377 35.7151 66.0973 35.6185 66.1381C35.522 66.1789 35.4183 66.2001 35.3135 66.2005Z" fill="#090909"/>
<path d="M24.7394 62.6994C24.5293 62.6994 24.3278 62.616 24.1793 62.4674C24.0307 62.3189 23.9473 62.1174 23.9473 61.9073V55.9111C23.9471 55.7056 23.9884 55.5022 24.0687 55.313C24.149 55.1238 24.2666 54.9527 24.4145 54.81C24.5623 54.6673 24.7375 54.5559 24.9294 54.4824C25.1213 54.4089 25.3261 54.3749 25.5315 54.3824H31.4168C31.6269 54.3824 31.8283 54.4658 31.9769 54.6144C32.1254 54.7629 32.2089 54.9644 32.2089 55.1745C32.2089 55.3845 32.1254 55.586 31.9769 55.7346C31.8283 55.8831 31.6269 55.9666 31.4168 55.9666H25.5315V61.9073C25.5315 62.1174 25.448 62.3189 25.2995 62.4674C25.1509 62.616 24.9494 62.6994 24.7394 62.6994Z" fill="#090909"/>
<path d="M25.3894 84.9337C25.2343 84.9315 25.0834 84.8839 24.9551 84.7967C24.8269 84.7095 24.7271 84.5866 24.6681 84.4433C24.609 84.2999 24.5934 84.1423 24.623 83.9902C24.6527 83.838 24.7264 83.6978 24.8349 83.5871L34.7599 73.6225C34.9083 73.475 35.1091 73.3922 35.3184 73.3922C35.5276 73.3922 35.7284 73.475 35.8768 73.6225C35.951 73.6961 36.01 73.7837 36.0502 73.8803C36.0904 73.9768 36.1111 74.0803 36.1111 74.1849C36.1111 74.2894 36.0904 74.393 36.0502 74.4895C36.01 74.586 35.951 74.6736 35.8768 74.7473L25.9518 84.6723C25.8804 84.7515 25.7938 84.8154 25.6972 84.8603C25.6006 84.9052 25.4959 84.9302 25.3894 84.9337Z" fill="#090909"/>
<path d="M31.3851 85.2109H25.5315C25.3261 85.2184 25.1213 85.1843 24.9294 85.1109C24.7375 85.0374 24.5623 84.926 24.4145 84.7832C24.2666 84.6405 24.149 84.4695 24.0687 84.2803C23.9884 84.0911 23.9471 83.8877 23.9473 83.6822V77.686C23.9473 77.4759 24.0307 77.2744 24.1793 77.1259C24.3278 76.9773 24.5293 76.8939 24.7394 76.8939C24.9494 76.8939 25.1509 76.9773 25.2995 77.1259C25.448 77.2744 25.5315 77.4759 25.5315 77.686V83.6267H31.3534C31.5635 83.6267 31.765 83.7102 31.9135 83.8587C32.0621 84.0073 32.1455 84.2087 32.1455 84.4188C32.1455 84.6289 32.0621 84.8304 31.9135 84.9789C31.765 85.1275 31.5635 85.2109 31.3534 85.2109H31.3851Z" fill="#090909"/>
<path d="M72.4084 84.9337C72.3041 84.9343 72.2008 84.9143 72.1043 84.8749C72.0078 84.8355 71.92 84.7774 71.846 84.704L62.3407 75.1987C62.2665 75.1251 62.2076 75.0375 62.1674 74.941C62.1271 74.8445 62.1064 74.7409 62.1064 74.6364C62.1064 74.5318 62.1271 74.4283 62.1674 74.3317C62.2076 74.2352 62.2665 74.1476 62.3407 74.074C62.4892 73.9264 62.6899 73.8436 62.8992 73.8436C63.1084 73.8436 63.3092 73.9264 63.4576 74.074L72.9628 83.5792C73.0714 83.6899 73.1451 83.83 73.1747 83.9822C73.2044 84.1344 73.1887 84.292 73.1297 84.4353C73.0706 84.5787 72.9708 84.7016 72.8426 84.7888C72.7144 84.8759 72.5634 84.9236 72.4084 84.9258V84.9337Z" fill="#090909"/>
<path d="M72.2658 85.2109H66.4122C66.2021 85.2109 66.0007 85.1275 65.8521 84.9789C65.7036 84.8304 65.6201 84.6289 65.6201 84.4188C65.6201 84.2087 65.7036 84.0073 65.8521 83.8587C66.0007 83.7102 66.2021 83.6267 66.4122 83.6267H72.2658V77.686C72.2658 77.4759 72.3493 77.2744 72.4978 77.1259C72.6464 76.9773 72.8479 76.8939 73.058 76.8939C73.268 76.8939 73.4695 76.9773 73.6181 77.1259C73.7666 77.2744 73.8501 77.4759 73.8501 77.686V83.6822C73.8502 83.8877 73.8089 84.0911 73.7286 84.2803C73.6483 84.4695 73.5307 84.6405 73.3829 84.7832C73.235 84.926 73.0598 85.0374 72.8679 85.1109C72.676 85.1843 72.4712 85.2184 72.2658 85.2109Z" fill="#090909"/>
<path d="M35.2822 77.3216C36.7784 77.3216 37.9912 76.1087 37.9912 74.6126C37.9912 73.1165 36.7784 71.9036 35.2822 71.9036C33.7861 71.9036 32.5732 73.1165 32.5732 74.6126C32.5732 76.1087 33.7861 77.3216 35.2822 77.3216Z" fill="#FF0000"/>
</svg>
