<svg width="34" height="34" viewBox="0 0 34 34" fill="none" xmlns="http://www.w3.org/2000/svg">
<rect x="0.5" y="0.5" width="33" height="33" rx="3.5" fill="#FAFAFA"/>
<rect x="0.5" y="0.5" width="33" height="33" rx="3.5" stroke="#E8E8E8"/>
<path fill-rule="evenodd" clip-rule="evenodd" d="M13 8C11.8954 8 11 8.89543 11 10V25C11 26.1046 11.8954 27 13 27C14.1046 27 15 26.1046 15 25V10C15 8.89543 14.1046 8 13 8ZM21 8C19.8954 8 19 8.89543 19 10V25C19 26.1046 19.8954 27 21 27C22.1046 27 23 26.1046 23 25V10C23 8.89543 22.1046 8 21 8Z" fill="#C4C4C4"/>
</svg>
