<svg width="13" height="13" viewBox="0 0 13 13" fill="none" xmlns="http://www.w3.org/2000/svg">
<circle cx="6.5" cy="6.5" r="6.5" fill="#CBCBCB"/>
<path d="M6.02148 8.2373C6.01823 8.12012 6.0166 8.03223 6.0166 7.97363C6.0166 7.62858 6.06543 7.33073 6.16309 7.08008C6.2347 6.89128 6.35026 6.70085 6.50977 6.50879C6.62695 6.36882 6.83691 6.16536 7.13965 5.89844C7.44564 5.62826 7.64421 5.41341 7.73535 5.25391C7.8265 5.0944 7.87207 4.92025 7.87207 4.73145C7.87207 4.38965 7.73861 4.09017 7.47168 3.83301C7.20475 3.57259 6.8776 3.44238 6.49023 3.44238C6.11589 3.44238 5.80339 3.55957 5.55273 3.79395C5.30208 4.02832 5.1377 4.39453 5.05957 4.89258L4.15625 4.78516C4.23763 4.11784 4.47852 3.60677 4.87891 3.25195C5.28255 2.89714 5.81478 2.71973 6.47559 2.71973C7.17546 2.71973 7.73372 2.91016 8.15039 3.29102C8.56706 3.67188 8.77539 4.13249 8.77539 4.67285C8.77539 4.98535 8.70215 5.27344 8.55566 5.53711C8.40918 5.80078 8.12272 6.12142 7.69629 6.49902C7.40983 6.75293 7.22266 6.9401 7.13477 7.06055C7.04688 7.18099 6.98177 7.31934 6.93945 7.47559C6.89714 7.63184 6.87272 7.88574 6.86621 8.2373H6.02148ZM5.96777 10V8.99902H6.96875V10H5.96777Z" fill="white"/>
</svg>
