<svg width="96" height="97" viewBox="0 0 96 97" fill="none" xmlns="http://www.w3.org/2000/svg">
<path d="M44.0605 81.6306C36.8148 81.6306 29.7319 79.482 23.7073 75.4565C17.6828 71.4311 12.9872 65.7095 10.2144 59.0154C7.44165 52.3213 6.71617 44.9553 8.12972 37.8488C9.54328 30.7424 13.0324 24.2147 18.1558 19.0913C23.2793 13.9678 29.807 10.4787 36.9134 9.06515C44.0198 7.65159 51.3859 8.37708 58.08 11.1499C64.7741 13.9227 70.4956 18.6182 74.5211 24.6428C78.5466 30.6673 80.6952 37.7503 80.6952 44.9959C80.6826 54.7082 76.8188 64.019 69.9512 70.8867C63.0836 77.7543 53.7727 81.618 44.0605 81.6306ZM44.0605 9.94543C37.1282 9.94543 30.3515 12.0011 24.5875 15.8525C18.8235 19.7039 14.3309 25.178 11.6781 31.5827C9.02517 37.9873 8.33105 45.0348 9.68349 51.8339C11.0359 58.633 14.3742 64.8785 19.276 69.7803C24.1779 74.6823 30.4233 78.0205 37.2225 79.3729C44.0216 80.7253 51.0691 80.0312 57.4737 77.3783C63.8784 74.7254 69.3525 70.2329 73.2039 64.4689C77.0553 58.7049 79.111 51.9282 79.111 44.9959C79.1005 35.7032 75.4043 26.794 68.8333 20.2231C62.2624 13.6521 53.3532 9.95591 44.0605 9.94543Z" fill="black"/>
<path d="M16.5743 45.1702C16.3642 45.1702 16.1628 45.0867 16.0142 44.9382C15.8657 44.7896 15.7822 44.5882 15.7822 44.3781C16.1228 30.6668 27.6637 15.9813 44.1949 15.9813C44.405 15.9813 44.6065 16.0647 44.755 16.2133C44.9036 16.3618 44.987 16.5633 44.987 16.7734C44.987 16.9834 44.9036 17.1849 44.755 17.3335C44.6065 17.482 44.405 17.5655 44.1949 17.5655C28.5509 17.5655 17.6912 31.451 17.3664 44.4177C17.3563 44.6208 17.2683 44.8123 17.1209 44.9524C16.9734 45.0925 16.7777 45.1704 16.5743 45.1702Z" fill="black"/>
<path d="M44.1954 72.7986C43.9853 72.7986 43.7839 72.7152 43.6353 72.5666C43.4868 72.4181 43.4033 72.2166 43.4033 72.0065C43.4033 71.7965 43.4868 71.595 43.6353 71.4464C43.7839 71.2979 43.9853 71.2144 44.1954 71.2144C51.3103 71.2061 58.1314 68.376 63.1624 63.345C68.1933 58.314 71.0234 51.4929 71.0318 44.378C71.0318 44.168 71.1153 43.9665 71.2638 43.8179C71.4124 43.6694 71.6138 43.5859 71.8239 43.5859C72.034 43.5859 72.2355 43.6694 72.384 43.8179C72.5326 43.9665 72.616 44.168 72.616 44.378C72.6097 51.9137 69.6134 59.139 64.2849 64.4675C58.9563 69.796 51.7311 72.7923 44.1954 72.7986Z" fill="black"/>
<path d="M43.736 44.9722C42.0523 44.9556 40.4326 44.3247 39.1814 43.1979C38.044 42.1227 37.1459 40.8201 36.5454 39.3749C35.9449 37.9296 35.6555 36.374 35.6961 34.8095C35.6961 29.2014 39.3002 24.6389 43.736 24.6389C48.1717 24.6389 51.7758 29.2014 51.7758 34.8095C51.7758 40.4176 48.1717 44.9722 43.736 44.9722ZM43.736 25.8271C39.9576 25.8271 36.8843 29.8589 36.8843 34.8095C36.8421 36.2038 37.0948 37.5913 37.6257 38.8812C38.1567 40.1711 38.954 41.3343 39.9656 42.2949C40.998 43.2356 42.3393 43.7654 43.736 43.784C47.5143 43.784 50.5876 39.7601 50.5876 34.8095C50.5876 29.8589 47.5143 25.8271 43.736 25.8271Z" fill="black"/>
<path d="M42.8728 61.4795C41.0906 61.4795 39.3796 61.4795 37.9618 61.4003C36.3114 61.3483 34.6766 61.063 33.1062 60.5528C32.0305 60.252 31.0035 59.7985 30.0566 59.2062C28.1397 57.7883 29.0348 50.699 29.0427 50.6278C29.0982 50.2159 29.209 49.4475 34.6904 45.9306C36.4172 44.8216 38.1836 43.7444 39.9341 42.7622C39.9973 42.6932 40.0758 42.6402 40.1633 42.6073C40.2509 42.5744 40.3449 42.5627 40.4378 42.573C40.5308 42.5834 40.62 42.6155 40.6981 42.6668C40.7763 42.7181 40.8412 42.7871 40.8877 42.8683C40.9342 42.9494 40.9608 43.0404 40.9655 43.1338C40.9702 43.2272 40.9527 43.3203 40.9146 43.4057C40.8765 43.4911 40.8188 43.5662 40.7461 43.6251C40.6734 43.6839 40.5879 43.7248 40.4965 43.7444C38.7618 44.7504 37.0112 45.8197 35.3003 46.9128C30.7061 49.8594 30.2309 50.6753 30.1833 50.8099C29.8744 52.9724 29.8348 57.5745 30.7299 58.2319C31.5736 58.7548 32.4888 59.1524 33.4468 59.4122C34.9094 59.8887 36.4322 60.1554 37.9697 60.2043C46.564 60.4656 52.6869 60.0538 54.3424 59.1032C55.2242 58.6758 56.0276 58.1028 56.7187 57.4081C56.715 57.366 56.715 57.3236 56.7187 57.2814C56.9088 54.2952 56.988 50.9446 56.8059 50.406C56.4177 49.8911 51.475 46.588 46.9442 43.7365C46.8189 43.6523 46.7303 43.5236 46.6964 43.3765C46.6626 43.2293 46.6861 43.0748 46.762 42.9444C46.8449 42.8175 46.9737 42.7277 47.1214 42.6937C47.269 42.6597 47.4241 42.6843 47.5541 42.7622C52.0691 45.6058 57.5267 49.1703 57.8514 49.9624C58.1762 50.7545 57.994 55.1982 57.8514 57.226C57.8714 57.3173 57.8714 57.4119 57.8514 57.5032C57.8514 57.9785 57.4475 58.6676 54.8414 60.1647C53.0751 61.2181 47.6729 61.4795 42.8728 61.4795Z" fill="black"/>
<path d="M71.4753 46.0653C72.4071 46.0653 73.1624 45.3099 73.1624 44.3781C73.1624 43.4463 72.4071 42.6909 71.4753 42.6909C70.5435 42.6909 69.7881 43.4463 69.7881 44.3781C69.7881 45.3099 70.5435 46.0653 71.4753 46.0653Z" fill="#090909"/>
<path d="M16.5749 46.6831C17.5067 46.6831 18.262 45.9277 18.262 44.9959C18.262 44.0641 17.5067 43.3087 16.5749 43.3087C15.6431 43.3087 14.8877 44.0641 14.8877 44.9959C14.8877 45.9277 15.6431 46.6831 16.5749 46.6831Z" fill="#090909"/>
<path d="M44.1948 19.7833C45.8659 19.7833 47.2206 18.4286 47.2206 16.7575C47.2206 15.0864 45.8659 13.7317 44.1948 13.7317C42.5237 13.7317 41.1689 15.0864 41.1689 16.7575C41.1689 18.4286 42.5237 19.7833 44.1948 19.7833Z" fill="#FF0000"/>
<path d="M43.0864 75.0324C44.7575 75.0324 46.1122 73.6777 46.1122 72.0065C46.1122 70.3354 44.7575 68.9807 43.0864 68.9807C41.4153 68.9807 40.0605 70.3354 40.0605 72.0065C40.0605 73.6777 41.4153 75.0324 43.0864 75.0324Z" fill="#FF0000"/>
<path d="M87.7214 84.2604C88.6532 84.2604 89.4085 83.505 89.4085 82.5732C89.4085 81.6414 88.6532 80.886 87.7214 80.886C86.7896 80.886 86.0342 81.6414 86.0342 82.5732C86.0342 83.505 86.7896 84.2604 87.7214 84.2604Z" fill="#090909"/>
<path d="M84.4655 87.0485C85.3973 87.0485 86.1527 86.2932 86.1527 85.3614C86.1527 84.4296 85.3973 83.6742 84.4655 83.6742C83.5337 83.6742 82.7783 84.4296 82.7783 85.3614C82.7783 86.2932 83.5337 87.0485 84.4655 87.0485Z" fill="#090909"/>
<path d="M87.1192 83.0881L80.8853 75.8007L71.0316 75.0324L67.7998 71.2462L69.0038 70.2164L71.8078 73.5037L81.6616 74.272L88.3232 82.0584L87.1192 83.0881Z" fill="black"/>
<path d="M83.3011 84.6089L79.1109 79.7058L68.8611 78.9137L64.6709 74.0106L65.2729 73.4957L69.2572 78.1454L79.499 78.9454L83.9031 84.094L83.3011 84.6089Z" fill="black"/>
</svg>
