<svg width="16" height="16" viewBox="0 0 16 16" fill="none" xmlns="http://www.w3.org/2000/svg">
<path d="M15.102 14.1189L10.4645 9.48135C11.1841 8.55099 11.5734 7.41349 11.5734 6.21707C11.5734 4.78492 11.0145 3.44207 10.0038 2.42957C8.99305 1.41707 7.64662 0.859923 6.21627 0.859923C4.78591 0.859923 3.43948 1.41885 2.42877 2.42957C1.41627 3.44028 0.859123 4.78492 0.859123 6.21707C0.859123 7.64742 1.41805 8.99385 2.42877 10.0046C3.43948 11.0171 4.78412 11.5742 6.21627 11.5742C7.41269 11.5742 8.54841 11.1849 9.47877 10.4671L14.1163 15.1028C14.1299 15.1164 14.146 15.1272 14.1638 15.1345C14.1816 15.1419 14.2006 15.1457 14.2198 15.1457C14.2391 15.1457 14.2581 15.1419 14.2759 15.1345C14.2937 15.1272 14.3098 15.1164 14.3234 15.1028L15.102 14.326C15.1156 14.3124 15.1264 14.2963 15.1337 14.2785C15.1411 14.2607 15.1449 14.2417 15.1449 14.2224C15.1449 14.2032 15.1411 14.1841 15.1337 14.1664C15.1264 14.1486 15.1156 14.1324 15.102 14.1189ZM9.04484 9.04564C8.28769 9.80099 7.28412 10.2171 6.21627 10.2171C5.14841 10.2171 4.14484 9.80099 3.38769 9.04564C2.63234 8.2885 2.21627 7.28492 2.21627 6.21707C2.21627 5.14921 2.63234 4.14385 3.38769 3.38849C4.14484 2.63314 5.14841 2.21707 6.21627 2.21707C7.28412 2.21707 8.28948 2.63135 9.04484 3.38849C9.80019 4.14564 10.2163 5.14921 10.2163 6.21707C10.2163 7.28492 9.80019 8.29028 9.04484 9.04564Z" fill="black" fill-opacity="0.25"/>
</svg>
