<svg width="16" height="16" viewBox="0 0 16 16" fill="none" xmlns="http://www.w3.org/2000/svg">
<g clip-path="url(#clip0_66_2)">
<path d="M6.57512 2L6.27583 3.51406C5.77269 3.70055 5.31065 3.96196 4.9058 4.28867L3.42607 3.78711L2 6.21289L3.18521 7.22539C3.13965 7.50033 3.11606 7.75511 3.11606 8C3.11606 8.24526 3.14036 8.49958 3.18521 8.77461V8.77578L2 9.78828L3.42607 12.2129L4.90461 11.7125C5.30949 12.0394 5.77258 12.2993 6.27583 12.4859L6.57512 14H9.42488L9.72417 12.4859C10.2276 12.2993 10.6892 12.0383 11.0942 11.7113L12.5739 12.2129L13.9988 9.78828L12.8148 8.77461C12.8603 8.49967 12.8839 8.24489 12.8839 8C12.8839 7.75547 12.8602 7.50102 12.8148 7.22656V7.22539L14 6.21172L12.5739 3.78711L11.0954 4.2875C10.6905 3.96061 10.2274 3.70066 9.72417 3.51406L9.42488 2H6.57512ZM7.58148 3.2H8.41852L8.6558 4.4L9.29253 4.63672C9.67632 4.77888 10.0211 4.97405 10.3203 5.21563L10.8474 5.63984L12.0207 5.24375L12.4392 5.95508L11.502 6.75664L11.6093 7.41641V7.41758C11.6466 7.64254 11.663 7.83126 11.663 8C11.663 8.16874 11.6466 8.35743 11.6093 8.58242L11.5008 9.24219L12.438 10.0438L12.0195 10.7563L10.8474 10.359L10.3192 10.7844C10.0199 11.0259 9.67632 11.2211 9.29253 11.3633H9.29134L8.65461 11.6L8.41733 12.8H7.58148L7.3442 11.6L6.70747 11.3633C6.32368 11.2211 5.97886 11.0259 5.67965 10.7844L5.15262 10.3602L3.97933 10.7563L3.56081 10.0449L4.49921 9.24219L4.3907 8.58477V8.58359C4.3539 8.35765 4.33704 8.1684 4.33704 8C4.33704 7.83126 4.35337 7.64257 4.3907 7.41758L4.49921 6.75781L3.56081 5.95625L3.97933 5.24375L5.15262 5.64102L5.67965 5.21563C5.97886 4.97405 6.32368 4.77888 6.70747 4.63672L7.3442 4.4L7.58148 3.2ZM8 5.6C6.65904 5.6 5.55803 6.68209 5.55803 8C5.55803 9.31791 6.65904 10.4 8 10.4C9.34096 10.4 10.442 9.31791 10.442 8C10.442 6.68209 9.34096 5.6 8 5.6ZM8 6.8C8.67855 6.8 9.22099 7.33311 9.22099 8C9.22099 8.66689 8.67855 9.2 8 9.2C7.32145 9.2 6.77901 8.66689 6.77901 8C6.77901 7.33311 7.32145 6.8 8 6.8Z" fill="black" fill-opacity="0.45"/>
</g>
<defs>
<clipPath id="clip0_66_2">
<rect width="16" height="16" fill="white"/>
</clipPath>
</defs>
</svg>
