<svg width="122" height="40" viewBox="0 0 122 40" fill="none" xmlns="http://www.w3.org/2000/svg">
  <rect x="0.5" y="0.5" width="121" height="39" rx="7.5" stroke="white" stroke-opacity="0.85"/>
  <path d="M33.62 14H42.12V15.52H35.46V20.44H41.68V21.96H35.46V28H33.62V14ZM48.5561 28.2C47.5694 28.2 46.7094 27.9933 45.9761 27.58C45.2561 27.1533 44.6961 26.5467 44.2961 25.76C43.9094 24.9733 43.7161 24.0533 43.7161 23C43.7161 21.9467 43.9094 21.0267 44.2961 20.24C44.6961 19.4533 45.2561 18.8533 45.9761 18.44C46.7094 18.0133 47.5694 17.8 48.5561 17.8C50.0494 17.8 51.2294 18.2667 52.0961 19.2C52.9761 20.1333 53.4161 21.4 53.4161 23C53.4161 24.6 52.9761 25.8667 52.0961 26.8C51.2294 27.7333 50.0494 28.2 48.5561 28.2ZM48.5561 26.9C49.5428 26.9 50.3161 26.5533 50.8761 25.86C51.4361 25.1667 51.7161 24.2133 51.7161 23C51.7161 21.7867 51.4361 20.8333 50.8761 20.14C50.3161 19.4467 49.5428 19.1 48.5561 19.1C47.5828 19.1 46.8161 19.4467 46.2561 20.14C45.6961 20.8333 45.4161 21.7867 45.4161 23C45.4161 24.2133 45.6961 25.1667 46.2561 25.86C46.8161 26.5533 47.5828 26.9 48.5561 26.9ZM57.6889 28.2C56.2489 28.2 55.5289 27.3533 55.5289 25.66V13.16H57.2289V25.64C57.2289 26.1067 57.3022 26.44 57.4489 26.64C57.6089 26.8267 57.8756 26.92 58.2489 26.92C58.5422 26.92 58.8756 26.84 59.2489 26.68L59.5089 27.7C59.0022 28.0333 58.3956 28.2 57.6889 28.2ZM63.5092 28.2C62.0692 28.2 61.3492 27.3533 61.3492 25.66V13.16H63.0492V25.64C63.0492 26.1067 63.1226 26.44 63.2692 26.64C63.4292 26.8267 63.6959 26.92 64.0692 26.92C64.3626 26.92 64.6959 26.84 65.0692 26.68L65.3292 27.7C64.8226 28.0333 64.2159 28.2 63.5092 28.2ZM70.7241 28.2C69.7374 28.2 68.8774 27.9933 68.1441 27.58C67.4241 27.1533 66.8641 26.5467 66.4641 25.76C66.0774 24.9733 65.8841 24.0533 65.8841 23C65.8841 21.9467 66.0774 21.0267 66.4641 20.24C66.8641 19.4533 67.4241 18.8533 68.1441 18.44C68.8774 18.0133 69.7374 17.8 70.7241 17.8C72.2174 17.8 73.3974 18.2667 74.2641 19.2C75.1441 20.1333 75.5841 21.4 75.5841 23C75.5841 24.6 75.1441 25.8667 74.2641 26.8C73.3974 27.7333 72.2174 28.2 70.7241 28.2ZM70.7241 26.9C71.7107 26.9 72.4841 26.5533 73.0441 25.86C73.6041 25.1667 73.8841 24.2133 73.8841 23C73.8841 21.7867 73.6041 20.8333 73.0441 20.14C72.4841 19.4467 71.7107 19.1 70.7241 19.1C69.7507 19.1 68.9841 19.4467 68.4241 20.14C67.8641 20.8333 67.5841 21.7867 67.5841 23C67.5841 24.2133 67.8641 25.1667 68.4241 25.86C68.9841 26.5533 69.7507 26.9 70.7241 26.9ZM89.4369 18L86.9369 28H85.3969L82.9769 19.82L80.5569 28H79.0169L76.5169 18H78.2969L79.9169 25.68L82.1969 18H83.7569L86.0369 25.68L87.6569 18H89.4369Z" fill="white" fill-opacity="0.85"/>
</svg>
