<svg width="1142" height="694" viewBox="0 0 1142 694" fill="none" xmlns="http://www.w3.org/2000/svg">
  <g opacity="0.41">
    <mask id="mask0_861_415" style="mask-type:luminance" maskUnits="userSpaceOnUse" x="0" y="0" width="1142" height="694">
      <g opacity="0.41">
        <path d="M1141.51 0H0V693.06H1141.51V0Z" fill="white"/>
      </g>
    </mask>
    <g mask="url(#mask0_861_415)">
      <g style="mix-blend-mode:multiply">
        <path d="M336.504 843.884C359.117 808.703 383.607 775.047 409.798 743.158C421.44 728.98 433.758 714.871 449.192 706.429C488.644 684.852 535.821 705.8 572.987 732.011C607.217 756.153 638.88 784.89 667.089 817.416C695.044 849.65 720.126 886.069 753.995 910.089C787.861 934.11 834.349 942.993 867.076 917.051C886.547 901.616 898.272 876 902.708 849.684C907.144 823.368 904.967 796.203 901.169 769.761C896.821 739.487 890.442 707.904 898.946 678.766C907.751 648.603 933.217 625.498 961.302 622.194C1001.26 617.493 1036.39 648.766 1070.06 673.398C1112.84 704.693 1162.55 727.986 1213.5 724.693C1264.45 721.4 1315.94 686.361 1331.22 631.616" stroke="white" stroke-width="0.651413" stroke-miterlimit="10"/>
        <path d="M341.785 855.635C363.986 821.028 388.16 788.034 414.069 756.898C425.587 743.059 437.769 729.316 452.936 721.01C483.401 704.326 518.48 712.806 549.922 729.23C558.491 733.7 566.791 738.757 574.655 744.056C608.478 766.867 639.877 794.251 667.971 825.405C695.807 856.278 720.784 891.493 754.301 914.628C773.09 927.597 795.353 936.478 817.283 938.076C836.383 939.457 855.332 935.182 871.175 923.002C874.005 920.829 876.683 918.442 879.206 915.867C894.753 899.995 904.197 877.174 908.33 853.799C909.656 846.291 910.484 838.716 910.927 831.124C912.088 811.294 910.728 791.224 908.701 771.618C905.52 740.51 901.281 708.649 910.853 679.573C920.361 650.695 944.78 628.243 972.196 624.86C1011.2 620.046 1045.62 649.516 1078.55 672.418C1081.15 674.224 1083.77 675.998 1086.41 677.737C1126.38 704.027 1171.62 722.263 1217.57 718.08C1266.57 713.623 1315.7 678.767 1329.89 625.265" stroke="#F9F9F9" stroke-width="0.651413" stroke-miterlimit="10"/>
        <path d="M347.059 867.388C368.847 833.354 392.703 801.021 418.334 770.641C429.724 757.138 441.771 743.765 456.673 735.593C486.592 719.184 520.968 726.833 551.911 742.189C560.354 746.367 568.542 751.115 576.317 756.103C609.733 777.581 640.866 803.611 668.845 833.394C696.563 862.906 721.455 896.887 754.599 919.165C774.103 932.275 796.949 941.534 819.546 943.529C839.184 945.245 858.834 941.218 875.264 928.954C878.205 926.761 880.992 924.343 883.62 921.719C899.817 905.543 909.49 882.021 913.941 857.916C915.366 850.187 916.298 842.386 916.867 834.587C918.352 814.211 917.529 793.57 916.223 773.479C914.21 741.538 912.073 709.441 922.75 680.386C932.887 652.8 956.333 630.993 983.081 627.532C1021.14 622.604 1054.85 650.272 1087.04 671.442C1089.57 673.112 1092.13 674.748 1094.71 676.352C1133.74 700.577 1177.52 716.749 1221.64 711.47C1268.67 705.849 1315.45 671.176 1328.56 618.915" stroke="#F4F4F4" stroke-width="0.651413" stroke-miterlimit="10"/>
        <path d="M352.332 879.139C373.707 845.68 397.248 814.009 422.599 784.382C433.863 771.217 445.775 758.211 460.41 750.173C489.786 734.04 523.456 740.857 553.901 755.147C562.215 759.032 570.292 763.47 577.978 768.149C610.987 788.295 641.855 812.972 669.718 841.381C697.316 869.532 722.142 902.256 754.895 923.701C775.123 936.945 798.543 946.588 821.808 948.98C841.983 951.031 862.338 947.255 879.355 934.903C882.407 932.692 885.302 930.241 888.036 927.566C904.883 911.087 914.787 886.865 919.554 862.027C921.077 854.076 922.116 846.051 922.808 838.044C924.617 817.122 924.332 795.909 923.746 775.334C922.901 742.561 922.825 710.262 934.649 681.191C945.345 654.893 967.888 633.735 993.967 630.194C1031.08 625.153 1064.08 651.018 1095.52 670.458C1098 671.99 1100.5 673.491 1103.02 674.958C1141.11 697.118 1183.42 711.227 1225.7 704.852C1270.78 698.066 1315.21 663.575 1327.23 612.558" stroke="#EEEEEE" stroke-width="0.651413" stroke-miterlimit="10"/>
        <path d="M357.613 890.89C378.577 858.005 401.799 826.994 426.871 798.124C438.009 785.296 449.786 772.66 464.154 764.756C492.984 748.9 525.952 754.884 555.897 768.107C564.085 771.699 572.049 775.827 579.647 780.194C612.248 799.009 642.85 822.331 670.598 849.368C698.077 876.158 722.852 907.597 755.199 928.236C776.156 941.608 800.144 951.642 824.078 954.431C844.789 956.817 865.846 953.29 883.451 940.851C886.613 938.622 889.618 936.139 892.457 933.415C909.952 916.631 920.087 891.709 925.173 866.139C926.795 857.965 927.938 849.718 928.755 841.501C930.889 820.032 931.142 798.247 931.276 777.186C931.599 743.581 933.54 711.107 946.554 681.995C957.735 656.979 979.449 636.477 1004.86 632.857C1041.03 627.702 1073.32 651.765 1104.01 669.474C1106.43 670.87 1108.87 672.234 1111.33 673.565C1148.48 693.66 1189.33 705.705 1229.77 698.235C1272.89 690.285 1314.97 655.977 1325.9 606.203" stroke="#E9E9E9" stroke-width="0.651413" stroke-miterlimit="10"/>
        <path d="M362.887 902.643C383.437 870.33 406.344 839.983 431.135 811.867C442.148 799.375 453.789 787.108 467.89 779.339C496.177 763.759 528.439 768.911 557.886 781.066C565.948 784.365 573.8 788.183 581.307 792.242C613.503 809.723 643.839 831.694 671.47 857.357C698.83 882.787 723.569 912.918 755.497 932.774C777.19 946.264 801.74 956.698 826.34 959.884C847.59 962.605 869.348 959.327 887.541 946.802C890.813 944.556 893.927 942.039 896.872 939.266C915.016 922.177 925.382 896.557 930.786 870.254C932.505 861.86 933.755 853.387 934.695 844.962C937.153 822.946 937.905 800.588 938.798 779.045C940.226 744.603 944.201 711.979 958.451 682.805C970.049 659.057 991.001 639.223 1015.74 635.526C1050.96 630.258 1082.54 652.517 1112.5 668.496C1114.86 669.755 1117.24 670.983 1119.63 672.177C1155.84 690.207 1195.23 700.189 1233.84 691.623C1274.99 682.507 1314.72 648.384 1324.56 599.851" stroke="#E3E3E3" stroke-width="0.651413" stroke-miterlimit="10"/>
        <path d="M368.168 914.394C388.305 882.654 410.896 852.969 435.407 825.608C446.293 813.453 457.799 801.553 471.634 793.92C499.377 778.615 530.935 782.936 559.882 794.025C567.815 797.032 575.556 800.541 582.976 804.288C614.764 820.439 644.834 841.054 672.351 865.346C699.593 889.415 724.307 918.215 755.802 937.311C778.234 950.913 803.34 961.753 828.611 965.337C850.398 968.391 872.859 965.363 891.64 952.752C895.022 950.486 898.245 947.938 901.295 945.116C920.089 927.723 930.685 901.404 936.405 874.368C938.223 865.751 939.579 857.055 940.642 848.421C943.426 825.859 944.71 802.928 946.326 780.902C948.915 745.625 954.818 712.858 970.355 683.614C982.306 661.117 1002.56 641.969 1026.63 638.194C1060.91 632.811 1091.78 653.269 1120.99 667.518C1123.29 668.642 1125.61 669.734 1127.94 670.79C1163.21 686.756 1201.14 694.673 1237.91 685.012C1277.1 674.732 1314.48 640.792 1323.23 593.502" stroke="#DEDEDE" stroke-width="0.651413" stroke-miterlimit="10"/>
        <path d="M373.438 926.146C393.163 894.981 415.436 865.957 439.667 839.35C450.427 827.532 461.797 816.002 475.366 808.503C502.563 793.474 533.42 796.963 561.866 806.984C569.673 809.698 577.301 812.898 584.631 816.335C616.013 831.153 645.817 850.416 673.219 873.336C700.342 896.045 725.045 923.494 756.094 941.849C779.273 955.553 804.93 966.81 830.869 970.791C853.192 974.181 876.356 971.401 895.724 958.703C899.217 956.419 902.549 953.839 905.705 950.968C925.147 933.27 935.975 906.251 942.013 878.485C943.929 869.646 945.39 860.725 946.578 851.884C949.686 828.776 951.505 805.271 953.844 782.761C957.596 746.648 965.373 713.736 982.248 684.423C994.49 663.158 1014.11 644.716 1037.51 640.862C1070.84 635.367 1101 654.021 1129.47 666.539C1131.71 667.525 1133.97 668.481 1136.24 669.4C1170.57 683.301 1207.04 689.155 1241.97 678.398C1279.2 666.954 1314.23 633.197 1321.89 587.149" stroke="#D8D8D8" stroke-width="0.651413" stroke-miterlimit="10"/>
        <path d="M378.715 937.898C398.028 907.306 419.984 878.943 443.935 853.091C454.568 841.61 465.803 830.448 479.107 823.085C505.76 808.332 535.894 811.054 563.859 819.942C571.535 822.382 579.056 825.253 586.297 828.379C617.271 841.865 646.81 859.774 674.097 881.322C701.101 902.671 725.802 928.75 756.396 946.384C780.328 960.177 806.529 971.863 833.137 976.241C855.998 979.964 879.865 977.436 899.819 964.652C903.423 962.35 906.865 959.739 910.125 956.817C930.215 938.815 941.275 911.098 947.63 882.597C949.645 873.537 951.211 864.391 952.523 855.341C955.955 831.687 958.311 807.608 961.371 784.616C966.29 747.667 975.884 714.6 994.15 685.229C1006.63 665.169 1025.67 647.46 1048.4 643.526C1080.78 637.916 1110.23 654.768 1137.96 665.557C1140.14 666.407 1142.34 667.226 1144.55 668.009C1177.93 679.845 1212.94 683.635 1246.03 671.783C1281.31 659.175 1313.98 625.599 1320.56 580.794" stroke="#D2D2D2" stroke-width="0.651413" stroke-miterlimit="10"/>
        <path d="M383.996 949.649C402.896 919.631 424.536 891.93 448.207 866.834C458.715 855.689 469.815 844.897 482.851 837.666C508.958 823.19 538.391 825.085 565.855 832.9C573.403 835.049 580.813 837.609 587.965 840.425C618.531 852.58 647.805 869.135 674.976 889.309C701.86 909.296 726.567 933.989 756.699 950.919C781.39 964.793 808.129 976.915 835.405 981.693C858.803 985.751 883.372 983.472 903.913 970.6C907.628 968.279 911.179 965.637 914.545 962.666C935.284 944.36 946.575 915.943 953.247 886.71C955.361 877.427 957.032 868.057 958.469 858.799C962.225 834.597 965.118 809.946 968.899 786.472C974.985 748.687 986.339 715.442 1006.05 686.036C1018.71 667.152 1037.23 650.204 1059.3 646.191C1090.73 640.468 1119.47 655.517 1146.45 664.574C1148.58 665.287 1150.71 665.97 1152.86 666.616C1185.3 676.387 1218.85 678.114 1250.11 665.166C1283.42 651.394 1313.74 618.001 1319.23 574.439" stroke="#CDCDCD" stroke-width="0.651413" stroke-miterlimit="10"/>
        <path d="M389.266 961.401C407.754 931.956 429.076 904.917 452.467 880.576C462.849 869.769 473.813 859.344 486.583 852.249C512.146 838.047 540.875 839.115 567.839 845.861C575.261 847.718 582.558 849.967 589.621 852.473C619.781 863.296 648.789 878.496 675.845 897.299C702.611 915.926 727.333 939.214 756.992 955.458C782.446 969.4 809.719 981.972 837.664 987.147C861.598 991.539 886.87 989.51 908 976.552C911.825 974.212 915.486 971.537 918.956 968.517C940.346 949.905 951.866 920.79 958.856 890.825C961.066 881.322 962.845 871.727 964.404 862.26C968.485 837.512 971.916 812.289 976.416 788.33C983.669 749.71 996.726 716.253 1017.95 686.846C1030.74 669.109 1048.78 652.952 1070.17 648.861C1100.66 643.024 1128.69 656.271 1154.93 663.598C1157 664.175 1159.07 664.721 1161.16 665.231C1192.66 672.937 1224.74 672.598 1254.17 658.557C1285.52 643.621 1313.49 610.411 1317.89 568.091" stroke="#C7C7C7" stroke-width="0.651413" stroke-miterlimit="10"/>
        <path d="M394.547 973.152C412.622 944.281 433.629 917.904 456.739 894.317C466.994 883.846 477.823 873.789 490.327 866.83C515.345 852.905 543.372 853.142 569.836 858.819C577.132 860.383 584.316 862.323 591.29 864.518C621.042 874.008 649.785 887.857 676.725 905.287C703.372 922.553 728.115 944.421 757.296 959.995C783.522 973.991 811.319 987.027 839.933 992.6C864.406 997.327 890.38 995.546 912.096 982.503C916.032 980.146 919.802 977.438 923.378 974.367C945.416 955.451 957.168 925.636 964.475 894.94C966.784 885.215 968.667 875.396 970.352 865.72C974.757 840.426 978.728 814.628 983.946 790.186C992.37 750.732 1007.07 717.013 1029.85 687.652C1042.75 671.032 1060.34 655.695 1081.07 651.526C1110.61 645.576 1137.93 657.02 1163.42 662.617C1165.43 663.056 1167.45 663.467 1169.47 663.84C1200.03 669.482 1230.65 667.079 1258.24 651.941C1287.63 635.841 1313.25 602.815 1316.56 561.737" stroke="#C2C2C2" stroke-width="0.651413" stroke-miterlimit="10"/>
        <path d="M399.824 984.905C417.486 956.608 438.176 930.892 461.007 908.06C471.136 897.926 481.83 888.238 494.067 881.414C518.541 867.764 545.866 867.169 571.828 871.778C578.997 873.05 586.07 874.679 592.955 876.566C622.3 884.725 650.778 897.218 677.603 913.276C704.131 929.181 728.902 949.615 757.598 964.533C784.599 978.568 812.918 992.083 842.201 998.053C867.211 1003.11 893.887 1001.58 916.191 988.453C920.237 986.078 924.116 983.337 927.797 980.218C950.484 960.998 962.467 930.483 970.092 899.054C972.501 889.106 974.489 879.064 976.297 869.18C981.026 843.34 985.578 816.983 991.473 792.044C1001.14 751.776 1017.35 717.716 1041.75 688.462C1054.72 672.924 1071.9 658.442 1091.96 654.193C1120.55 648.13 1147.16 657.77 1171.91 661.636C1173.86 661.94 1175.82 662.213 1177.78 662.45C1207.39 666.027 1236.56 661.56 1262.3 645.328C1289.74 628.062 1313.01 595.22 1315.23 555.384" stroke="#BCBCBC" stroke-width="0.651413" stroke-miterlimit="10"/>
        <path d="M405.098 996.656C422.348 968.933 442.721 943.879 465.271 921.801C475.273 912.004 485.833 902.684 497.803 895.995C521.732 882.622 548.356 881.194 573.818 884.738C580.861 885.717 587.819 887.036 594.615 888.611C623.553 895.437 651.765 906.579 678.475 921.265C704.884 935.81 729.688 954.794 757.895 969.07C785.678 983.131 814.512 997.139 844.462 1003.51C870.009 1008.9 897.389 1007.62 920.279 994.403C924.436 992.008 928.424 989.237 932.211 986.068C955.547 966.544 967.761 935.329 975.703 903.168C978.209 893 980.303 882.731 982.236 872.64C987.29 846.252 992.38 819.324 998.995 793.901C1009.83 752.801 1027.56 718.344 1053.65 689.27C1066.65 674.78 1083.45 661.188 1102.84 656.86C1130.49 650.683 1156.39 658.521 1180.39 660.656C1182.29 660.823 1184.18 660.96 1186.08 661.06C1214.76 662.573 1242.46 656.042 1266.37 638.712C1291.84 620.282 1312.76 587.622 1313.89 549.03" stroke="#B7B7B7" stroke-width="0.651413" stroke-miterlimit="10"/>
        <path d="M410.375 1008.41C427.212 981.258 447.268 956.866 469.539 935.543C479.416 926.083 489.84 917.133 501.543 910.576C524.928 897.48 550.851 895.217 575.81 897.695C582.727 898.382 589.572 899.391 596.28 900.656C624.811 906.152 652.758 915.938 679.352 929.252C705.642 942.437 730.483 959.96 758.197 973.606C786.766 987.675 816.112 1002.19 846.729 1008.96C872.814 1014.69 900.895 1013.66 924.374 1000.35C928.641 997.938 932.738 995.134 936.63 991.917C960.616 972.088 973.06 940.174 981.319 907.28C983.924 896.889 986.125 886.397 988.18 876.098C993.558 849.164 999.186 821.664 1006.52 795.757C1018.52 753.824 1037.72 718.884 1065.55 690.077C1078.58 676.6 1095.01 663.933 1113.73 659.526C1140.43 653.236 1165.62 659.271 1188.88 659.675C1190.72 659.706 1192.55 659.706 1194.39 659.67C1222.12 659.118 1248.36 650.524 1270.44 632.099C1293.95 612.504 1312.52 580.027 1312.56 542.678" stroke="#B1B1B1" stroke-width="0.651413" stroke-miterlimit="10"/>
        <path d="M415.656 1020.16C432.081 993.583 451.821 969.853 473.811 949.286C483.561 940.163 493.85 931.58 505.287 925.159C528.127 912.337 553.349 909.239 577.805 910.655C584.596 911.047 591.33 911.749 597.947 912.704C626.072 916.866 653.752 925.3 680.23 937.241C706.402 949.064 731.284 965.113 758.499 978.143C787.863 992.203 817.712 1007.25 848.999 1014.41C875.62 1020.47 904.403 1019.69 928.47 1006.3C932.848 1003.87 937.056 1001.04 941.052 997.768C965.687 977.634 978.362 945.022 986.938 911.397C989.64 900.784 991.947 890.068 994.127 879.56C999.83 852.079 1005.99 824.007 1014.05 797.614C1027.21 754.85 1047.82 719.324 1077.46 690.885C1090.48 678.385 1106.57 666.678 1124.62 662.193C1150.37 655.789 1174.86 660.024 1197.37 658.696C1199.15 658.59 1200.92 658.454 1202.69 658.281C1229.49 655.663 1254.27 645.006 1274.51 625.485C1296.06 604.726 1312.28 572.433 1311.23 536.324" stroke="#ABABAB" stroke-width="0.651413" stroke-miterlimit="10"/>
        <path d="M420.934 1031.91C436.946 1005.91 456.37 982.84 478.079 963.027C487.703 954.24 497.856 946.027 509.027 939.74C531.323 927.195 555.842 923.257 579.799 923.614C586.463 923.712 593.083 924.104 599.613 924.75C627.331 927.58 654.746 934.66 681.108 945.229C707.161 955.692 732.087 970.253 758.801 982.68C788.964 996.71 819.31 1012.3 851.265 1019.86C878.423 1026.26 907.911 1025.73 932.564 1012.25C937.053 1009.8 941.369 1006.93 945.47 1003.62C970.753 983.18 983.659 949.868 992.553 915.51C995.354 904.677 997.765 893.737 1000.07 883.019C1006.1 854.993 1012.8 826.348 1021.57 799.471C1035.91 755.873 1057.86 719.645 1089.36 691.694C1102.38 680.136 1118.12 669.425 1135.51 664.861C1160.31 658.344 1184.09 660.775 1205.86 657.718C1207.58 657.476 1209.29 657.203 1211 656.894C1236.85 652.213 1260.17 639.49 1278.57 618.874C1298.17 596.951 1312.03 564.841 1309.89 529.975" stroke="#A6A6A6" stroke-width="0.651413" stroke-miterlimit="10"/>
        <path d="M426.203 1043.66C441.803 1018.23 460.909 995.826 482.339 976.768C491.837 968.318 501.856 960.473 512.759 954.322C534.511 942.053 558.328 937.275 581.783 936.572C588.32 936.376 594.829 936.461 601.269 936.795C628.579 938.294 655.728 944.02 681.975 953.215C707.91 962.318 732.882 975.382 759.092 987.214C790.061 1001.2 820.898 1017.36 853.523 1025.31C881.218 1032.05 911.407 1031.76 936.648 1018.2C941.248 1015.73 945.672 1012.83 949.88 1009.47C975.812 988.724 988.949 954.711 998.161 919.622C1001.06 908.565 1003.58 897.401 1006.01 886.476C1012.36 857.902 1019.6 828.689 1029.09 801.326C1044.59 756.895 1067.85 719.836 1101.25 692.499C1114.27 681.847 1129.67 672.167 1146.39 667.524C1170.25 660.892 1193.31 661.522 1214.34 656.733C1216 656.353 1217.66 655.944 1219.3 655.498C1244.21 648.752 1266.07 633.966 1282.63 612.254C1300.27 589.168 1311.78 557.24 1308.56 523.617" stroke="#A0A0A0" stroke-width="0.651413" stroke-miterlimit="10"/>
        <path d="M431.48 1055.42C446.667 1030.56 465.458 1008.81 486.607 990.51C495.979 982.399 505.862 974.92 516.499 968.905C537.706 956.912 560.819 951.248 583.775 949.531C590.184 949.028 596.582 948.818 602.933 948.841C629.837 949.008 656.721 953.38 682.853 961.204C708.668 968.946 733.688 980.501 759.394 991.751C791.174 1005.66 822.497 1022.41 855.789 1030.77C884.022 1037.83 914.914 1037.8 940.743 1024.15C945.454 1021.66 949.987 1018.73 954.299 1015.32C980.881 994.271 994.248 959.561 1003.78 923.737C1006.77 912.46 1009.4 901.07 1011.95 889.935C1018.63 860.815 1026.4 831.03 1036.62 803.182C1053.29 757.919 1077.8 719.883 1113.15 693.307C1126.16 683.524 1141.23 674.912 1157.28 670.19C1180.19 663.446 1202.54 662.272 1222.83 655.753C1224.43 655.238 1226.02 654.692 1227.61 654.11C1251.58 645.298 1271.98 628.449 1286.7 605.642C1302.38 581.389 1311.54 549.645 1307.22 517.264" stroke="#9B9B9B" stroke-width="0.651413" stroke-miterlimit="10"/>
        <path d="M436.762 1067.17C451.537 1042.88 470.009 1021.8 490.879 1004.25C500.125 996.478 509.872 989.369 520.243 983.486C540.906 971.768 563.315 965.274 585.772 962.489C592.055 961.693 598.341 961.173 604.602 960.887C631.098 959.723 657.716 962.741 683.733 969.193C709.429 975.574 734.497 985.61 759.699 996.289C792.296 1010.1 824.099 1027.47 858.06 1036.22C886.829 1043.62 918.424 1043.84 944.84 1030.1C949.662 1027.6 954.304 1024.63 958.722 1021.17C985.953 999.816 999.551 964.405 1009.4 927.851C1012.49 916.351 1015.22 904.738 1017.9 893.395C1024.9 863.729 1033.21 833.371 1044.15 805.039C1061.98 758.944 1087.71 719.778 1125.06 694.114C1138.08 685.167 1152.79 677.656 1168.17 672.857C1190.13 665.998 1211.78 663.022 1231.32 654.772C1232.86 654.121 1234.4 653.438 1235.92 652.718C1258.95 641.842 1277.89 622.929 1290.77 599.027C1304.49 573.61 1311.3 542.049 1305.89 510.911" stroke="#959595" stroke-width="0.651413" stroke-miterlimit="10"/>
        <path d="M442.039 1078.92C456.401 1055.21 474.558 1034.79 495.147 1018C504.266 1010.56 513.878 1003.82 523.983 998.069C544.1 986.627 565.806 979.299 587.764 975.45C593.92 974.361 600.093 973.532 606.266 972.935C632.355 970.438 658.709 972.103 684.61 977.183C710.187 982.204 735.304 990.711 759.999 1000.83C793.419 1014.52 825.697 1032.52 860.325 1041.67C889.633 1049.41 921.929 1049.88 948.932 1036.05C953.864 1033.53 958.615 1030.53 963.139 1027.02C991.018 1005.36 1004.85 969.253 1015.01 931.966C1018.2 920.244 1021.04 908.406 1023.84 896.856C1031.16 866.644 1040.02 835.714 1051.67 806.898C1070.67 759.969 1097.59 719.511 1136.95 694.925C1150 686.778 1164.35 680.404 1179.05 675.527C1200.07 668.555 1221.01 663.776 1239.81 653.795C1241.29 653.007 1242.76 652.188 1244.22 651.333C1266.31 638.392 1283.79 617.414 1294.84 592.418C1306.59 565.837 1311.05 534.458 1304.56 504.563" stroke="#909090" stroke-width="0.651413" stroke-miterlimit="10"/>
        <path d="M447.312 1090.67C479.726 1036.91 533.147 1001.38 589.752 988.408C646.356 975.437 705.797 983.816 760.296 1005.36C794.545 1018.9 827.289 1037.58 862.588 1047.12C897.886 1056.67 937.598 1055.93 967.554 1032.87C1005.04 1004.01 1017.55 949.51 1029.78 900.316C1049.9 819.419 1082.07 733.396 1148.85 695.733C1182.12 676.972 1221.05 672.273 1252.53 649.942C1296.16 618.981 1317.94 553.809 1303.22 498.208" stroke="#8A8A8A" stroke-width="0.651413" stroke-miterlimit="10"/>
      </g>
      <g style="mix-blend-mode:multiply">
        <path d="M144.099 852.48C137.98 796.884 186.797 749.907 236.032 741.267C285.266 732.628 334.655 750.453 383.438 761.877C432.221 773.301 487.108 777.078 527.858 744.835C579.956 703.616 592.008 616.903 645.604 578.186C687.378 548.01 741.755 557.039 784.554 579.49C808.754 592.182 829.329 613.534 852.459 628.41C957.355 695.864 964.428 833.713 1053.55 854.269C1150.04 876.527 1202.4 823.636 1220.61 786.954C1243.93 739.967 1282.83 618.047 1187.52 533.321C1148.8 498.901 1110.58 462.218 1082.09 416.896C1039.45 349.043 1039.74 245.307 1094.27 189.239C1131.65 150.81 1189.05 136.762 1214.44 87.4927C1231.51 54.3781 1229.17 11.6855 1214.5 -22.8499C1199.83 -57.3854 1174.28 -84.6972 1146.52 -106.847" stroke="#8A8A8A" stroke-width="0.651413" stroke-miterlimit="10"/>
        <path d="M146.312 855.255C142.087 798.062 190.638 748.648 241.343 738.817C290.832 729.22 341.036 746.905 389.825 759.518C438.038 771.982 491.566 777.634 532.186 748.326C584.072 710.823 598.664 628.513 652.194 590.305C694.835 560.033 748.349 565.659 792.17 585.284C817.344 596.558 839.649 616.685 863.874 631.772C966.566 695.731 975.012 829.1 1062.19 849.375C1155.96 871.137 1208.03 821.084 1226.95 784.989C1250.93 739.248 1288.04 621.778 1197.99 538.02C1160.86 503.488 1124.04 466.099 1096.02 421.057C1054.63 354.813 1054.25 254.77 1105.72 199.189C1141.33 160.735 1196.67 145.068 1221.96 96.4347C1239.31 63.1877 1238.24 21.1049 1225.42 -13.6889C1212.49 -48.8064 1188.89 -77.6699 1162.22 -101.446" stroke="#909090" stroke-width="0.651413" stroke-miterlimit="10"/>
        <path d="M148.519 858.029C146.189 799.241 194.471 747.409 246.647 736.366C296.394 725.838 347.41 743.344 396.207 757.159C443.85 770.646 496.019 778.19 536.51 751.819C588.187 718.032 605.24 639.99 658.78 602.428C702.228 571.946 754.992 574.245 799.78 591.082C825.957 600.924 849.952 619.843 875.281 635.137C975.675 695.756 985.589 824.493 1070.83 844.485C1161.88 865.753 1213.65 818.535 1233.29 783.025C1257.91 738.527 1293.26 625.435 1208.45 542.719C1172.9 508.05 1137.5 469.983 1109.93 425.218C1069.8 360.585 1068.76 264.201 1117.17 209.141C1151.02 170.637 1204.29 153.372 1229.47 105.377C1247.11 71.9975 1247.32 30.4952 1236.34 -4.52748C1225.14 -40.2565 1203.5 -70.6422 1177.91 -96.0459" stroke="#959595" stroke-width="0.651413" stroke-miterlimit="10"/>
        <path d="M150.732 860.805C150.298 800.423 198.311 746.187 251.959 733.916C301.962 722.477 353.789 739.771 402.595 754.799C449.666 769.294 500.477 778.747 540.839 755.309C592.306 725.241 611.866 651.544 665.37 614.546C709.661 583.919 761.685 582.781 807.395 596.876C834.602 605.266 860.252 623.004 886.697 638.498C984.705 695.921 996.173 819.882 1079.48 839.591C1167.8 860.366 1219.26 815.982 1239.64 781.059C1264.88 737.803 1298.5 629 1218.91 547.418C1184.93 512.58 1151.07 473.779 1123.85 429.377C1085.14 366.227 1083.27 273.592 1128.62 219.089C1160.71 180.514 1211.82 161.609 1236.98 114.317C1254.84 80.756 1256.41 39.8553 1247.26 4.63158C1237.81 -31.7384 1218.11 -63.6152 1193.6 -90.6475" stroke="#9B9B9B" stroke-width="0.651413" stroke-miterlimit="10"/>
        <path d="M152.94 863.58C154.401 801.602 202.147 744.984 257.266 731.464C307.528 719.136 360.162 736.181 408.979 752.438C455.477 767.924 504.93 779.302 545.163 758.798C596.42 732.446 618.494 663.107 671.956 626.664C717.091 595.896 768.41 591.268 815.006 602.67C843.266 609.584 870.536 626.175 898.107 641.858C993.655 696.212 1006.75 815.27 1088.12 834.696C1173.72 854.975 1224.87 813.425 1245.99 779.091C1271.83 737.07 1303.75 632.47 1229.38 552.114C1196.95 517.075 1164.56 477.633 1137.77 433.536C1100.36 371.961 1097.76 282.943 1140.06 229.037C1170.41 190.365 1219.41 169.893 1244.49 123.255C1262.62 89.5478 1265.52 49.1867 1258.17 13.7896C1250.49 -23.2491 1232.71 -56.591 1209.29 -85.25" stroke="#A0A0A0" stroke-width="0.651413" stroke-miterlimit="10"/>
        <path d="M155.152 866.355C158.506 802.781 205.986 743.797 262.576 729.013C313.098 715.815 366.538 732.577 415.366 750.079C461.294 766.541 509.42 779.951 549.491 762.289C600.579 739.771 625.132 674.679 678.546 638.785C724.53 607.881 775.17 599.707 822.621 608.468C851.95 613.881 880.812 629.36 909.519 645.225C1002.54 696.629 1017.33 810.662 1096.76 829.807C1179.64 849.593 1230.45 810.875 1252.33 777.131C1278.77 736.341 1309.02 635.843 1239.84 556.817C1208.96 521.542 1178.05 481.496 1151.69 437.699C1115.57 377.705 1112.25 292.255 1151.51 238.99C1180.1 200.192 1227.01 178.186 1252 132.198C1270.4 98.3461 1274.65 58.5017 1269.09 22.9525C1263.19 -14.7794 1247.32 -49.5602 1224.98 -79.8477" stroke="#A6A6A6" stroke-width="0.651413" stroke-miterlimit="10"/>
        <path d="M157.363 869.129C162.612 803.96 209.827 742.626 267.885 726.562C318.67 712.51 372.914 728.96 421.751 747.717C467.109 765.141 513.873 780.523 553.816 765.778C604.694 746.998 631.771 686.258 685.134 650.902C731.973 619.868 781.95 608.091 830.235 614.26C860.648 618.145 891.078 632.555 920.932 648.585C1011.38 697.147 1027.91 806.049 1105.4 824.91C1185.56 844.2 1236.04 808.309 1258.67 775.16C1285.69 735.597 1314.34 639.098 1250.3 561.51C1220.97 525.96 1191.54 485.353 1165.61 441.854C1130.78 383.447 1126.72 301.515 1162.96 248.936C1189.8 209.984 1234.61 186.474 1259.52 141.135C1278.19 107.14 1283.81 67.7902 1280.01 32.1086C1275.91 -6.33616 1261.93 -42.5376 1240.68 -74.4521" stroke="#ABABAB" stroke-width="0.651413" stroke-miterlimit="10"/>
        <path d="M159.574 871.904C166.718 805.139 213.67 741.472 273.195 724.111C324.245 709.221 379.294 725.329 428.139 745.358C472.93 763.726 518.328 781.094 558.145 769.271C608.81 754.227 638.417 697.847 691.724 663.022C739.418 631.865 788.742 616.429 837.849 620.057C869.353 622.383 901.334 635.766 932.345 651.948C1020.16 697.769 1038.5 801.44 1114.05 820.018C1191.48 838.814 1241.61 805.746 1265.02 773.197C1292.6 734.85 1319.69 642.241 1260.77 566.21C1232.97 530.342 1205.03 489.219 1179.53 446.014C1145.99 389.197 1141.18 310.731 1174.4 258.885C1199.49 219.745 1242.22 194.767 1267.03 150.076C1285.98 115.94 1292.99 77.0709 1290.92 41.2683C1288.66 2.09758 1276.54 -35.5101 1256.37 -69.0547" stroke="#B1B1B1" stroke-width="0.651413" stroke-miterlimit="10"/>
        <path d="M161.792 874.679C170.831 806.318 217.524 740.332 278.511 721.658C329.828 705.946 385.681 721.68 434.531 742.997C478.759 762.297 522.786 781.661 562.479 772.76C612.927 761.447 645.073 709.44 698.32 675.14C746.873 643.864 795.548 624.716 845.47 625.85C878.068 626.59 911.587 638.994 943.765 655.308C1028.9 698.477 1049.09 796.828 1122.7 815.122C1197.41 833.424 1247.17 803.172 1271.37 771.228C1299.51 734.091 1325.11 645.254 1271.24 570.905C1244.98 534.671 1218.52 493.084 1193.46 450.172C1161.2 394.948 1155.61 319.893 1185.86 268.832C1209.18 229.472 1249.84 203.061 1274.55 159.015C1293.78 124.738 1302.21 86.3402 1301.85 50.4264C1301.45 10.5183 1291.16 -28.4857 1272.08 -63.6572" stroke="#B7B7B7" stroke-width="0.651413" stroke-miterlimit="10"/>
        <path d="M163.996 877.455C174.93 807.498 221.367 739.211 283.813 719.209C335.402 702.685 392.058 718.022 440.909 740.64C484.576 760.857 527.227 782.229 566.798 776.253C617.028 768.668 651.718 721.042 704.9 687.262C754.316 655.874 802.339 632.965 853.076 631.648C886.771 630.773 921.814 642.244 955.169 658.673C1037.6 699.273 1059.66 792.219 1131.33 810.232C1203.32 828.039 1252.71 800.597 1277.71 769.266C1306.38 733.329 1330.59 648.147 1281.69 575.608C1256.99 538.958 1231.99 496.957 1207.36 454.335C1176.38 400.71 1170 329.011 1197.3 278.785C1218.83 239.168 1257.45 211.364 1282.05 167.959C1301.56 133.542 1311.44 95.6094 1312.76 59.5893C1314.24 18.9404 1305.75 -21.455 1287.75 -58.2549" stroke="#BCBCBC" stroke-width="0.651413" stroke-miterlimit="10"/>
        <path d="M166.207 880.23C179.035 808.677 225.22 738.102 289.121 716.758C340.985 699.435 398.447 714.347 447.296 738.279C490.406 759.4 531.676 782.788 571.125 779.742C621.134 775.88 658.373 732.649 711.489 699.379C761.771 667.885 809.135 641.172 860.689 637.442C895.478 634.924 932.04 645.516 966.582 662.035C1046.26 700.143 1070.24 787.608 1139.98 805.339C1209.25 822.652 1258.25 798.009 1284.05 767.301C1313.25 732.553 1336.15 650.904 1292.16 580.306C1269.03 543.187 1245.47 500.829 1221.28 458.495C1191.57 406.474 1184.35 338.074 1208.75 288.734C1228.48 248.825 1265.07 219.665 1289.57 176.899C1309.36 142.346 1320.7 104.879 1323.67 68.7489C1327.08 27.3593 1320.36 -14.4292 1303.45 -52.856" stroke="#C2C2C2" stroke-width="0.651413" stroke-miterlimit="10"/>
        <path d="M168.417 883.005C183.14 809.857 229.076 737.006 294.431 714.307C346.572 696.197 404.841 710.656 453.681 735.919C496.239 757.932 536.124 783.347 575.452 783.234C625.24 783.092 665.032 744.266 718.078 711.5C769.228 679.906 815.923 649.347 868.304 643.238C904.181 639.054 942.255 648.814 977.995 665.4C1054.91 701.088 1080.82 783 1148.62 800.448C1215.17 817.266 1263.78 795.415 1290.4 765.337C1320.11 731.766 1341.82 653.532 1302.63 585.006C1281.1 547.361 1258.94 504.709 1235.21 462.656C1206.75 412.244 1198.67 347.089 1220.2 298.685C1238.09 258.447 1272.69 227.969 1297.08 185.841C1317.17 151.153 1329.99 114.152 1334.59 77.9094C1339.94 35.7857 1334.97 -7.40232 1319.15 -47.4561" stroke="#C7C7C7" stroke-width="0.651413" stroke-miterlimit="10"/>
        <path d="M170.633 885.78C187.251 811.037 232.944 735.924 299.744 711.855C352.166 692.967 411.247 706.953 460.072 733.559C502.085 756.452 540.575 783.898 579.783 786.724C629.349 790.295 671.698 755.885 724.671 723.619C776.693 691.93 822.707 657.49 875.923 649.033C912.881 643.16 952.462 652.141 989.413 668.762C1063.52 702.095 1091.38 778.54 1157.27 795.555C1221.06 812.026 1269.3 792.806 1296.75 763.372C1326.96 730.969 1347.6 656.034 1313.09 589.706C1293.21 551.477 1272.41 508.589 1249.13 466.817C1221.93 418.019 1212.93 356.061 1231.65 308.636C1247.67 268.035 1280.33 236.277 1304.6 194.782C1324.97 159.962 1339.31 123.433 1345.52 87.0695C1352.84 44.2215 1349.59 -0.374435 1334.85 -42.0566" stroke="#CDCDCD" stroke-width="0.651413" stroke-miterlimit="10"/>
        <path d="M172.84 888.554C191.353 812.215 236.806 734.857 305.049 709.404C357.754 689.746 417.65 703.235 466.454 731.197C507.925 754.959 545.018 784.447 584.104 790.213C633.452 797.492 678.359 767.512 731.254 735.736C784.152 703.961 829.468 665.606 883.53 654.826C921.562 647.243 962.648 655.503 1000.82 672.121C1072.11 703.161 1101.95 773.929 1165.91 790.659C1226.98 806.635 1274.81 790.185 1303.09 761.403C1333.79 730.152 1353.5 658.416 1323.55 594.4C1305.36 555.526 1285.87 512.471 1263.04 470.972C1237.09 423.792 1227.12 364.988 1243.09 318.581C1257.19 277.583 1287.95 244.582 1312.11 203.717C1332.77 168.766 1348.62 132.72 1356.43 96.2241C1365.74 52.6632 1364.19 6.64646 1350.53 -36.6626" stroke="#D2D2D2" stroke-width="0.651413" stroke-miterlimit="10"/>
        <path d="M175.051 891.329C195.459 813.394 240.678 733.8 310.359 706.953C363.351 686.535 424.066 699.505 472.84 728.838C513.777 753.459 549.469 784.994 588.433 793.704C637.562 804.686 685.027 779.145 737.845 747.855C791.619 715.998 836.221 673.701 891.145 660.621C930.241 651.311 972.829 658.904 1012.23 675.483C1080.69 704.288 1112.53 769.315 1174.55 785.765C1232.9 801.243 1280.31 787.551 1309.43 759.438C1340.63 729.327 1359.55 660.699 1334.02 599.099C1317.61 559.524 1299.32 516.359 1276.96 475.133C1252.25 429.577 1241.25 373.891 1254.54 328.532C1266.66 287.114 1295.58 252.894 1319.62 212.659C1340.58 177.579 1357.96 142.027 1367.34 105.385C1378.67 61.1293 1378.79 13.6754 1366.22 -31.2622" stroke="#D8D8D8" stroke-width="0.651413" stroke-miterlimit="10"/>
        <path d="M177.258 894.103C199.559 814.573 244.551 732.757 315.664 704.5C368.947 683.33 430.486 695.761 479.223 726.477C519.633 751.946 553.917 785.535 592.756 797.193C641.67 811.875 691.693 790.782 744.429 759.972C799.085 728.042 842.955 681.776 898.755 666.415C938.905 655.362 982.992 662.35 1023.64 678.845C1089.25 705.467 1123.11 764.698 1183.19 780.872C1238.82 795.847 1285.8 784.904 1315.77 757.471C1347.44 728.486 1365.75 662.901 1344.47 603.795C1329.96 563.468 1312.77 520.25 1290.88 479.289C1267.4 435.362 1255.31 382.772 1265.98 338.477C1276.06 296.622 1303.21 261.204 1327.13 221.596C1348.39 186.39 1367.31 151.343 1378.26 114.542C1391.62 69.6074 1393.4 20.6983 1381.91 -25.8662" stroke="#DEDEDE" stroke-width="0.651413" stroke-miterlimit="10"/>
        <path d="M179.473 896.88C203.669 815.754 248.437 731.727 320.977 702.051C374.553 680.134 436.922 692.007 485.612 724.12C525.501 750.427 558.373 786.078 597.086 800.687C645.786 819.065 698.369 802.43 751.022 772.097C806.56 740.099 849.683 689.846 906.373 672.215C947.566 659.404 993.148 665.856 1035.06 682.212C1097.8 706.701 1133.7 760.082 1191.84 775.983C1244.75 790.452 1291.29 782.247 1322.12 755.511C1354.27 727.638 1372.14 665.06 1354.94 608.499C1342.44 567.376 1326.21 524.155 1304.8 483.456C1282.55 441.162 1269.3 391.659 1277.43 348.434C1285.39 306.132 1310.86 269.526 1334.65 230.543C1356.21 195.215 1376.68 160.685 1389.18 123.708C1404.59 78.1132 1408.01 27.7326 1397.61 -20.4604" stroke="#E3E3E3" stroke-width="0.651413" stroke-miterlimit="10"/>
        <path d="M181.688 899.654C207.778 816.932 252.327 730.705 326.29 699.6C380.163 676.943 443.367 688.238 492.002 721.758C531.376 748.897 562.864 786.532 601.417 804.176C649.945 826.146 705.047 814.079 757.614 784.214C814.039 752.157 856.396 697.893 913.991 678.008C956.218 663.428 1003.29 669.415 1046.47 685.573C1106.36 707.978 1144.31 755.335 1200.49 771.089C1250.7 784.941 1296.78 779.568 1328.47 753.543C1361.08 726.768 1378.7 667.203 1365.41 613.196C1355.09 571.254 1339.65 528.058 1318.73 487.613C1297.7 446.958 1283.22 400.55 1288.89 358.381C1294.63 315.639 1318.5 277.843 1342.17 239.482C1364.03 204.032 1386.06 170.032 1400.1 132.865C1417.57 86.6277 1422.63 34.7559 1413.31 -15.064" stroke="#E9E9E9" stroke-width="0.651413" stroke-miterlimit="10"/>
        <path d="M183.897 902.429C211.884 818.113 256.217 729.695 331.599 697.149C385.773 673.758 449.821 684.46 498.387 719.399C537.257 747.361 567.319 787.088 605.743 807.667C654.06 833.353 711.722 825.734 764.202 796.333C821.515 764.224 863.091 705.934 921.604 683.802C964.853 667.444 1013.41 673.049 1057.89 688.935C1114.9 709.299 1154.9 750.725 1209.13 766.196C1256.62 779.552 1302.25 776.876 1334.82 751.578C1367.89 725.885 1385.44 669.388 1375.88 617.894C1367.94 575.131 1353.07 531.967 1332.65 491.773C1312.82 452.761 1297.06 409.474 1300.33 368.33C1303.77 325.173 1326.15 286.164 1349.68 248.422C1371.85 212.855 1395.44 179.396 1411.02 142.025C1430.56 95.1647 1437.23 41.7837 1429 -9.66455" stroke="#EEEEEE" stroke-width="0.651413" stroke-miterlimit="10"/>
        <path d="M186.104 905.204C215.986 819.292 260.111 728.696 336.904 694.697C391.382 670.578 456.279 680.668 504.769 717.038C543.14 745.818 571.772 787.644 610.065 811.156C658.174 840.559 718.446 837.508 770.786 808.452C829.048 776.425 869.768 713.967 929.211 689.597C973.473 671.451 1023.51 676.767 1069.29 692.297C1123.45 710.665 1165.47 746.114 1217.77 761.302C1262.53 774.165 1307.72 774.165 1341.16 749.611C1374.59 725.058 1392.34 671.667 1386.33 622.591C1381 579.043 1366.47 535.885 1346.56 495.933C1327.94 458.567 1310.82 418.449 1311.77 378.28C1312.8 334.746 1333.85 294.536 1357.18 257.363C1379.73 221.727 1404.81 188.776 1421.93 151.185C1443.55 103.719 1451.83 48.8096 1444.69 -4.26562" stroke="#F4F4F4" stroke-width="0.651413" stroke-miterlimit="10"/>
        <path d="M188.315 907.978C220.091 820.471 264.057 727.829 342.212 692.245C397.028 667.489 462.753 676.868 511.155 714.677C549.036 744.268 576.227 788.198 614.393 814.647C662.292 847.768 725.102 849.118 777.375 820.57C836.503 788.445 876.438 721.993 936.827 695.393C982.092 675.454 1033.6 680.588 1080.71 695.659C1132 712.072 1176.05 741.503 1226.41 756.41C1268.46 768.779 1313.19 771.441 1347.5 747.647C1381.5 724.075 1399.42 674.116 1396.8 627.29C1394.33 583.042 1379.86 539.81 1360.48 500.092C1343.05 464.379 1324.54 427.491 1323.22 388.228C1321.75 344.38 1341.47 302.84 1364.7 266.303C1387.53 230.535 1414.19 198.168 1432.85 160.344C1456.55 112.292 1466.44 55.8349 1460.38 1.13281" stroke="#F9F9F9" stroke-width="0.651413" stroke-miterlimit="10"/>
        <path d="M190.527 910.753C224.198 821.649 267.921 726.725 347.524 689.795C402.619 664.234 469.241 673.058 517.542 712.317C554.942 742.714 580.684 788.756 618.721 818.137C666.409 854.975 731.757 860.73 783.967 832.689C843.963 800.466 883.096 730.017 944.443 701.187C990.703 679.448 1043.67 684.525 1092.12 699.021C1140.57 713.517 1186.64 736.892 1235.06 751.514C1274.38 763.388 1318.66 768.694 1353.85 745.679C1388.3 723.145 1406.62 676.794 1407.26 631.986C1407.91 587.177 1393.24 543.741 1374.4 504.25C1358.15 470.192 1338.2 436.618 1334.67 398.176C1330.62 354.089 1349.09 311.141 1372.21 275.24C1395.33 239.34 1423.58 207.571 1443.77 169.5C1469.55 120.877 1481.05 62.8593 1476.08 6.52881" stroke="white" stroke-width="0.651413" stroke-miterlimit="10"/>
      </g>
      <g style="mix-blend-mode:multiply">
        <path d="M767.146 1242.63C724.767 1213.17 722.783 1140.96 747.638 1092.4C772.494 1043.85 815.793 1011.74 854.276 976.153C892.759 940.565 929.763 894.836 932.94 838.928C937 767.454 884.433 702.567 891.168 631.35C896.419 575.841 936.746 533.85 979.124 510.412C1003.08 497.158 1030.78 492.508 1055.58 481.558C1168.07 431.904 1268.07 512.066 1338.15 446.858C1414.03 376.25 1410.17 297.236 1396.14 258.298C1378.18 208.421 1318.02 97.9568 1199.57 128.388C1151.45 140.751 1102.07 151.264 1052.8 147.829C979.044 142.687 907.303 77.4435 902.597 -5.46974C899.371 -62.2942 925.594 -121.396 907.342 -174.51C895.076 -210.21 864.015 -234.912 830.881 -243.694C797.747 -252.477 762.803 -247.196 730.055 -236.748" stroke="white" stroke-width="0.651413" stroke-miterlimit="10"/>
        <path d="M770.452 1242.44C728.155 1210.31 724.312 1136.81 749.262 1086.22C773.614 1036.84 817.326 1003.93 856.637 969.079C895.483 934.641 932.938 891.278 938.067 837.323C944.573 768.362 896.648 704.01 903.695 633.168C909.421 576.838 946.848 533.471 987.906 507.369C1011.49 492.374 1039.42 485.437 1065.06 473.663C1173.74 423.748 1271.5 499.905 1340.17 436.216C1414 367.684 1411.92 290.7 1398.75 251.504C1382.06 201.837 1323.87 95.7239 1209.38 122.161C1162.18 133.06 1113.19 141.899 1064.41 138.237C992.548 133.001 922.952 70.6537 916.663 -9.26732C912.312 -64.5629 936.122 -122.872 918.244 -175.493C906.065 -211.527 876.221 -236.956 844.068 -247.523C811.616 -258.188 776.823 -255.597 743.625 -247.117" stroke="#FBFBFB" stroke-width="0.651413" stroke-miterlimit="10"/>
        <path d="M773.76 1242.24C731.542 1207.45 725.856 1132.67 750.887 1080.03C774.753 1029.84 818.853 996.107 859 962.005C898.199 928.709 936.113 887.723 943.196 835.721C952.147 769.272 908.722 705.435 916.224 634.989C922.311 577.822 956.961 533.026 996.694 504.331C1019.92 487.559 1048.07 478.385 1074.54 465.772C1179.46 415.781 1274.93 487.747 1342.19 425.579C1413.98 359.125 1413.67 284.177 1401.36 244.717C1385.94 195.268 1329.67 93.4411 1219.19 115.939C1172.88 125.369 1124.31 132.542 1076.01 128.65C1006.05 123.322 938.578 63.8516 930.732 -13.0609C925.244 -66.8458 946.651 -124.344 929.148 -176.471C917.058 -212.842 888.415 -239.023 857.256 -251.346C825.469 -263.918 790.845 -263.99 757.199 -257.482" stroke="#F6F6F6" stroke-width="0.651413" stroke-miterlimit="10"/>
        <path d="M777.073 1242.04C734.937 1204.59 727.417 1128.54 752.52 1073.84C775.916 1022.86 820.374 988.282 861.372 954.932C900.911 922.767 939.296 884.169 948.333 834.117C959.729 770.181 920.891 706.871 928.76 636.809C935.274 578.813 967.079 532.513 1005.49 501.29C1028.35 482.706 1056.72 471.344 1084.03 457.88C1185.24 407.976 1278.37 475.587 1344.22 414.942C1413.96 350.562 1415.43 277.662 1403.98 237.927C1389.81 188.71 1335.43 91.0912 1229.01 109.715C1183.57 117.668 1135.45 123.026 1087.62 119.061C1019.58 113.42 954.184 57.0251 944.807 -16.8577C938.171 -69.1497 957.079 -125.771 940.059 -177.451C927.98 -214.125 900.606 -241.125 870.452 -255.173C839.316 -269.679 804.875 -272.387 770.78 -267.85" stroke="#F2F2F2" stroke-width="0.651413" stroke-miterlimit="10"/>
        <path d="M780.378 1241.84C738.323 1201.73 728.982 1124.42 754.141 1067.65C777.084 1015.89 821.875 980.445 863.73 947.855C903.598 916.812 942.469 880.609 953.459 832.509C967.301 771.085 933.058 708.303 941.285 638.625C948.232 579.8 977.175 531.932 1014.27 498.247C1036.77 477.817 1065.36 464.317 1093.5 449.984C1191.05 400.313 1281.79 463.425 1346.24 404.299C1413.93 341.996 1417.16 271.151 1406.59 231.133C1393.65 182.158 1341.12 88.6614 1238.82 103.485C1194.21 109.948 1146.58 113.614 1099.22 109.466C1033.09 103.673 969.746 50.1757 958.875 -20.6594C951.075 -71.4783 967.581 -127.241 950.961 -178.438C938.95 -215.44 912.781 -243.264 883.639 -259.005C853.145 -275.476 818.895 -280.79 784.352 -278.223" stroke="#EEEEEE" stroke-width="0.651413" stroke-miterlimit="10"/>
        <path d="M783.691 1241.64C741.716 1198.87 730.568 1120.32 755.771 1061.47C778.273 1008.93 823.374 972.603 866.097 940.782C906.284 910.851 945.732 877.084 958.592 830.907C974.987 772.034 945.241 709.74 953.817 640.447C961.201 580.793 987.259 531.298 1023.06 495.208C1045.19 472.899 1074 457.307 1102.99 442.092C1196.91 392.784 1285.23 451.266 1348.26 393.662C1413.9 333.433 1418.9 264.652 1409.21 224.345C1397.49 175.622 1346.77 86.152 1248.64 97.2621C1204.83 102.221 1157.71 104.213 1110.83 99.8781C1046.61 93.9397 985.28 43.317 972.947 -24.454C963.963 -73.8176 978.091 -128.704 961.869 -179.417C949.927 -216.748 924.961 -245.43 896.832 -262.83C866.975 -281.298 832.92 -289.186 797.929 -288.589" stroke="#E9E9E9" stroke-width="0.651413" stroke-miterlimit="10"/>
        <path d="M786.998 1241.44C745.104 1196.01 732.16 1116.22 757.397 1055.28C779.471 1001.97 824.86 964.749 868.462 933.708C908.958 904.877 948.92 873.538 963.723 829.302C982.577 772.955 957.428 711.175 966.348 642.266C974.177 581.782 997.322 530.612 1031.85 492.167C1053.6 467.952 1082.65 450.315 1112.47 434.198C1202.8 385.371 1288.66 439.106 1350.28 383.023C1413.88 324.871 1420.62 258.157 1411.82 217.553C1401.31 169.09 1352.36 83.5379 1258.45 91.0362C1215.42 94.473 1168.84 94.8115 1122.43 90.2857C1060.12 84.2083 1000.77 36.4371 987.015 -28.2535C976.825 -76.1783 988.601 -130.176 972.772 -180.401C960.903 -218.063 937.14 -247.634 910.02 -266.659C880.801 -287.156 846.943 -297.585 811.501 -298.958" stroke="#E5E5E5" stroke-width="0.651413" stroke-miterlimit="10"/>
        <path d="M790.311 1241.24C748.497 1193.15 733.772 1112.12 759.027 1049.09C780.687 995.028 826.342 956.883 870.83 926.633C911.627 898.892 952.109 869.993 968.857 827.696C990.168 773.877 969.627 712.61 978.88 644.084C987.159 582.773 1007.36 529.882 1040.64 489.124C1061.99 462.976 1091.3 443.338 1121.95 426.302C1208.73 378.062 1292.1 426.943 1352.31 372.382C1413.85 316.306 1422.33 251.668 1414.43 210.761C1405.13 162.568 1356.61 67.372 1268.26 84.8098C1226.58 93.0373 1179.97 85.4147 1134.04 80.6944C1073.63 74.4861 1016.22 29.5452 1001.09 -32.0519C989.667 -78.5525 999.121 -131.647 983.68 -181.384C971.885 -219.376 949.33 -249.869 923.212 -270.489C894.638 -293.047 860.969 -305.986 825.079 -309.329" stroke="#E1E1E1" stroke-width="0.651413" stroke-miterlimit="10"/>
        <path d="M793.618 1241.04C751.887 1190.29 735.391 1108.04 760.652 1042.9C781.909 988.092 827.81 949.01 873.192 919.561C914.281 892.898 955.29 866.451 973.986 826.093C997.748 774.8 981.829 714.05 991.409 645.905C1000.14 583.767 1017.36 529.12 1049.43 486.086C1070.36 457.984 1099.96 436.385 1131.43 418.411C1214.7 370.853 1295.53 414.786 1354.33 361.744C1413.83 307.743 1424.03 245.188 1417.05 203.972C1408.92 156.053 1362.3 63.3984 1278.08 78.5864C1237.03 85.9882 1191.1 76.0242 1145.64 71.106C1087.14 64.7751 1031.61 22.6466 1015.16 -35.8472C1002.48 -80.9385 1009.64 -133.116 994.585 -182.363C982.867 -220.687 961.529 -252.131 936.403 -274.313C908.483 -298.963 874.993 -314.38 838.653 -319.694" stroke="#DCDCDC" stroke-width="0.651413" stroke-miterlimit="10"/>
        <path d="M796.922 1240.84C755.272 1187.44 737.019 1103.96 762.275 1036.72C783.139 981.158 829.266 941.121 875.552 912.484C916.926 886.888 958.464 862.903 979.112 824.488C1005.32 775.723 994.036 715.489 1003.93 647.723C1013.13 584.758 1027.34 528.327 1058.21 483.043C1078.71 452.97 1108.62 429.449 1140.91 410.516C1220.7 363.724 1298.96 402.623 1356.35 351.103C1413.8 299.179 1425.71 238.71 1419.65 197.178C1412.7 149.541 1368.04 59.556 1287.88 72.3584C1247.39 78.8267 1202.22 66.6358 1157.24 61.5132C1100.65 55.0678 1046.94 15.7401 1029.22 -39.6471C1015.25 -83.3355 1020.16 -134.592 1005.49 -183.348C993.847 -222.005 973.735 -254.421 949.588 -278.144C922.337 -304.913 889.011 -322.781 852.224 -330.067" stroke="#D8D8D8" stroke-width="0.651413" stroke-miterlimit="10"/>
        <path d="M800.24 1240.65C758.669 1184.58 738.673 1099.89 763.909 1030.53C784.391 974.23 830.729 933.22 877.926 905.411C919.578 880.869 961.649 859.358 984.251 822.884C1012.91 776.645 1006.26 716.929 1016.47 649.543C1026.14 585.753 1037.29 527.514 1067.01 480.003C1087.06 447.943 1117.3 422.541 1150.4 402.623C1226.74 356.677 1302.4 390.463 1358.38 340.465C1413.78 290.616 1427.4 232.237 1422.27 190.389C1416.47 143.037 1373.84 55.8641 1297.71 66.1354C1257.68 71.536 1213.36 57.2573 1168.85 51.9254C1114.17 45.3738 1062.23 8.8419 1043.3 -43.442C1027.99 -85.7324 1030.7 -136.065 1016.4 -184.327C1004.85 -223.32 985.973 -256.73 962.786 -281.969C936.223 -310.881 903.043 -331.175 865.806 -340.431" stroke="#D4D4D4" stroke-width="0.651413" stroke-miterlimit="10"/>
        <path d="M803.545 1240.45C762.056 1181.72 740.327 1095.83 765.533 1024.34C785.643 967.306 832.174 925.305 880.287 898.336C922.211 874.836 964.817 855.81 989.378 821.278C1020.47 777.562 1018.48 718.37 1029 651.361C1039.14 586.747 1047.21 526.686 1075.79 476.961C1095.37 442.903 1125.99 415.655 1159.88 394.728C1232.8 349.695 1305.83 378.302 1360.4 329.823C1413.75 282.05 1429.06 225.764 1424.88 183.594C1420.22 136.53 1379.58 68.4951 1307.52 59.9062C1267.93 55.1875 1224.48 47.8772 1180.45 42.3312C1127.68 35.6814 1077.44 1.94558 1057.37 -47.2431C1040.68 -88.134 1041.23 -137.546 1027.3 -185.313C1015.83 -224.642 998.217 -259.061 975.973 -285.801C950.12 -316.878 917.064 -339.579 879.379 -350.805" stroke="#CFCFCF" stroke-width="0.651413" stroke-miterlimit="10"/>
        <path d="M806.849 1240.25C765.44 1178.86 741.993 1091.76 767.156 1018.15C786.902 960.383 833.611 917.376 882.646 891.261C924.839 868.791 967.983 852.259 994.505 819.673C1028.03 778.476 1030.71 719.812 1041.52 653.179C1052.15 587.741 1057.1 525.847 1084.57 473.919C1103.65 437.855 1134.68 408.799 1169.35 386.834C1238.89 342.777 1309.34 366.263 1362.42 319.184C1413.8 273.605 1430.7 219.294 1427.49 176.804C1423.95 130.028 1384.93 65.0008 1317.32 53.6798C1278.36 47.1559 1235.6 38.5065 1192.05 32.7381C1141.18 26.0001 1092.59 -4.93172 1071.43 -51.0433C1053.32 -90.5214 1051.76 -139.028 1038.2 -186.297C1026.82 -225.963 1010.48 -261.406 989.156 -289.63C964.034 -322.889 931.081 -347.979 892.948 -361.175" stroke="#CBCBCB" stroke-width="0.651413" stroke-miterlimit="10"/>
        <path d="M810.169 1240.05C768.842 1176 743.685 1087.71 768.792 1011.96C788.184 953.467 835.06 909.433 885.022 884.188C927.478 862.737 971.161 848.708 999.646 818.07C1035.61 779.39 1042.96 721.258 1054.07 655.001C1065.18 588.742 1066.97 525.006 1093.37 470.88C1111.94 432.805 1143.41 401.978 1178.84 378.943C1245.03 335.92 1312.79 354.107 1364.45 308.548C1413.79 265.044 1432.35 212.827 1430.11 170.017C1427.68 123.533 1390.29 61.324 1327.15 47.4588C1288.81 39.04 1246.74 29.1496 1203.67 23.1522C1154.7 16.3341 1107.69 -11.7723 1085.51 -54.8361C1065.93 -92.8787 1062.31 -140.503 1049.12 -187.275C1037.83 -227.279 1022.77 -263.751 1002.36 -293.455C977.994 -328.906 945.116 -356.373 906.534 -371.541" stroke="#C7C7C7" stroke-width="0.651413" stroke-miterlimit="10"/>
        <path d="M813.466 1239.85C772.219 1173.14 745.366 1083.65 770.408 1005.78C789.452 946.55 836.481 901.475 887.375 877.115C930.092 856.669 974.315 845.151 1004.76 816.466C1043.16 780.297 1055.19 722.704 1066.58 656.82C1078.19 589.743 1076.81 524.161 1102.15 467.84C1120.19 427.75 1152.13 395.19 1188.31 371.05C1251.17 329.112 1316.2 341.947 1366.46 297.908C1413.75 256.478 1433.96 206.357 1432.71 163.225C1431.38 117.028 1395.65 57.4518 1336.95 41.2322C1299.23 30.812 1257.85 19.7951 1215.26 13.5606C1168.19 6.6722 1122.7 -18.5795 1099.57 -58.6348C1078.45 -95.2091 1072.84 -141.986 1060.01 -188.258C1048.82 -228.601 1035.06 -266.109 1015.54 -297.283C991.95 -334.934 959.126 -364.772 920.096 -381.909" stroke="#C2C2C2" stroke-width="0.651413" stroke-miterlimit="10"/>
        <path d="M816.784 1239.65C775.618 1170.29 747.08 1079.6 772.043 999.59C790.746 939.638 837.919 893.502 889.748 870.04C932.722 850.588 977.488 841.591 1009.9 814.861C1050.73 781.2 1067.44 724.15 1079.12 658.639C1091.22 590.744 1086.63 523.318 1110.94 464.798C1128.43 422.692 1160.9 388.439 1197.8 363.155C1257.36 322.346 1319.64 329.781 1368.49 287.268C1413.73 247.907 1435.57 199.884 1435.33 156.433C1435.08 110.523 1401.08 53.3905 1346.77 35.0061C1309.72 22.4636 1268.98 10.4494 1226.87 3.96967C1181.71 -2.98091 1137.67 -25.3353 1113.65 -62.4328C1090.95 -97.4882 1083.4 -143.467 1070.93 -189.24C1059.84 -229.925 1047.4 -268.466 1028.74 -301.112C1005.95 -340.971 973.161 -373.171 933.682 -392.278" stroke="#BEBEBE" stroke-width="0.651413" stroke-miterlimit="10"/>
        <path d="M820.086 1239.45C779.001 1167.42 748.789 1075.55 773.662 993.4C792.032 932.724 839.337 885.51 892.104 862.965C935.334 844.494 980.644 838.024 1015.03 813.256C1058.28 782.097 1079.69 725.6 1091.64 660.458C1104.25 591.747 1096.43 522.476 1119.72 461.757C1136.65 417.637 1169.68 381.738 1207.27 355.262C1263.56 315.622 1323.06 317.614 1370.51 276.629C1413.68 239.336 1437.16 193.411 1437.94 149.644C1438.75 104.016 1406.56 49.1521 1356.57 28.7827C1320.23 13.9741 1280.1 1.1178 1238.47 -5.61859C1195.2 -12.6199 1152.59 -32.0246 1127.71 -66.2281C1103.37 -99.7008 1093.94 -144.949 1081.82 -190.218C1070.84 -231.245 1059.72 -270.82 1041.92 -304.935C1019.96 -347.001 987.175 -381.564 947.247 -402.643" stroke="#BABABA" stroke-width="0.651413" stroke-miterlimit="10"/>
        <path d="M823.398 1239.25C782.393 1164.57 750.52 1071.51 775.292 987.213C793.335 925.812 840.764 877.506 894.473 855.891C937.958 838.391 983.775 834.378 1020.16 811.651C1065.8 782.892 1091.95 727.049 1104.18 662.277C1117.3 592.751 1106.22 521.64 1128.51 458.715C1144.86 412.581 1178.5 375.084 1216.76 347.367C1269.81 308.93 1326.42 305.341 1372.54 265.988C1413.6 230.671 1438.74 186.928 1440.55 142.849C1442.42 97.4993 1412.16 44.7462 1366.39 22.5538C1330.85 5.31872 1291.22 -8.20798 1250.08 -15.2125C1208.71 -22.2546 1167.47 -38.646 1141.79 -70.029C1115.75 -101.837 1104.5 -146.436 1092.73 -191.204C1081.85 -232.572 1072.08 -273.177 1055.11 -308.767C1034 -353.041 1001.2 -389.968 960.825 -413.016" stroke="#B5B5B5" stroke-width="0.651413" stroke-miterlimit="10"/>
        <path d="M826.713 1239.05C785.789 1161.71 752.264 1067.47 776.925 981.025C794.648 918.902 842.193 869.484 896.843 848.817C940.581 832.277 986.958 830.823 1025.3 810.047C1073.38 783.801 1104.22 728.502 1116.71 664.096C1130.36 593.758 1115.99 520.811 1137.31 455.675C1153.06 407.53 1187.37 368.493 1226.25 339.474C1276.09 302.272 1329.86 293.181 1374.57 255.35C1413.58 222.108 1440.31 180.443 1443.17 136.06C1446.08 90.9833 1417.9 40.2134 1376.21 16.3303C1341.59 -3.50274 1302.35 -17.5151 1261.69 -24.8025C1222.22 -31.8757 1182.34 -45.1801 1155.86 -73.8261C1128.09 -103.873 1115.07 -147.921 1103.64 -192.185C1092.87 -233.898 1084.45 -275.527 1068.31 -312.593C1048.06 -359.071 1015.23 -398.364 974.405 -423.384" stroke="#B1B1B1" stroke-width="0.651413" stroke-miterlimit="10"/>
        <path d="M830.014 1238.86C789.171 1158.85 754.005 1063.43 778.544 974.837C795.953 911.99 843.607 861.445 899.199 841.742C943.191 826.151 990.127 827.267 1030.42 808.441C1080.94 784.709 1116.59 729.982 1129.24 665.916C1143.53 594.8 1125.74 519.99 1146.09 452.634C1161.24 402.483 1196.27 361.969 1235.72 331.58C1282.38 295.636 1333.29 281.02 1376.58 244.71C1413.54 213.545 1441.85 173.951 1445.78 129.27C1449.7 84.5884 1423.81 35.5861 1386.02 10.1056C1352.48 -12.5038 1313.46 -26.8072 1273.28 -34.3922C1235.71 -41.485 1197.18 -51.6239 1169.92 -77.6228C1140.39 -105.797 1125.69 -149.429 1114.54 -193.166C1103.96 -235.246 1096.83 -277.87 1081.49 -316.421C1062.12 -365.098 1029.25 -406.762 987.972 -433.752" stroke="#ADADAD" stroke-width="0.651413" stroke-miterlimit="10"/>
        <path d="M833.32 1238.66C792.558 1155.99 755.874 1059.43 780.168 968.652C797.348 905.11 845.027 853.394 901.563 834.669C945.811 820.014 993.305 823.711 1035.55 806.839C1088.52 785.62 1128.81 731.428 1141.77 667.738C1156.54 595.801 1135.48 519.178 1154.88 449.597C1169.41 397.44 1205.24 355.526 1245.2 323.69C1288.72 289.024 1336.72 268.863 1378.6 234.075C1413.52 204.984 1443.39 167.455 1448.39 122.481C1453.35 77.9243 1429.93 30.9234 1395.83 3.88135C1363.6 -21.6727 1324.57 -36.0825 1284.89 -43.9814C1249.21 -51.0841 1212.04 -57.9725 1183.99 -81.4191C1152.67 -107.604 1136.22 -150.903 1125.45 -194.147C1114.95 -236.562 1109.22 -280.204 1094.68 -320.247C1076.21 -371.116 1043.27 -415.158 1001.55 -444.119" stroke="#A8A8A8" stroke-width="0.651413" stroke-miterlimit="10"/>
        <path d="M836.64 1238.46C795.958 1153.13 757.54 1055.35 781.805 962.463C798.6 898.171 846.458 845.323 903.937 827.594C948.441 813.868 996.489 820.155 1040.69 805.234C1096.11 786.525 1141.04 732.87 1154.3 669.556C1169.55 596.798 1145.23 518.37 1163.67 446.554C1177.58 392.399 1214.28 349.169 1254.69 315.794C1295.1 282.42 1340.16 256.7 1380.64 223.432C1413.5 196.418 1444.92 160.942 1451.01 115.688C1456.98 71.3775 1436.32 26.2879 1405.65 -2.34665C1374.99 -30.9812 1335.69 -45.3418 1296.5 -53.5742C1262.71 -60.6736 1226.94 -64.2298 1198.07 -85.2189C1164.97 -109.288 1146.76 -152.38 1136.36 -195.131C1125.95 -237.883 1121.62 -282.536 1107.88 -324.078C1090.32 -377.133 1057.3 -423.56 1015.13 -454.49" stroke="#A4A4A4" stroke-width="0.651413" stroke-miterlimit="10"/>
      </g>
      <g style="mix-blend-mode:multiply">
        <path d="M-467.031 -121.53C-433.141 -158.013 -397.304 -192.211 -359.778 -223.877C-343.096 -237.956 -325.621 -251.786 -305.527 -258.075C-254.161 -274.148 -201.85 -237.483 -162.533 -196.992C-126.322 -159.698 -94.0735 -117.544 -66.6946 -71.7122C-39.5614 -26.2935 -16.679 23.4214 19.1222 60.4805C54.9233 97.5396 108.76 119.612 152.94 96.6673C179.225 83.016 198.234 55.2823 208.668 24.9177C219.102 -5.44691 221.795 -38.4544 222.41 -70.9988C223.116 -108.261 221.647 -147.585 237.493 -180.32C253.897 -214.208 288.845 -235.551 323.06 -232.581C371.738 -228.354 407.633 -182.315 443.082 -144.573C488.117 -96.6243 542.998 -56.5289 604.549 -47.9109C666.099 -39.2909 734.476 -68.4911 763.417 -130.166" stroke="#8A8A8A" stroke-width="0.791667" stroke-miterlimit="10"/>
        <path d="M-463.012 -106.182C-429.726 -142.081 -394.398 -175.565 -357.354 -206.399C-340.89 -220.105 -323.648 -233.528 -303.898 -239.722C-264.227 -252.161 -223.949 -233.379 -189.565 -205.999C-180.194 -198.546 -171.257 -190.454 -162.89 -182.182C-126.905 -146.581 -94.7114 -106.11 -67.2016 -61.9476C-39.9464 -18.1841 -16.9527 30.0663 18.601 65.9789C38.5333 86.112 63.4148 102.215 89.3161 109.528C111.88 115.887 135.364 115.443 156.677 104.789C160.484 102.887 164.148 100.695 167.667 98.2371C189.348 83.0955 205.084 58.1418 214.582 31.2188C217.631 22.571 220.097 13.7185 222.109 4.75479C227.362 -18.663 229.649 -42.9888 231.049 -66.9253C233.311 -104.894 234.455 -144.024 251.566 -176.423C268.561 -208.6 302.13 -229.425 335.562 -226.712C383.13 -222.856 418.528 -179.146 453.426 -143.656C456.176 -140.859 458.964 -138.093 461.785 -135.362C504.439 -94.0887 554.958 -61.1409 610.707 -54.82C670.142 -48.0758 735.673 -77.6356 763.071 -138.093" stroke="#909090" stroke-width="0.791667" stroke-miterlimit="10"/>
        <path d="M-458.996 -90.8342C-426.316 -126.149 -391.494 -158.92 -354.933 -188.921C-338.684 -202.256 -321.677 -215.271 -302.272 -221.37C-263.307 -233.612 -223.707 -215.999 -189.712 -190.017C-180.435 -182.943 -171.572 -175.251 -163.251 -167.371C-127.494 -133.463 -95.3531 -94.6753 -67.7144 -52.1815C-40.3354 -10.0733 -17.2038 36.6808 18.0724 71.4767C38.8337 91.9536 64.3355 108.651 90.9597 116.603C114.1 123.495 138.375 123.522 160.408 112.909C164.349 111.014 168.153 108.81 171.806 106.318C194.321 90.974 210.471 65.2392 220.491 37.5194C223.701 28.6311 226.336 19.5363 228.537 10.354C234.285 -13.6361 237.325 -38.5144 239.681 -62.8522C243.502 -101.529 247.205 -140.424 265.633 -172.525C283.13 -203.003 315.407 -223.295 348.057 -220.841C394.514 -217.354 429.416 -175.973 463.762 -142.735C466.47 -140.114 469.211 -137.527 471.985 -134.973C513.916 -96.4001 563.092 -66.2799 616.858 -61.7195C674.177 -56.8492 736.86 -86.7707 762.716 -146.011" stroke="#959595" stroke-width="0.791667" stroke-miterlimit="10"/>
        <path d="M-454.977 -75.4861C-422.901 -110.216 -388.588 -142.274 -352.508 -171.442C-336.477 -184.406 -319.701 -197.016 -300.642 -203.017C-262.382 -215.065 -223.461 -198.62 -189.855 -174.035C-180.673 -167.343 -171.885 -160.048 -163.607 -152.561C-128.077 -120.345 -95.9892 -83.2417 -68.2214 -42.4151C-40.7187 -1.96402 -17.4228 43.27 17.5494 76.9749C39.1468 97.7916 65.262 115.089 92.6074 123.681C116.324 131.105 141.391 131.606 164.143 121.032C168.22 119.143 172.16 116.925 175.95 114.402C199.3 98.8526 215.86 72.339 226.404 43.8224C229.774 34.6937 232.579 25.3563 234.969 15.9555C241.212 -8.60883 245.005 -34.0375 248.317 -58.7767C253.696 -98.1607 259.903 -136.788 279.705 -168.627C297.617 -197.427 328.69 -217.165 360.555 -214.971C405.904 -211.852 440.309 -172.804 474.102 -141.817C476.766 -139.375 479.462 -136.964 482.187 -134.59C523.395 -98.715 571.228 -71.4226 623.011 -68.6247C678.214 -65.6302 738.052 -95.9113 762.362 -153.934" stroke="#9B9B9B" stroke-width="0.791667" stroke-miterlimit="10"/>
        <path d="M-450.961 -60.1374C-419.49 -94.2835 -385.685 -125.63 -350.087 -153.964C-334.271 -166.554 -317.73 -178.758 -299.014 -184.664C-261.46 -196.515 -223.217 -181.238 -190 -158.053C-180.912 -151.742 -172.198 -144.845 -163.968 -137.751C-128.664 -107.227 -96.6313 -71.8076 -68.7327 -32.6501C-41.1081 6.14573 -17.6213 49.8317 17.0222 82.4736C39.4662 103.62 66.184 121.526 94.2505 130.758C118.546 138.712 144.403 139.686 167.874 129.154C172.087 127.268 176.163 125.041 180.089 122.485C204.274 106.732 221.247 79.4393 232.312 50.1258C235.844 40.7548 238.818 31.177 241.397 21.5575C248.133 -3.57906 252.683 -29.5582 256.948 -54.7007C263.885 -94.7921 272.537 -133.131 293.769 -164.726C312.013 -191.875 341.966 -211.033 373.046 -209.097C417.285 -206.347 451.193 -169.628 484.435 -140.893C487.056 -138.627 489.706 -136.396 492.384 -134.2C532.869 -101.026 579.356 -76.5607 629.158 -75.5254C682.246 -74.4047 739.236 -105.048 762.003 -161.854" stroke="#A0A0A0" stroke-width="0.791667" stroke-miterlimit="10"/>
        <path d="M-446.945 -44.7887C-416.079 -78.3505 -382.781 -108.983 -347.665 -136.485C-332.067 -148.703 -315.76 -160.5 -297.388 -166.311C-260.537 -177.967 -222.975 -163.857 -190.146 -142.07C-181.152 -136.141 -172.511 -129.641 -164.327 -122.941C-129.251 -94.11 -97.2713 -60.3733 -69.2437 -22.885C-41.4954 14.2555 -17.7982 56.3678 16.497 87.9703C39.7965 109.441 67.1083 127.962 95.8959 137.834C120.767 146.321 147.416 147.766 171.605 137.276C175.954 135.396 180.166 133.157 184.228 130.567C209.249 114.611 226.635 86.5397 238.222 56.4294C241.915 46.8179 245.061 36.9977 247.827 27.1596C255.058 1.44877 260.315 -25.0927 265.582 -50.6247C274.002 -91.4434 285.117 -129.462 307.838 -160.826C326.333 -186.354 355.245 -204.902 385.542 -203.227C428.671 -200.846 462.083 -166.456 494.773 -139.974C497.35 -137.887 499.955 -135.833 502.586 -133.816C542.349 -103.342 587.492 -81.7027 635.312 -82.43C686.284 -83.1851 740.429 -114.188 761.651 -169.776" stroke="#A6A6A6" stroke-width="0.791667" stroke-miterlimit="10"/>
        <path d="M-442.934 -29.4432C-412.674 -62.4209 -379.883 -92.3404 -345.248 -119.009C-329.865 -130.856 -313.791 -142.246 -295.766 -147.961C-259.62 -159.42 -222.737 -146.481 -190.296 -126.093C-181.399 -120.543 -172.83 -114.443 -164.692 -108.134C-129.842 -80.9961 -97.915 -48.9425 -69.7584 -13.1234C-41.8863 22.362 -17.9576 62.8766 15.9665 93.4638C40.1303 115.25 68.0271 134.396 97.5376 144.907C122.987 153.927 150.426 155.842 175.334 145.394C179.819 143.518 184.169 141.269 188.365 138.646C214.221 122.485 232.02 93.6347 244.129 62.7276C247.982 52.8756 251.298 42.813 254.253 32.7564C261.979 6.47125 267.985 -20.6226 274.212 -46.554C284.185 -88.0861 297.63 -125.801 321.904 -156.931C340.576 -180.877 368.522 -198.775 398.034 -197.358C440.054 -195.347 472.968 -163.285 505.107 -139.055C507.642 -137.145 510.2 -135.269 512.782 -133.431C551.823 -105.658 595.622 -86.8461 641.459 -89.3359C690.315 -91.9648 741.614 -123.329 761.292 -177.702" stroke="#ABABAB" stroke-width="0.791667" stroke-miterlimit="10"/>
        <path d="M-438.918 -14.0948C-409.262 -46.4883 -376.979 -75.6964 -342.827 -101.53C-327.661 -113.006 -311.821 -123.988 -294.138 -129.608C-258.698 -140.872 -222.494 -129.099 -190.441 -110.11C-181.637 -104.942 -173.143 -99.2394 -165.051 -93.3239C-130.429 -67.8773 -98.5553 -37.5087 -70.2679 -3.35861C-42.2738 30.4694 -18.096 69.3687 15.441 98.9622C40.478 121.055 68.951 140.832 99.1827 151.984C125.208 161.536 153.439 163.922 179.066 153.516C183.688 151.646 188.174 149.385 192.505 146.728C219.196 130.362 237.407 100.733 250.038 69.0288C254.052 58.9364 257.537 48.6314 260.682 38.3562C268.901 11.4988 275.66 -16.1515 282.843 -42.4803C294.369 -84.7257 310.082 -122.15 335.969 -153.031C354.749 -175.436 381.8 -192.644 410.527 -191.485C451.436 -189.842 483.854 -160.111 515.442 -138.134C517.932 -136.402 520.445 -134.705 522.979 -133.045C561.298 -107.97 603.754 -91.9886 647.608 -96.2389C694.349 -100.743 742.8 -132.467 760.935 -185.624" stroke="#B1B1B1" stroke-width="0.791667" stroke-miterlimit="10"/>
        <path d="M-434.902 1.25372C-405.851 -30.5575 -374.077 -59.0503 -340.405 -84.0517C-325.456 -95.1556 -309.848 -105.731 -292.512 -111.255C-257.777 -122.323 -222.285 -111.645 -190.588 -94.1282C-181.888 -89.3215 -173.457 -84.0358 -165.412 -78.5137C-131.016 -54.7602 -99.197 -26.0746 -70.7805 6.4062C-42.6627 38.5791 -18.2214 75.8409 14.9144 104.459C40.8333 126.845 69.8755 147.268 100.827 159.06C127.428 169.144 156.451 172.002 182.798 161.635C187.554 159.771 192.178 157.498 196.644 154.807C224.17 138.239 242.793 107.831 255.946 75.3282C260.121 64.9953 263.777 54.4479 267.11 43.9521C275.824 16.5204 283.334 -11.6822 291.475 -38.4104C304.559 -81.3672 322.474 -118.53 350.035 -149.139C368.861 -170.045 395.075 -186.522 423.02 -185.622C462.819 -184.348 494.741 -156.946 525.776 -137.22C528.225 -135.666 530.692 -134.146 533.177 -132.666C570.774 -110.291 611.885 -97.1347 653.756 -103.148C698.38 -109.526 743.986 -141.61 760.576 -193.55" stroke="#B7B7B7" stroke-width="0.791667" stroke-miterlimit="10"/>
        <path d="M-430.879 16.6015C-402.434 -14.6255 -371.165 -42.4049 -337.976 -66.5738C-323.244 -77.306 -307.87 -87.474 -290.879 -92.9027C-256.847 -103.776 -222.035 -94.2578 -190.727 -78.1466C-182.123 -73.7174 -173.764 -68.8331 -165.765 -63.7044C-131.595 -41.6438 -99.8293 -14.6414 -71.2838 16.1703C-43.0423 46.6879 -18.3217 82.2925 14.3951 109.955C41.2049 132.623 70.8056 153.702 102.48 166.134C129.659 176.751 159.472 180.079 186.538 169.754C191.431 167.894 196.191 165.609 200.793 162.889C229.155 146.116 248.189 114.928 261.866 81.6288C266.202 71.0535 270.027 60.2657 273.55 49.5514C282.759 21.5474 291.023 -7.20774 300.119 -34.3373C314.76 -78.0055 334.814 -114.947 364.114 -145.24C382.929 -164.694 408.366 -180.392 435.526 -179.75C474.215 -178.846 505.64 -153.773 536.124 -136.3C538.528 -134.923 540.949 -133.582 543.389 -132.279C580.263 -112.604 620.028 -102.276 659.918 -110.051C702.427 -118.305 745.185 -150.749 760.234 -201.473" stroke="#BCBCBC" stroke-width="0.791667" stroke-miterlimit="10"/>
        <path d="M-426.867 31.9499C-399.027 1.3071 -368.267 -25.759 -335.559 -49.0933C-321.042 -59.4539 -305.903 -69.2145 -289.257 -74.5478C-255.93 -85.2244 -221.796 -76.8707 -190.878 -62.1623C-182.368 -58.1146 -174.085 -53.6278 -166.129 -48.8906C-132.188 -28.523 -100.475 -3.20361 -71.7985 25.9409C-43.4351 54.8033 -18.4228 88.7328 13.8645 115.459C41.574 138.396 71.7243 160.147 104.12 173.218C131.875 184.365 162.48 188.167 190.263 177.883C195.292 176.03 200.19 173.732 204.927 170.978C234.123 154.001 253.571 122.035 267.769 87.938C272.266 77.1223 276.261 66.092 279.972 55.159C289.674 26.5808 298.696 -2.72673 308.746 -30.2558C324.947 -74.6333 347.076 -111.412 378.176 -141.335C396.933 -159.384 421.639 -174.255 448.014 -173.874C485.594 -173.339 516.522 -150.597 546.455 -135.374C548.816 -134.174 551.192 -133.012 553.581 -131.887C589.733 -114.913 628.155 -107.41 666.063 -116.948C706.456 -127.076 746.369 -159.881 759.872 -209.387" stroke="#C2C2C2" stroke-width="0.791667" stroke-miterlimit="10"/>
        <path d="M-422.848 47.2982C-395.612 17.2396 -365.359 -9.1151 -333.135 -31.6149C-318.836 -41.6039 -303.929 -50.9571 -287.627 -56.1951C-255.005 -66.677 -221.548 -59.4877 -191.021 -46.1802C-182.606 -42.512 -174.396 -38.4246 -166.486 -34.0808C-132.771 -15.4042 -101.113 8.23015 -72.3073 35.7055C-43.8202 62.9107 -18.5057 95.1491 13.3415 120.955C41.9613 144.147 72.6506 166.581 105.767 180.292C134.101 191.972 165.495 196.244 193.998 186.003C199.163 184.155 204.197 181.846 209.07 179.058C239.102 161.877 258.962 129.13 273.682 94.237C278.339 83.1809 282.503 71.9082 286.403 60.7567C296.599 31.6061 306.376 1.7463 317.379 -26.1842C335.14 -71.2711 359.283 -107.957 392.244 -137.439C410.902 -154.128 434.917 -168.128 460.509 -168.004C496.978 -167.837 527.41 -147.426 556.791 -134.456C559.109 -133.435 561.44 -132.449 563.782 -131.504C599.212 -117.23 636.289 -112.555 672.214 -123.855C710.492 -135.859 747.557 -169.024 759.517 -217.314" stroke="#C7C7C7" stroke-width="0.791667" stroke-miterlimit="10"/>
        <path d="M-418.832 62.6446C-392.203 33.1702 -362.455 7.52889 -330.714 -14.1382C-316.63 -23.7557 -301.958 -32.7016 -286.001 -37.8461C-254.085 -48.1313 -221.304 -42.1084 -191.168 -30.2018C-182.847 -26.9132 -174.711 -23.2252 -166.849 -19.2749C-133.361 -2.29132 -101.754 19.6601 -72.82 45.4663C-44.2091 71.0162 -18.5818 101.546 12.8129 126.448C42.3535 149.88 73.5714 173.013 107.409 187.364C136.319 199.577 168.505 204.32 197.728 194.12C203.028 192.276 208.198 189.957 213.208 187.136C244.074 169.751 264.347 136.226 279.589 100.535C284.407 89.2377 288.741 77.7226 292.829 66.3525C303.521 36.6277 314.101 6.24323 326.009 -22.1144C345.409 -67.869 371.427 -104.59 406.308 -133.546C424.835 -148.926 448.193 -162.003 473 -162.14C508.361 -162.343 538.294 -144.26 567.124 -133.542C569.399 -132.697 571.682 -131.891 573.977 -131.124C608.684 -119.549 644.418 -117.703 678.359 -130.764C714.521 -144.642 748.74 -178.168 759.156 -225.24" stroke="#CDCDCD" stroke-width="0.791667" stroke-miterlimit="10"/>
        <path d="M-414.824 77.9921C-388.799 49.1019 -359.561 24.174 -328.3 3.33936C-314.434 -5.90654 -299.995 -14.445 -284.383 -19.4942C-253.17 -29.5846 -221.067 -24.7302 -191.323 -14.2225C-183.095 -11.3154 -175.033 -8.02474 -167.217 -4.46786C-133.956 10.8228 -102.404 31.091 -73.339 55.2281C-44.6062 79.1228 -18.6572 107.928 12.278 131.943C42.7483 155.598 74.486 179.447 109.047 194.437C138.532 207.182 171.511 212.397 201.453 202.239C206.89 200.401 212.196 198.07 217.341 195.214C249.043 177.625 269.727 143.322 285.491 106.835C290.47 95.2957 294.976 83.54 299.251 71.9514C310.436 41.6543 321.772 10.7174 334.636 -18.0416C355.595 -64.5036 383.511 -101.322 420.369 -129.648C438.739 -143.766 461.466 -155.874 485.488 -156.269C519.739 -156.841 549.177 -141.088 577.454 -132.621C579.685 -131.953 581.924 -131.325 584.171 -130.737C618.155 -121.863 652.544 -122.842 684.504 -137.666C718.55 -153.419 749.924 -187.305 758.795 -233.161" stroke="#D2D2D2" stroke-width="0.791667" stroke-miterlimit="10"/>
        <path d="M-410.805 93.3408C-385.384 65.0348 -356.653 40.8182 -325.875 20.8182C-312.225 11.9439 -298.019 3.81276 -282.751 -1.14104C-252.244 -11.0347 -220.815 -7.35266 -191.464 1.7601C-183.33 4.28568 -175.342 7.17888 -167.572 10.3443C-134.537 23.9439 -103.04 42.5272 -73.846 64.9951C-44.9895 87.2326 -18.7099 114.301 11.7551 137.442C43.164 161.299 75.4124 185.885 110.694 201.516C140.758 214.793 174.526 220.478 205.186 210.362C210.757 208.53 216.203 206.185 221.481 203.298C254.017 185.506 275.114 150.422 291.402 113.138C296.54 101.359 301.217 89.3587 305.682 77.5534C317.362 46.6821 329.452 15.1968 343.27 -13.9656C365.787 -61.135 395.548 -98.1703 434.439 -125.747C452.634 -138.649 474.746 -149.743 497.985 -150.397C531.126 -151.339 560.067 -137.914 587.793 -131.7C589.981 -131.211 592.173 -130.76 594.372 -130.351C627.635 -124.177 660.678 -127.984 690.656 -144.571C722.586 -162.198 751.112 -196.445 758.44 -241.083" stroke="#D8D8D8" stroke-width="0.791667" stroke-miterlimit="10"/>
        <path d="M-406.781 108.69C-381.965 80.968 -353.743 57.4648 -323.446 38.2974C-310.013 29.7946 -296.041 22.0708 -281.117 17.2124C-251.315 7.51339 -220.562 10.0251 -191.601 17.7429C-183.561 19.885 -175.648 22.3828 -167.924 25.1548C-135.117 37.0614 -103.671 53.9615 -74.3475 74.7603C-45.3672 95.3425 -18.7519 120.658 11.2394 142.939C43.5992 166.981 76.3462 192.322 112.349 208.592C142.989 222.4 177.549 228.558 208.928 218.484C214.636 216.656 220.217 214.301 225.631 211.382C259.004 193.385 280.513 157.524 297.322 119.442C302.621 107.422 307.468 95.1796 312.122 83.1557C324.296 51.7121 337.139 19.6744 351.912 -9.88942C375.987 -57.7662 407.545 -95.1551 448.516 -121.848C466.525 -133.579 488.034 -143.612 510.489 -144.524C542.52 -145.834 570.965 -134.74 598.139 -130.778C600.283 -130.466 602.43 -130.194 604.581 -129.963C637.121 -126.49 668.822 -133.122 696.818 -151.471C726.632 -170.974 752.313 -205.581 758.096 -249.003" stroke="#DEDEDE" stroke-width="0.791667" stroke-miterlimit="10"/>
        <path d="M-402.762 124.037C-378.552 96.8999 -350.835 74.1101 -321.021 55.7753C-307.803 47.6441 -294.066 40.3257 -279.488 35.5647C-250.391 26.0624 -220.313 27.3978 -191.744 33.7246C-183.797 35.4852 -175.96 37.5855 -168.28 39.964C-135.7 50.1776 -104.308 65.3947 -74.8546 84.5244C-45.7523 103.451 -18.794 127 10.7165 148.437C44.0379 172.641 77.2725 198.758 113.998 215.668C145.216 230.008 180.567 236.637 212.665 226.605C218.508 224.782 224.226 222.416 229.776 219.463C263.983 201.261 285.906 164.622 303.236 125.742C308.696 113.482 313.713 100.997 318.556 88.7549C331.223 56.737 344.821 24.1488 360.55 -5.81636C386.183 -54.4006 419.492 -92.2962 462.587 -117.95C480.408 -128.557 501.317 -137.483 522.987 -138.653C553.908 -140.332 581.856 -131.567 608.479 -129.858C610.579 -129.725 612.682 -129.63 614.784 -129.576C646.601 -128.803 676.958 -138.264 702.971 -158.375C730.669 -179.752 753.502 -214.721 757.744 -256.926" stroke="#E3E3E3" stroke-width="0.791667" stroke-miterlimit="10"/>
        <path d="M-398.75 139.385C-375.145 112.832 -347.937 90.7553 -318.603 73.2531C-305.603 65.4935 -292.098 58.5825 -277.864 53.9168C-249.47 44.6093 -220.068 44.7683 -191.893 49.7062C-184.04 51.0832 -176.277 52.7881 -168.643 54.7732C-136.291 63.2938 -104.952 76.8278 -75.3693 94.2883C-46.1433 111.56 -18.8386 133.329 10.1859 153.933C44.4793 178.277 78.1912 205.194 115.638 222.743C147.432 237.617 183.575 244.719 216.392 234.726C222.372 232.909 228.226 230.531 233.912 227.544C268.955 209.14 291.287 171.719 309.141 132.043C314.762 119.542 319.948 106.815 324.98 94.354C338.143 61.7618 352.495 28.6252 369.179 -1.74344C396.37 -51.035 431.395 -89.6062 476.651 -114.053C494.287 -123.579 514.591 -131.355 535.478 -132.785C565.289 -134.834 592.74 -128.4 618.811 -128.94C620.868 -128.984 622.924 -129.068 624.98 -129.193C656.076 -131.118 685.088 -143.408 709.117 -165.28C734.701 -188.533 754.688 -223.861 757.385 -264.849" stroke="#E9E9E9" stroke-width="0.791667" stroke-miterlimit="10"/>
        <path d="M-394.738 154.734C-371.738 128.762 -345.037 107.399 -316.186 90.7317C-303.402 83.3437 -290.131 76.8399 -276.242 72.2696C-248.554 63.1589 -219.821 62.0819 -192.044 65.6885C-184.283 66.6661 -176.596 67.9915 -169.008 69.5851C-136.881 76.4147 -105.596 88.2637 -75.8846 104.057C-46.5349 119.671 -18.8802 139.65 9.65649 159.433C44.9345 183.89 79.1112 211.632 117.279 229.821C149.65 245.227 186.584 252.8 220.119 242.847C226.235 241.035 232.227 238.646 238.047 235.626C273.924 217.017 296.671 178.817 315.046 138.344C320.827 125.601 326.183 112.633 331.404 99.9537C345.062 66.7893 360.167 33.1003 377.807 2.32825C406.556 -47.6707 443.273 -87.0984 490.715 -110.157C508.178 -118.643 527.866 -125.227 547.968 -126.916C576.669 -129.334 603.624 -125.229 629.143 -128.022C631.157 -128.243 633.168 -128.505 635.176 -128.809C665.549 -133.435 693.216 -148.551 715.264 -172.185C738.732 -197.312 755.871 -233.002 757.026 -272.774" stroke="#EEEEEE" stroke-width="0.791667" stroke-miterlimit="10"/>
        <path d="M-390.715 170.08C-368.32 144.693 -342.127 124.043 -313.757 108.208C-301.19 101.192 -288.151 95.0954 -274.608 90.6205C-247.625 81.7044 -219.571 79.461 -192.183 81.6687C-184.517 82.2648 -176.903 83.1928 -169.361 84.393C-137.461 89.5296 -106.23 99.6955 -76.3895 113.82C-46.916 127.779 -18.9079 145.953 9.13565 164.93C45.4088 189.472 80.0398 218.068 118.929 236.898C151.878 252.836 189.602 260.88 223.856 250.968C230.108 249.162 236.236 246.762 242.193 243.708C278.906 224.894 302.064 185.917 320.962 144.646C326.905 131.662 332.43 118.452 337.84 105.554C351.991 71.8147 367.851 37.5753 386.446 6.40198C416.753 -44.3064 455.146 -84.7814 504.788 -106.257C522.096 -113.745 541.152 -119.096 560.469 -121.045C588.06 -123.833 614.518 -122.057 639.486 -127.102C641.457 -127.501 643.422 -127.94 645.381 -128.423C675.031 -135.75 701.355 -153.693 721.42 -179.09C742.771 -206.092 757.065 -242.142 756.675 -280.696" stroke="#F4F4F4" stroke-width="0.791667" stroke-miterlimit="10"/>
        <path d="M-386.703 185.428C-364.913 160.626 -339.227 140.689 -311.339 125.687C-298.988 119.042 -286.184 113.353 -272.986 108.973C-246.708 100.252 -219.333 96.8421 -192.334 97.6488C-184.764 97.8634 -177.222 98.394 -169.727 99.2008C-138.055 102.644 -106.878 111.127 -76.9059 123.582C-47.3105 135.886 -18.9453 152.246 8.60327 170.424C45.8839 195.024 80.9569 224.5 120.569 243.97C154.094 260.441 192.61 268.955 227.584 259.086C233.97 257.285 240.236 254.871 246.328 251.787C283.876 232.771 307.447 193.013 326.867 150.945C332.97 137.72 338.665 124.268 344.265 111.151C358.911 76.8401 375.525 42.0502 395.074 10.4735C426.939 -40.9423 467.007 -82.671 518.85 -102.363C536.029 -108.888 554.423 -112.97 572.958 -115.178C599.439 -118.333 625.4 -118.887 649.817 -126.186C651.743 -126.762 653.663 -127.38 655.575 -128.042C684.504 -138.069 709.483 -158.838 727.566 -185.997C746.802 -214.874 758.251 -251.285 756.315 -288.622" stroke="#F9F9F9" stroke-width="0.791667" stroke-miterlimit="10"/>
        <path d="M-382.688 200.776C-333.46 144.5 -262.674 115.189 -192.481 113.633C-122.287 112.075 -52.8683 136.741 8.0777 175.924C46.3782 200.55 81.8806 230.94 122.214 251.05C162.547 271.159 210.163 280.055 250.466 259.872C300.906 234.612 326.48 172.546 350.693 116.755C390.512 25.0069 445.74 -69.8941 532.918 -98.4604C576.34 -112.688 623.797 -108.714 665.772 -127.653C723.97 -153.91 762.706 -226.45 755.958 -296.541" stroke="white" stroke-width="0.791667" stroke-miterlimit="10"/>
      </g>
      <g style="mix-blend-mode:multiply">
        <path d="M754.213 -103.923C743.548 -52.5531 730.142 -1.90234 714.092 47.6654C706.957 69.7002 699.038 92.0171 685.261 109.623C650.041 154.626 588.407 156.031 535.802 146.254C487.351 137.249 439.86 121.738 394.657 100.156C349.863 78.7692 306.542 51.1746 258.547 42.1135C210.554 33.0524 154.732 47.6197 128.871 93.9664C113.485 121.543 111.035 156.444 117.046 188.287C123.058 220.13 136.837 249.434 152.132 277.072C169.644 308.718 189.98 340.758 192.608 377.911C195.33 416.371 176.424 455.707 146.318 474.229C103.489 500.577 51.0537 484.051 3.02301 474.201C-57.9972 461.686 -123.448 461.799 -179.194 492.373C-234.94 522.946 -278.032 589.388 -272.314 658.823" stroke="white" stroke-width="0.791667" stroke-miterlimit="10"/>
        <path d="M743.39 -114.313C732.999 -64.0934 719.817 -14.6131 703.968 33.7505C696.922 55.2507 689.1 77.0014 675.674 94.2473C641.357 138.321 581.724 140.747 530.575 132.358C518.431 130.367 506.34 127.954 494.328 125.129C459.735 116.989 425.782 105.417 393.002 90.5851C349.234 70.7818 306.813 44.9318 259.915 36.6119C213.025 28.29 160.124 43.4852 132.814 86.5711C122.54 102.78 115.525 120.248 112.555 139.104C110.526 151.948 110.089 165.28 111.279 178.535C111.818 184.598 112.677 190.663 113.845 196.745C118.542 221.063 128.539 244.88 139.48 267.501C140.565 269.744 141.659 271.982 142.759 274.211C159.87 308.942 177.939 344.451 178.927 383.286C179.878 420.693 162.32 458.73 132.997 476.985C91.2764 502.963 40.3894 488.083 -6.08408 479.779C-9.74815 479.125 -13.4264 478.517 -17.1169 477.963C-72.8982 469.577 -131.225 472.999 -180.995 501.933C-234.058 532.777 -274.591 597.774 -268.171 665.242" stroke="#F9F9F9" stroke-width="0.791667" stroke-miterlimit="10"/>
        <path d="M732.571 -124.704C722.456 -75.6331 709.494 -27.3251 693.846 19.8363C686.891 40.802 679.169 61.9863 666.093 78.8725C632.681 122.016 575.044 125.464 525.354 118.461C513.554 116.8 501.8 114.73 490.113 112.256C456.457 105.13 423.364 94.6599 391.351 81.0126C348.61 62.7911 307.091 38.6878 261.287 31.109C215.5 23.5263 165.208 39.2839 136.76 79.1746C125.287 95.262 115.907 111.129 110.908 129.438C107.49 141.911 105.569 155.173 105.514 168.782C105.479 175.01 105.816 181.331 106.548 187.767C109.51 213.476 119.446 239.487 130.18 264.057C131.246 266.493 132.315 268.923 133.39 271.349C150.1 309.166 165.949 347.987 165.251 388.661C164.629 424.929 148.221 461.752 119.681 479.743C79.0681 505.346 29.7294 492.114 -15.1887 485.36C-18.729 484.828 -22.2835 484.343 -25.8468 483.908C-79.7103 477.34 -135.537 482.304 -182.792 511.498C-233.172 542.614 -271.145 606.165 -264.022 671.665" stroke="#F4F4F4" stroke-width="0.791667" stroke-miterlimit="10"/>
        <path d="M721.753 -135.094C711.913 -87.174 699.173 -40.0344 683.726 5.92082C676.859 26.3501 669.236 46.972 656.512 63.4966C624.005 105.71 568.365 110.179 520.131 104.564C508.676 103.235 497.258 101.504 485.896 99.3813C453.176 93.2691 420.943 83.9 389.697 71.439C347.983 54.8011 307.364 32.4424 262.658 25.6049C217.973 18.7614 169.992 34.9799 140.706 71.7747C127.957 87.7946 116.289 102.006 109.262 119.769C104.454 131.87 101.05 145.061 99.7487 159.024C99.1407 165.418 98.9552 171.994 99.2503 178.781C100.479 205.881 110.351 234.084 120.88 260.604C121.924 263.23 122.972 265.855 124.019 268.478C140.33 309.378 154.015 351.387 151.573 394.028C149.563 429.098 134.12 464.764 106.361 482.491C66.8587 507.723 19.0666 496.136 -24.2943 490.93C-27.7126 490.521 -31.1416 490.155 -34.5777 489.841C-86.5252 485.092 -139.851 491.6 -184.589 521.053C-232.286 552.44 -267.7 614.545 -259.875 678.078" stroke="#EEEEEE" stroke-width="0.791667" stroke-miterlimit="10"/>
        <path d="M710.928 -145.485C701.362 -98.7145 688.844 -52.7453 673.599 -7.99219C666.822 11.9025 659.296 31.9581 646.924 48.123C615.32 89.4066 561.68 94.897 514.904 90.6684C503.793 89.6689 492.711 88.282 481.674 86.5095C449.891 81.4126 418.517 73.1444 388.04 61.8677C347.352 46.8116 307.635 26.1995 264.023 20.1032C220.443 13.9988 174.498 30.5472 144.647 64.3793C130.545 80.3614 116.667 92.888 107.61 110.104C101.415 121.834 96.5256 134.954 93.9786 149.271C92.7961 155.831 92.0891 162.662 91.9494 169.804C91.4439 198.295 101.252 228.691 111.575 257.16C112.598 259.978 113.623 262.797 114.645 265.617C130.554 309.603 142.151 354.696 137.891 399.403C134.669 433.236 120.014 467.787 93.04 485.249C54.6459 510.11 8.40215 500.168 -33.4033 496.51C-36.6997 496.222 -40.0032 495.98 -43.3138 495.785C-93.3453 492.854 -144.172 500.904 -186.393 530.614C-231.406 562.273 -264.261 622.932 -255.734 684.498" stroke="#E9E9E9" stroke-width="0.791667" stroke-miterlimit="10"/>
        <path d="M700.114 -155.875C690.824 -110.254 678.527 -65.4568 663.485 -21.9059C656.799 -2.54573 649.37 16.9435 637.351 32.7488C606.652 73.1025 555.009 79.6141 509.69 76.7726C498.925 76.103 488.177 75.0578 477.468 73.6371C446.621 69.5536 416.106 62.3862 386.398 52.2977C346.736 38.8253 307.92 19.958 265.405 14.6028C222.928 9.23764 178.783 25.9709 148.602 56.9853C133.076 72.9396 117.059 83.7731 105.973 100.441C98.3885 111.801 92.0165 124.848 88.2234 139.519C86.4665 146.245 85.2381 153.331 84.6619 160.824C82.4224 190.704 92.1668 223.296 102.284 253.714C103.288 256.725 104.289 259.737 105.284 262.754C120.792 309.824 130.381 357.927 124.225 404.777C119.944 437.349 105.925 470.807 79.7323 488.004C42.4481 512.49 -2.24722 504.198 -42.4973 502.086C-45.67 501.921 -48.8498 501.798 -52.0331 501.724C-100.147 500.611 -148.474 510.205 -188.178 540.174C-230.509 572.105 -260.804 631.32 -251.576 690.916" stroke="#E3E3E3" stroke-width="0.791667" stroke-miterlimit="10"/>
        <path d="M689.286 -166.266C680.27 -121.795 668.196 -78.1664 653.356 -35.8216C646.76 -16.998 639.428 1.92703 627.761 17.3706C597.967 56.7944 548.321 64.3294 504.46 62.8728C494.04 62.533 483.628 61.8296 473.244 60.7606C443.334 57.6905 413.68 51.624 384.739 42.7218C346.104 30.8331 308.189 13.7104 266.769 9.09642C225.395 4.47049 182.845 21.2375 152.541 49.5853C135.523 65.5038 117.436 74.6503 104.319 90.7715C95.3454 101.76 87.4887 114.738 82.4513 129.762C80.1217 136.653 78.3701 143.994 77.3573 151.843C73.3839 183.113 83.0647 217.899 92.9769 250.267C93.9597 253.468 94.9371 256.677 95.9075 259.888C111.017 310.044 118.691 361.106 110.541 410.148C105.339 441.45 91.8192 473.824 66.4093 490.758C30.2334 514.873 -12.9136 508.226 -51.6082 507.662C-54.659 507.618 -57.7132 507.618 -60.7693 507.662C-106.967 508.367 -152.793 519.503 -189.982 549.732C-229.629 581.933 -257.365 639.703 -247.434 697.333" stroke="#DEDEDE" stroke-width="0.791667" stroke-miterlimit="10"/>
        <path d="M678.47 -176.656C669.729 -133.334 657.876 -90.8781 643.238 -49.7355C636.73 -31.4464 629.499 -13.0878 618.181 1.99612C589.293 40.4899 541.642 49.0463 499.239 48.9768C489.164 48.9688 479.086 48.6051 469.029 47.8878C440.056 45.8311 411.261 40.8675 383.088 33.1497C345.481 22.8427 308.465 7.46654 268.143 3.59372C227.872 -0.293015 182.193 10.7333 156.49 42.1869C135.706 54.0855 117.822 65.5291 102.676 81.1039C92.3128 91.7208 82.9732 104.627 76.6914 120.005C73.7874 127.063 71.5143 134.658 70.0649 142.861C64.3576 175.522 73.9765 212.502 83.6802 246.817C84.6417 250.211 85.598 253.613 86.5418 257.021C101.25 310.261 107.116 364.253 96.8677 415.518C90.8634 445.553 77.7219 476.842 53.095 493.509C18.0291 517.253 -23.5713 512.251 -60.7088 513.237C-63.6375 513.315 -66.5663 513.436 -69.4951 513.603C-113.775 516.126 -157.104 528.806 -191.774 559.294C-228.738 591.767 -253.915 648.09 -243.281 703.753" stroke="#D8D8D8" stroke-width="0.791667" stroke-miterlimit="10"/>
        <path d="M667.646 -187.047C659.181 -144.875 647.549 -103.589 633.112 -63.6506C626.694 -45.896 619.559 -28.1017 608.594 -13.3794C580.608 24.1844 534.958 33.7622 494.013 35.0796C484.283 35.4015 474.539 35.3797 464.807 35.0141C436.771 33.9708 408.835 30.1079 381.432 23.5764C344.851 14.8531 308.737 1.21975 269.509 -1.9099C230.342 -5.05744 186.11 5.46415 160.429 34.7895C137.984 46.0443 118.198 56.4089 101.023 71.4373C89.2712 81.6827 78.4487 94.5193 70.9208 110.251C67.4423 117.474 64.6478 125.325 62.7619 133.879C55.3206 167.932 64.8758 207.105 74.3745 243.37C75.3166 246.954 76.2481 250.551 77.1654 254.153C91.4735 310.479 95.6431 367.397 83.1838 420.888C76.4814 449.666 63.6156 479.856 39.7699 496.262C5.81226 519.632 -34.2398 516.277 -69.82 518.811C-72.6251 519.012 -75.4302 519.254 -78.2335 519.54C-120.598 523.882 -161.426 538.104 -193.581 568.852C-227.862 601.595 -250.477 656.474 -239.144 710.169" stroke="#D2D2D2" stroke-width="0.791667" stroke-miterlimit="10"/>
        <path d="M656.822 -197.437C648.631 -156.414 637.222 -116.298 622.986 -77.5643C616.659 -60.3462 609.622 -43.1162 599.008 -28.7536C571.928 7.8803 528.274 18.4794 488.785 21.1839C479.4 21.8356 469.993 22.1555 460.586 22.1416C433.487 22.1118 406.41 19.3518 379.775 14.0045C344.22 6.86293 309.007 -5.02384 270.876 -7.41232C232.813 -9.82066 190.03 0.194279 164.372 27.3935C140.265 38.0045 118.578 47.2921 99.3732 61.772C86.2335 71.6458 73.9244 84.4109 65.1522 100.496C61.0992 107.884 57.7834 115.992 55.4609 124.9C46.2857 160.343 55.7772 201.71 65.0709 239.924C65.9918 243.701 66.9003 247.491 67.7929 251.29C81.6998 310.7 84.298 370.559 69.5038 426.261C62.1898 453.798 49.5114 482.877 26.4505 499.016C-6.39889 522.014 -44.9026 520.307 -78.9274 524.387C-81.6105 524.709 -84.2901 525.072 -86.9661 525.478C-127.412 531.638 -165.741 547.403 -195.379 578.408C-226.977 611.423 -247.033 664.856 -234.996 716.583" stroke="#CDCDCD" stroke-width="0.791667" stroke-miterlimit="10"/>
        <path d="M646.001 -207.828C638.086 -167.955 626.897 -129.01 612.863 -91.4799C606.624 -74.7964 599.686 -58.1327 589.424 -44.1297C563.249 -8.42585 521.592 3.19462 483.562 7.28802C474.521 8.26963 465.45 8.93136 456.369 9.26917C430.206 10.2528 403.99 8.59353 378.122 4.43457C343.594 -1.12331 309.281 -11.2653 272.246 -12.9126C235.285 -14.5818 193.952 -5.07164 168.317 19.9974C142.548 29.9646 118.959 38.1733 97.7254 52.1067C83.1964 61.6109 69.4044 74.3044 59.3861 90.7435C54.7605 98.2984 50.9214 106.66 48.1623 115.92C37.2531 152.753 46.6811 196.315 55.768 236.478C56.6676 240.447 57.5532 244.433 58.4193 248.427C71.9249 310.922 73.0862 373.756 55.8228 431.636C47.9732 457.953 35.4079 485.899 13.1283 501.774C-18.6112 524.401 -55.5683 524.339 -88.0359 529.966C-90.5971 530.412 -93.1529 530.894 -95.6999 531.421C-134.23 539.399 -170.059 556.707 -197.18 587.971C-226.095 621.259 -243.592 673.245 -230.853 723.006" stroke="#C7C7C7" stroke-width="0.791667" stroke-miterlimit="10"/>
        <path d="M635.184 -218.218C627.543 -179.493 616.577 -141.721 602.744 -105.393C596.595 -89.2445 589.755 -73.1471 579.844 -59.5038C554.572 -24.7299 514.914 -12.088 478.343 -6.60764C469.646 -5.29418 460.911 -4.29263 452.157 -3.60312C426.931 -1.6061 401.574 -2.16447 376.473 -5.13715C342.972 -9.11132 309.56 -17.5088 273.621 -18.4149C237.763 -19.3448 197.879 -10.3414 172.266 12.6015C144.836 21.9249 119.346 29.0545 96.0822 42.4415C80.1638 51.5742 64.8889 64.1961 53.6245 80.9909C48.4244 88.7107 44.0639 97.3267 40.8683 106.943C28.2252 145.166 37.5913 190.923 46.4713 233.033C47.3498 237.194 48.2141 241.373 49.0537 245.563C62.1599 311.143 62.0255 377.013 42.1497 437.009C33.8282 462.13 21.3124 488.918 -0.184158 504.528C-30.8154 526.781 -66.2242 528.367 -97.1364 535.542C-99.5738 536.109 -102.006 536.715 -104.426 537.361C-141.038 547.157 -174.368 566.008 -198.972 597.531C-225.204 631.089 -240.141 681.631 -226.701 729.424" stroke="#C2C2C2" stroke-width="0.791667" stroke-miterlimit="10"/>
        <path d="M624.365 -228.609C616.999 -191.035 606.255 -154.431 592.623 -119.307C586.564 -103.693 579.823 -88.1596 570.263 -74.8779C545.895 -41.0339 508.235 -27.3707 473.12 -20.5034C464.768 -18.86 456.369 -17.5168 447.939 -16.4755C423.65 -13.4651 399.152 -12.9207 374.821 -14.7091C342.346 -17.1015 309.834 -23.7522 274.991 -23.9192C240.236 -24.1079 201.801 -15.6112 176.211 5.20351C147.119 13.8851 119.728 19.9337 94.4362 32.7743C77.1287 41.5353 60.369 54.0878 47.8603 71.2343C42.0858 79.121 37.2039 87.9914 33.5716 97.9606C19.1946 137.575 28.4971 185.523 37.1721 229.585C38.0311 233.937 38.8707 238.31 39.6855 242.698C52.3904 311.361 51.1178 380.345 28.4758 442.38C19.7337 466.334 7.21435 491.935 -13.4993 507.282C-43.0204 529.163 -76.8809 532.397 -106.237 541.118C-108.553 541.807 -110.859 542.533 -113.154 543.3C-147.85 554.914 -178.681 575.308 -200.768 607.091C-224.317 640.921 -236.695 690.016 -222.551 735.842" stroke="#BCBCBC" stroke-width="0.791667" stroke-miterlimit="10"/>
        <path d="M613.546 -238.999C606.454 -202.576 595.932 -167.142 582.503 -133.223C576.532 -118.145 569.89 -103.176 560.681 -90.2539C537.219 -57.3399 501.555 -42.6553 467.898 -34.401C459.891 -32.4278 451.828 -30.7427 443.724 -29.3498C420.371 -25.3259 396.732 -23.6807 373.17 -24.2827C341.72 -25.0915 310.111 -29.9976 276.364 -29.4233C242.714 -28.8729 208.219 -15.6231 180.16 -2.19637C151.109 11.7053 120.113 10.8131 92.7924 23.1072C74.0955 31.4967 55.8529 43.9775 42.0981 61.4798C35.7509 69.5314 30.3458 78.6581 26.277 88.979C10.166 129.984 19.4048 180.126 27.873 226.137C28.7108 230.682 29.5275 235.248 30.3158 239.832C42.6213 311.582 40.3712 383.779 14.7987 447.751C5.6765 470.569 -6.8853 494.954 -26.8159 510.034C-55.2288 531.544 -87.5409 536.423 -115.342 546.694C-117.535 547.504 -119.716 548.353 -121.883 549.239C-154.662 562.672 -182.994 584.609 -202.564 616.649C-223.429 650.749 -233.248 698.4 -218.403 742.258" stroke="#B7B7B7" stroke-width="0.791667" stroke-miterlimit="10"/>
        <path d="M602.719 -249.389C595.904 -214.115 585.602 -179.851 572.374 -147.136C566.494 -132.592 559.949 -118.19 551.091 -105.628C528.533 -73.6438 494.867 -57.9379 462.667 -48.2966C455.004 -45.9916 447.275 -43.9647 439.498 -42.222C417.082 -37.1847 394.304 -34.4367 371.508 -33.8524C341.086 -33.0775 310.377 -36.239 277.725 -34.9236C245.178 -33.634 211.677 -21.318 184.094 -9.59018C153.157 3.56431 120.485 1.69643 91.1355 13.4441C71.0494 21.462 51.3238 33.8733 36.3229 51.7272C29.4013 59.9438 23.4747 69.3267 18.9693 80.0013C1.12438 122.398 10.2996 174.734 18.5628 222.692C19.3794 227.427 20.1748 232.188 20.9366 236.969C32.8408 311.803 29.7883 387.34 1.11203 453.126C-8.35483 474.843 -20.9944 497.975 -40.1437 512.792C-67.4466 533.929 -98.2122 540.454 -124.457 552.274C-126.527 553.208 -128.584 554.175 -130.624 555.183C-161.486 570.434 -187.317 593.913 -204.372 626.213C-222.554 660.586 -229.814 706.789 -214.266 748.681" stroke="#B1B1B1" stroke-width="0.791667" stroke-miterlimit="10"/>
        <path d="M591.897 -259.78C585.357 -225.656 575.277 -192.563 562.251 -161.052C556.46 -147.043 550.012 -133.207 541.507 -121.004C519.853 -89.9501 488.186 -73.2228 457.443 -62.1945C450.126 -59.5596 442.732 -57.191 435.28 -55.0966C413.802 -49.0459 391.883 -45.197 369.856 -43.4265C340.46 -41.0698 310.652 -42.4846 279.097 -40.428C247.653 -38.3992 215.159 -27.0987 188.041 -16.9884C155.197 -4.74394 120.868 -7.42449 89.4893 3.7767C68.0157 11.425 46.8036 23.7627 30.5583 41.9723C23.0623 50.3559 16.6144 59.9932 11.6724 71.0196C-7.90645 114.805 1.20512 169.337 9.26326 219.244C10.0604 224.172 10.831 229.128 11.5663 234.104C23.0694 312.023 19.3964 391.05 -12.5657 458.497C-22.3525 479.149 -35.0963 500.993 -53.4626 515.544C-79.6573 536.309 -108.874 544.48 -133.563 557.847C-135.511 558.902 -137.443 559.993 -139.357 561.12C-168.304 578.189 -191.635 603.212 -206.171 635.771C-221.671 670.414 -226.37 715.173 -210.12 755.097" stroke="#ABABAB" stroke-width="0.791667" stroke-miterlimit="10"/>
        <path d="M581.079 -270.17C574.814 -237.195 564.956 -205.274 552.131 -174.965C546.431 -161.493 540.08 -148.219 531.928 -136.378C511.179 -106.254 481.51 -88.5051 452.223 -76.0898C445.251 -73.1251 438.193 -70.4147 431.068 -67.9686C410.526 -60.9045 389.466 -55.9547 368.208 -52.9979C339.839 -49.0575 310.931 -48.7277 280.471 -45.9299C250.13 -43.1619 218.674 -32.9502 191.991 -24.3839C157.231 -13.2265 121.255 -16.5429 87.8467 -5.88821C64.9838 1.38849 42.2888 13.6568 24.7974 32.2181C16.7269 40.7665 9.75758 50.6583 4.37901 62.0403C-16.9338 107.217 -7.88407 163.942 -0.0345001 215.799C0.741443 220.917 1.48911 226.068 2.19966 231.24C13.3032 312.244 9.19549 394.938 -26.2398 463.87C-36.3288 483.496 -49.1929 504.013 -66.7762 518.3C-91.8626 538.694 -119.531 548.512 -142.663 563.425C-144.487 564.603 -146.295 565.813 -148.082 567.061C-175.111 585.949 -195.943 612.514 -207.964 645.332C-220.78 680.247 -222.919 723.56 -205.969 761.517" stroke="#A6A6A6" stroke-width="0.791667" stroke-miterlimit="10"/>
        <path d="M570.262 -280.561C564.271 -248.735 554.635 -217.983 542.011 -188.88C536.399 -175.943 530.149 -163.235 522.348 -151.754C502.504 -122.56 474.831 -103.79 447.003 -89.9873C440.375 -86.6927 433.653 -83.6406 426.854 -80.8428C407.248 -72.7653 387.047 -66.7127 366.558 -62.5716C339.216 -57.0495 311.21 -54.9729 281.846 -51.4339C252.609 -47.9267 222.233 -38.8696 195.939 -31.7837C159.263 -21.8999 121.641 -25.6655 86.2023 -15.5572C61.9502 -8.65208 37.7722 3.54462 19.0347 22.4617C10.3915 31.177 2.899 41.3231 -2.91615 53.0588C-25.9629 99.6261 -16.9768 158.545 -9.33228 212.351C-8.57755 217.663 -7.85285 223.006 -7.16705 228.375C3.5353 312.465 -0.81459 399.028 -39.9139 469.243C-50.2964 487.888 -63.2894 507.032 -80.0915 521.055C-104.068 541.075 -130.19 552.54 -151.764 569.001C-153.467 570.301 -155.149 571.634 -156.809 573.001C-181.922 593.706 -200.253 621.816 -209.757 654.891C-219.89 690.078 -219.469 731.944 -201.817 767.934" stroke="#A0A0A0" stroke-width="0.791667" stroke-miterlimit="10"/>
        <path d="M559.438 -290.951C553.721 -260.274 544.308 -230.695 531.885 -202.794C526.364 -190.391 520.211 -178.25 512.761 -167.13C493.82 -138.868 468.147 -119.074 441.775 -103.885C435.492 -100.259 429.106 -96.8668 422.631 -93.7173C403.963 -84.6244 384.621 -77.4729 364.901 -72.1456C338.584 -65.0397 311.479 -61.2186 283.211 -56.9384C255.077 -52.692 225.839 -44.847 199.879 -39.1818C161.303 -30.7625 122.018 -34.7844 84.55 -25.2246C58.9086 -18.691 33.2477 -6.5638 13.2641 12.7049C4.0464 21.5852 -3.96757 31.9875 -10.2193 44.075C-34.9999 92.0332 -26.0775 153.146 -18.638 208.9C-17.9027 214.402 -17.201 219.94 -16.5435 225.506C-6.24238 312.679 -10.6435 403.344 -53.5978 474.611C-64.2701 492.317 -77.3975 510.046 -93.4148 523.805C-116.283 543.453 -140.857 556.564 -160.876 574.575C-162.456 575.998 -164.013 577.45 -165.545 578.938C-188.741 601.462 -204.574 631.113 -211.561 664.448C-219.011 699.906 -216.031 740.327 -197.675 774.35" stroke="#9B9B9B" stroke-width="0.791667" stroke-miterlimit="10"/>
        <path d="M548.611 -301.342C543.171 -271.816 533.978 -243.406 521.757 -216.708C516.326 -204.841 510.27 -193.264 503.172 -182.504C485.136 -155.172 461.46 -134.357 436.547 -117.781C430.608 -113.825 424.558 -110.091 418.409 -106.59C400.677 -96.4837 382.196 -88.2294 363.243 -81.7157C337.953 -73.0262 311.749 -67.4604 284.577 -62.439C257.546 -57.4534 229.512 -50.8702 203.821 -46.5761C163.373 -39.8161 122.396 -43.9015 82.899 -34.8881C55.8683 -28.7262 28.7226 -16.6705 7.49469 2.95395C-2.29738 11.9991 -10.8328 22.6578 -17.5211 35.099C-44.0357 84.4482 -35.1768 147.755 -27.9424 205.458C-27.2283 211.153 -26.5496 216.884 -25.9168 222.646C-16.0151 312.905 -20.2802 407.922 -67.2768 479.987C-78.2425 496.802 -91.499 513.068 -106.735 526.563C-128.493 545.839 -151.519 560.595 -169.982 580.154C-171.439 581.698 -172.872 583.272 -174.279 584.881C-195.558 609.225 -208.891 640.417 -213.361 674.012C-218.128 709.742 -212.588 748.716 -193.531 780.772" stroke="#959595" stroke-width="0.791667" stroke-miterlimit="10"/>
        <path d="M537.801 -311.732C532.635 -283.356 523.664 -256.115 511.645 -230.623C506.302 -219.291 500.345 -208.278 493.599 -197.88C476.468 -171.478 454.789 -149.642 431.333 -131.678C425.74 -127.392 420.024 -123.317 414.2 -119.462C397.403 -108.342 379.783 -98.9868 361.597 -91.2868C337.334 -81.0156 312.03 -73.7031 285.954 -67.9406C260.026 -62.2158 233.269 -56.9361 207.771 -53.9734C165.494 -49.0613 122.783 -53.0216 81.2569 -44.5546C52.8387 -38.7623 24.2082 -26.7782 1.73421 -6.80008C-8.63231 2.41204 -17.6891 13.3251 -24.814 26.1199C-53.0625 76.8581 -44.2656 142.36 -37.2396 202.012C-36.5468 207.898 -35.8911 213.826 -35.2849 219.783C-25.7844 313.126 -29.7348 412.776 -80.9523 485.36C-92.2202 501.331 -105.598 516.089 -120.051 529.319C-140.701 548.222 -162.179 564.627 -179.087 585.732C-180.421 587.399 -181.729 589.094 -183.009 590.823C-202.37 616.985 -213.205 649.72 -215.158 683.574C-217.242 719.574 -209.143 757.104 -189.384 787.193" stroke="#909090" stroke-width="0.791667" stroke-miterlimit="10"/>
        <path d="M526.968 -322.123C513.07 -244.756 468.014 -176.74 409.972 -132.334C351.928 -87.9312 281.795 -65.966 211.707 -61.3699C167.66 -58.4806 123.156 -62.1409 79.6004 -54.2204C36.0451 -46.2998 -8.16413 -24.5154 -32.1212 17.1378C-62.1037 69.2669 -53.3703 136.961 -46.5494 198.565C-35.3327 299.868 -35.4901 413.277 -94.6384 490.733C-124.099 529.313 -165.786 555.123 -191.746 596.76C-227.74 654.489 -224.947 739.039 -185.243 793.608" stroke="#8A8A8A" stroke-width="0.791667" stroke-miterlimit="10"/>
      </g>
    </g>
  </g>
</svg>
