<svg width="210" height="40" viewBox="0 0 210 40" fill="none" xmlns="http://www.w3.org/2000/svg">
  <path d="M200.629 12.8951C200.253 12.8295 199.752 12.9956 199.127 13.3933C198.501 13.7643 197.852 14.2297 197.18 14.7893C196.506 15.3223 195.874 15.8804 195.283 16.4636C194.717 17.0191 194.306 17.4352 194.05 17.712C193.641 17.4875 193.381 17.3108 193.269 17.1816C193.13 17.0535 193.172 16.7584 193.395 16.2961C193.742 15.6156 194.089 14.9217 194.435 14.2145C194.808 13.5063 195.196 12.8375 195.599 12.2082C195.826 11.8526 196.006 11.6988 196.142 11.747C196.303 11.7675 196.547 11.8781 196.875 12.079C196.517 12.4931 196.201 12.9456 195.927 13.4365C195.678 13.8998 195.498 14.4271 195.387 15.0185C195.568 14.878 195.84 14.6541 196.202 14.3466C196.59 14.0381 197.005 13.7285 197.447 13.418C197.889 13.1074 198.332 12.8368 198.777 12.6062C199.247 12.3479 199.668 12.1982 200.04 12.1572C200.438 12.0885 200.761 12.1694 201.01 12.4C201.286 12.6296 201.436 13.0641 201.461 13.7036C201.474 14.05 201.446 14.358 201.376 14.6276C201.307 14.8971 201.276 15.1252 201.283 15.3117C201.289 15.4716 201.374 15.6017 201.538 15.7022C201.701 15.7759 202.022 15.8036 202.502 15.7851C203.116 15.7881 203.728 15.7512 204.339 15.6743C204.976 15.5964 205.573 15.5066 206.13 15.4051C206.686 15.3036 207.19 15.2042 207.64 15.1068C208.116 15.0084 208.5 14.9402 208.793 14.9023C208.925 14.8705 209.007 14.9207 209.039 15.0529C209.07 15.1851 209.115 15.3035 209.172 15.408C208.045 15.9318 206.858 16.2844 205.61 16.4659C204.362 16.6208 203.165 16.7203 202.019 16.7644C201.406 16.788 200.976 16.6979 200.728 16.4939C200.505 16.2623 200.4 15.9462 200.411 15.5454C200.393 15.0658 200.455 14.5964 200.597 14.1372C200.739 13.6781 200.75 13.264 200.629 12.8951Z" fill="black"/>
  <path d="M185.866 13.9041C186.23 13.6499 186.596 13.4356 186.963 13.2614L187.674 14.0746C187.312 14.3554 187.03 14.6732 186.83 15.0278C186.631 15.3824 186.593 15.7975 186.718 16.273C187.389 16.3539 188.083 16.3672 188.801 16.3129C189.546 16.2575 190.251 16.177 190.914 16.0713C191.603 15.9647 192.226 15.8473 192.781 15.7192C193.337 15.591 193.787 15.507 194.133 15.467C194.265 15.4352 194.347 15.4854 194.379 15.6176C194.411 15.7498 194.455 15.8682 194.513 15.9727C193.385 16.4965 192.318 16.8445 191.31 17.0168C190.302 17.1624 189.225 17.2573 188.079 17.3014C187.412 17.3004 186.898 17.1201 186.537 16.7604C186.203 16.3996 185.863 15.8923 185.518 15.2385C184.994 15.4988 184.484 15.7587 183.986 16.018C183.489 16.2773 182.979 16.5239 182.454 16.7576C182.009 16.9882 181.55 17.1927 181.076 17.3711C180.63 17.5484 180.184 17.7524 179.739 17.983C179.241 18.2157 178.818 18.3254 178.471 18.3121C178.122 18.2721 177.878 18.1615 177.737 17.9801C177.569 17.7731 177.52 17.5215 177.588 17.2253C177.629 16.9034 177.804 16.5898 178.112 16.2844C178.189 16.2014 178.279 16.1178 178.383 16.0338C178.46 15.9508 178.563 15.8534 178.692 15.7417C179.156 15.3235 179.714 14.9017 180.364 14.4763C181.014 14.0243 181.667 13.6656 182.324 13.4001C183.008 13.1335 183.657 13.0151 184.272 13.0448C184.914 13.0735 185.445 13.3599 185.866 13.9041ZM185.434 14.1209C184.974 13.9518 184.427 13.9462 183.793 14.1041C183.157 14.2353 182.526 14.4731 181.899 14.8175C181.297 15.1342 180.738 15.516 180.222 15.9629C179.731 16.3821 179.386 16.7957 179.189 17.2036C180.236 16.6829 181.27 16.1627 182.291 15.643C183.311 15.1233 184.359 14.616 185.434 14.1209Z" fill="black"/>
  <path d="M171.913 19.1253C172.152 19.0894 172.599 18.9254 173.255 18.6333C173.911 18.3411 174.606 18.0208 175.34 17.6723C176.1 17.3228 176.794 16.9891 177.423 16.6714C178.077 16.3526 178.497 16.1496 178.68 16.0625C178.813 16.0574 178.896 16.1342 178.929 16.2931C178.989 16.4509 179.034 16.5959 179.066 16.7281C177.894 17.4671 176.769 18.0576 175.692 18.4994C174.641 18.9401 173.486 19.4383 172.227 19.9939C171.859 20.1415 171.559 20.3265 171.327 20.5489C171.095 20.7447 170.879 21.0332 170.68 21.4145C170.356 22.014 169.956 22.71 169.48 23.5022C169.03 24.2935 168.54 25.0863 168.01 25.8806C167.454 26.6759 166.882 27.4185 166.295 28.1083C165.706 28.7714 165.126 29.2875 164.553 29.6565C164.032 29.9968 163.671 29.9707 163.469 29.5782C163.242 29.2133 163.102 28.6983 163.049 28.0332C162.969 27.3424 162.942 26.6229 162.966 25.8748C162.963 25.101 162.941 24.5148 162.898 24.1161C162.862 23.8506 162.758 23.5878 162.588 23.3275C162.418 23.0671 162.221 22.8212 161.999 22.5896C161.777 22.358 161.542 22.1535 161.295 21.9762C161.021 21.8 160.775 21.636 160.555 21.4843C160.932 21.5499 161.427 21.5842 162.04 21.5872C162.654 21.5903 163.321 21.5646 164.039 21.5102C164.756 21.4292 165.486 21.321 166.228 21.1857C166.969 21.0237 167.656 20.8372 168.288 20.626C168.947 20.4138 169.511 20.1652 169.981 19.8803C170.449 19.5687 170.769 19.2228 170.941 18.8425C171.139 18.4346 171.324 18.0405 171.496 17.6603C171.695 17.279 171.852 16.8593 171.968 16.4012C171.606 16.7087 171.205 17.0177 170.763 17.3283C170.321 17.6388 169.891 17.9089 169.473 18.1385C168.949 18.3989 168.55 18.4276 168.276 18.2247C168.028 18.0208 167.882 17.7061 167.839 17.2808C167.795 16.8288 167.87 16.3456 168.063 15.8311C168.256 15.2899 168.572 14.8241 169.01 14.4336C169.062 14.4049 169.198 14.4531 169.416 14.5781C169.634 14.7031 169.72 14.8599 169.674 15.0485C169.626 15.1838 169.54 15.3606 169.415 15.5789C169.315 15.7695 169.203 15.974 169.078 16.1923C168.952 16.3839 168.853 16.5879 168.781 16.8042C168.709 16.9938 168.689 17.168 168.721 17.3269C168.834 17.4826 169.086 17.4329 169.476 17.1777C169.892 16.8948 170.345 16.5304 170.835 16.0846C171.324 15.612 171.812 15.1262 172.3 14.6271C172.814 14.1002 173.238 13.6836 173.573 13.3771C173.779 13.1824 173.963 13.1086 174.125 13.1557C174.313 13.2018 174.518 13.314 174.738 13.4924C174.594 13.8982 174.385 14.3599 174.111 14.8775C173.836 15.3685 173.549 15.8732 173.249 16.3919C172.974 16.8828 172.699 17.3737 172.425 17.8647C172.176 18.3279 172.005 18.7481 171.913 19.1253ZM162.958 22.5526C163.292 22.9134 163.523 23.3581 163.65 23.887C163.777 24.4158 163.865 24.9728 163.915 25.558C163.937 26.1443 163.959 26.7038 163.979 27.2368C164 27.7697 164.057 28.2212 164.152 28.5912C164.54 28.2826 165.016 27.824 165.58 27.2151C166.142 26.5797 166.69 25.9048 167.223 25.1904C167.755 24.4493 168.221 23.7242 168.62 23.015C169.047 22.3047 169.317 21.7072 169.432 21.2224C168.323 21.532 167.253 21.8134 166.222 22.0666C165.163 22.2942 164.075 22.4562 162.958 22.5526Z" fill="black"/>
  <path d="M159.878 14.4651C159.502 14.3996 159.001 14.5656 158.376 14.9633C157.75 15.3344 157.101 15.7997 156.429 16.3594C155.755 16.8923 155.123 17.4504 154.532 18.0336C153.966 18.5892 153.555 19.0053 153.299 19.282C152.89 19.0576 152.63 18.8808 152.518 18.7517C152.379 18.6236 152.421 18.3284 152.644 17.8662C152.991 17.1856 153.338 16.4918 153.684 15.7846C154.057 15.0764 154.445 14.4076 154.848 13.7783C155.075 13.4226 155.255 13.2689 155.391 13.3171C155.552 13.3375 155.796 13.4482 156.124 13.6491C155.766 14.0631 155.45 14.5157 155.176 15.0066C154.927 15.4699 154.747 15.9972 154.636 16.5885C154.818 16.4481 155.089 16.2242 155.451 15.9167C155.839 15.6082 156.254 15.2986 156.696 14.988C157.138 14.6775 157.581 14.4069 158.026 14.1762C158.496 13.9179 158.917 13.7683 159.289 13.7273C159.687 13.6586 160.01 13.7395 160.259 13.9701C160.535 14.1996 160.685 14.6342 160.71 15.2737C160.723 15.6201 160.695 15.9281 160.625 16.1976C160.556 16.4672 160.525 16.6952 160.532 16.8818C160.538 17.0416 160.623 17.1718 160.787 17.2722C160.95 17.346 161.271 17.3737 161.751 17.3552C162.365 17.3582 162.977 17.3213 163.588 17.2444C164.225 17.1664 164.822 17.0767 165.379 16.9752C165.935 16.8737 166.439 16.7743 166.889 16.6769C167.365 16.5784 167.749 16.5103 168.042 16.4723C168.174 16.4405 168.256 16.4908 168.288 16.623C168.319 16.7552 168.364 16.8735 168.421 16.9781C167.294 17.5019 166.107 17.8545 164.859 18.036C163.611 18.1908 162.414 18.2903 161.268 18.3345C160.655 18.3581 160.225 18.2679 159.977 18.064C159.754 17.8324 159.649 17.5162 159.66 17.1155C159.642 16.6359 159.704 16.1664 159.846 15.7073C159.988 15.2481 159.999 14.8341 159.878 14.4651Z" fill="black"/>
  <path d="M145.115 15.4744C145.479 15.2202 145.845 15.006 146.212 14.8317L146.923 15.6449C146.561 15.9257 146.279 16.2435 146.079 16.5981C145.88 16.9527 145.842 17.3678 145.967 17.8433C146.638 17.9243 147.332 17.9375 148.05 17.8832C148.795 17.8278 149.5 17.7473 150.163 17.6417C150.852 17.535 151.475 17.4176 152.03 17.2895C152.586 17.1613 153.036 17.0773 153.382 17.0373C153.514 17.0055 153.596 17.0557 153.628 17.1879C153.66 17.3201 153.704 17.4385 153.762 17.543C152.634 18.0668 151.567 18.4148 150.559 18.5871C149.551 18.7327 148.474 18.8276 147.328 18.8717C146.661 18.8707 146.147 18.6904 145.786 18.3307C145.452 17.9699 145.112 17.4627 144.767 16.8088C144.243 17.0692 143.733 17.329 143.235 17.5883C142.738 17.8477 142.228 18.0942 141.703 18.3279C141.258 18.5585 140.799 18.763 140.325 18.9414C139.879 19.1187 139.433 19.3227 138.988 19.5533C138.49 19.786 138.067 19.8957 137.72 19.8824C137.371 19.8424 137.127 19.7318 136.986 19.5504C136.818 19.3434 136.769 19.0918 136.837 18.7956C136.878 18.4738 137.053 18.1601 137.361 17.8547C137.438 17.7717 137.528 17.6881 137.632 17.6041C137.709 17.5211 137.812 17.4237 137.941 17.312C138.405 16.8938 138.963 16.472 139.613 16.0466C140.263 15.5946 140.917 15.2359 141.573 14.9704C142.257 14.7039 142.906 14.5854 143.521 14.6151C144.163 14.6438 144.694 14.9302 145.115 15.4744ZM144.683 15.6912C144.223 15.5221 143.676 15.5165 143.042 15.6744C142.406 15.8056 141.775 16.0434 141.148 16.3878C140.546 16.7046 139.987 17.0864 139.471 17.5332C138.98 17.9525 138.635 18.366 138.438 18.7739C139.485 18.2532 140.519 17.733 141.54 17.2133C142.561 16.6937 143.608 16.1863 144.683 15.6912Z" fill="black"/>
  <path d="M130.916 17.2223C131.538 16.718 132.169 16.1332 132.81 15.468C133.479 14.8018 134.107 14.1505 134.697 13.514C134.93 14.0387 135.05 14.3677 135.055 14.5009C135.059 14.6075 135.035 14.6885 134.984 14.7438C134.373 15.5146 133.745 16.1792 133.099 16.7379C132.454 17.2965 131.784 17.9227 131.09 18.6166C131.269 19.0901 131.653 19.3555 132.242 19.4129C132.831 19.4702 133.482 19.4051 134.196 19.2175C134.909 19.0299 135.606 18.7762 136.288 18.4564C136.968 18.1099 137.504 17.8091 137.894 17.5538C137.999 17.4964 138.052 17.4944 138.054 17.5477C138.056 17.601 138.086 17.6799 138.144 17.7844C138.202 17.9156 138.234 18.0478 138.239 18.181C138.27 18.2866 138.18 18.3968 137.971 18.5116C137.396 18.8273 136.742 19.1594 136.008 19.5079C135.3 19.8288 134.589 20.083 133.876 20.2706C133.162 20.4315 132.482 20.4577 131.838 20.3491C131.22 20.2395 130.712 19.8854 130.316 19.2869C129.979 19.5667 129.655 19.8061 129.342 20.0049C129.056 20.1761 128.768 20.334 128.48 20.4785C128.113 20.6527 127.768 20.7061 127.445 20.6384C127.149 20.5698 126.903 20.4191 126.708 20.1865C126.485 19.9549 126.354 19.6664 126.314 19.321C126.247 18.9767 126.313 18.6139 126.512 18.2326C126.587 18.0963 126.739 17.8769 126.967 17.5746C127.195 17.2456 127.462 16.915 127.77 16.5829C128.103 16.2232 128.436 15.8768 128.77 15.5436C129.131 15.2095 129.455 14.9702 129.743 14.8257C130.031 14.6811 130.271 14.6586 130.461 14.758C130.679 14.8563 130.796 15.1453 130.815 15.625C130.823 15.8382 130.832 16.078 130.843 16.3445C130.879 16.5832 130.903 16.8759 130.916 17.2223ZM127.007 19.6546C127.17 19.7284 127.501 19.6489 127.999 19.4162C128.497 19.1835 129.129 18.6121 129.894 17.702C129.971 17.619 130.019 17.4837 130.039 17.2961C130.057 17.0819 130.062 16.8682 130.054 16.655C130.046 16.4419 130.012 16.2564 129.953 16.0985C129.919 15.913 129.875 15.8213 129.822 15.8234C129.486 16.1032 129.152 16.4363 128.82 16.8227C128.486 17.1825 128.181 17.5545 127.902 17.9389C127.622 18.2966 127.395 18.6389 127.221 18.9658C127.072 19.2651 127.001 19.4947 127.007 19.6546Z" fill="black"/>
  <path d="M121.052 15.4008C121.212 15.3946 121.386 15.4146 121.575 15.4607C121.79 15.5058 121.98 15.5785 122.144 15.679C122.307 15.7528 122.432 15.8814 122.519 16.0648C122.632 16.2206 122.666 16.4194 122.622 16.6613C122.581 16.9831 122.365 17.2716 121.975 17.5269C121.584 17.7821 121.14 18.0127 120.641 18.2187C120.167 18.3971 119.693 18.5488 119.217 18.6739C118.768 18.7979 118.425 18.8912 118.187 18.9538C117.501 19.167 117.188 19.3392 117.246 19.4704C117.331 19.6005 117.667 19.6543 118.253 19.6317C118.838 19.5825 119.555 19.4881 120.404 19.3487C121.252 19.2092 122.087 19.057 122.908 18.8919C123.756 18.7258 124.524 18.5762 125.213 18.4429C125.927 18.2819 126.456 18.1548 126.799 18.0615C127.037 17.999 127.171 18.0072 127.2 18.0861C127.23 18.165 127.277 18.35 127.342 18.641C126.92 18.7641 126.233 18.9506 125.282 19.2008C124.33 19.4243 123.338 19.6493 122.306 19.8759C121.274 20.1024 120.293 20.287 119.365 20.4295C118.436 20.572 117.798 20.6233 117.449 20.5834C116.993 20.5209 116.654 20.3738 116.431 20.1422C116.235 19.8829 116.116 19.5806 116.076 19.2352C116.036 18.8898 116.09 18.5409 116.236 18.1883C116.356 17.8368 116.544 17.5226 116.8 17.2459C117.056 16.9691 117.367 16.717 117.732 16.4895C118.097 16.2619 118.476 16.0738 118.871 15.9252C119.264 15.7499 119.647 15.6284 120.018 15.5607C120.414 15.4654 120.759 15.4121 121.052 15.4008ZM121.497 16.5445C121.254 16.4738 120.934 16.4728 120.536 16.5415C120.165 16.6092 119.77 16.7445 119.351 16.9475C118.93 17.1238 118.539 17.3523 118.176 17.6332C117.812 17.8874 117.543 18.1646 117.368 18.4649C117.843 18.3399 118.371 18.1861 118.951 18.0036C119.53 17.7945 120.043 17.6013 120.49 17.424C120.936 17.22 121.262 17.0339 121.469 16.8658C121.703 16.6967 121.712 16.5896 121.497 16.5445Z" fill="black"/>
  <path d="M106.191 16.774C106.282 16.3702 106.228 15.9987 106.028 15.6594C106.374 15.6461 106.679 15.581 106.941 15.4641C107.202 15.3206 107.423 15.152 107.602 14.9583C107.808 14.7636 108 14.5427 108.177 14.2957C108.354 14.0487 108.545 13.8011 108.749 13.5531C109.642 12.5046 110.604 11.4802 111.633 10.4798C112.661 9.47944 113.734 8.57081 114.85 7.7539C115.811 7.07639 116.583 6.67304 117.165 6.54387C117.774 6.41367 118.164 6.50537 118.337 6.81897C118.534 7.1049 118.512 7.55943 118.269 8.18258C118.026 8.80573 117.546 9.50473 116.829 10.2796C115.805 11.4132 114.699 12.4832 113.51 13.4898C112.347 14.4686 111.086 15.3311 109.727 16.0773C109.361 16.2782 108.968 16.4802 108.549 16.6831C108.13 16.8861 107.752 17.1141 107.415 17.3673C107.104 17.6194 106.862 17.909 106.688 18.2359C106.513 18.5629 106.488 18.9375 106.611 19.3597C107.281 19.4407 108.109 19.4488 109.094 19.3842C110.078 19.3195 111.049 19.2288 112.005 19.1119C112.988 18.9939 113.878 18.8796 114.674 18.7688C115.469 18.6315 116.04 18.5428 116.385 18.5028C116.517 18.471 116.599 18.5212 116.631 18.6534C116.663 18.7856 116.707 18.904 116.765 19.0085C116.214 19.2699 115.542 19.4826 114.748 19.6467C113.98 19.8097 113.185 19.9471 112.362 20.0588C111.566 20.1696 110.768 20.2537 109.97 20.3111C109.197 20.3409 108.531 20.3665 107.971 20.3881C107.465 20.4076 107.009 20.3451 106.603 20.2006C106.197 20.0562 105.895 19.8276 105.696 19.5151C105.497 19.2025 105.429 18.8182 105.491 18.3621C105.554 17.906 105.787 17.3766 106.191 16.774ZM108.117 15.8591C108.329 15.8243 108.696 15.65 109.218 15.3364C109.766 15.0217 110.378 14.6245 111.053 14.1448C111.754 13.6375 112.467 13.0896 113.192 12.5013C113.942 11.8853 114.625 11.2718 115.242 10.661C115.886 10.0491 116.411 9.46842 116.816 8.91906C117.221 8.34305 117.429 7.85468 117.44 7.45395C116.656 7.88445 115.836 8.40976 114.979 9.02987C114.149 9.64896 113.322 10.3347 112.497 11.087C111.697 11.8116 110.927 12.5885 110.185 13.4177C109.442 14.2203 108.752 15.0341 108.117 15.8591Z" fill="black"/>
  <path d="M95.1033 18.7622C94.5171 18.7847 93.7438 18.8012 92.7835 18.8115C91.8222 18.7952 90.8229 18.8337 89.7858 18.927C88.7742 18.9927 87.8052 19.1234 86.8787 19.3192C85.9512 19.4884 85.2143 19.757 84.6681 20.1249C83.7314 20.7481 82.8188 21.3037 81.9302 21.7916C81.0683 22.2785 80.1511 22.7141 79.1785 23.0985C78.705 23.2769 78.2966 23.4127 77.9533 23.506C77.5833 23.6003 77.2189 23.4942 76.8602 23.1878C77.389 23.0607 77.9558 22.8788 78.5605 22.642C79.1651 22.4052 79.7688 22.1417 80.3714 21.8517C80.9996 21.5339 81.614 21.2033 82.2146 20.86C82.8151 20.5166 83.3619 20.1619 83.8548 19.796C82.7377 19.8924 81.5171 20.0729 80.1929 20.3374C78.8678 20.5753 77.6666 20.9151 76.5895 21.3569C76.363 21.0187 76.2723 20.742 76.3174 20.5268C76.3614 20.2849 76.6473 20.0871 77.1751 19.9333C77.4396 19.8697 77.704 19.8062 77.9684 19.7426C78.2318 19.6524 78.5085 19.5617 78.7985 19.4704C79.643 19.2244 80.5019 19.0045 81.375 18.8108C82.2472 18.5903 83.0558 18.4524 83.8009 18.3971C84.6526 18.3376 85.4074 18.1884 86.0654 17.9495C86.7489 17.683 87.4802 17.2679 88.259 16.7042C90.6202 14.9586 93.0061 13.1588 95.4164 11.3046C97.8268 9.4504 100.286 7.47425 102.794 5.37615C103.673 4.64842 104.432 3.91199 105.07 3.16685C105.734 2.39405 106.451 1.60586 107.221 0.802301C107.658 0.385144 108.056 0.303126 108.412 0.556247C108.741 0.783749 108.755 1.13016 108.452 1.59548C107.892 2.28424 107.276 2.92176 106.605 3.50803C105.933 4.09431 105.358 4.75694 104.88 5.49591C104.629 5.90588 104.301 6.4122 103.898 7.01486C103.52 7.61649 103.105 8.27296 102.652 8.98426C102.2 9.69556 101.735 10.4473 101.258 11.2396C100.781 12.0052 100.303 12.7708 99.8257 13.5365C99.3748 14.3011 98.949 15.0247 98.5483 15.7073C98.1476 16.3899 97.8105 16.99 97.5369 17.5075C97.9161 17.653 98.2932 17.7453 98.6683 17.7842C99.0701 17.8221 99.4201 17.902 99.7183 18.0239C100.016 18.1192 100.263 18.2965 100.459 18.5558C100.655 18.7884 100.75 19.185 100.745 19.7457C100.272 19.2302 99.6866 18.9325 98.9897 18.8526C98.3194 18.7717 97.5979 18.7461 96.8252 18.7759C96.5751 19.2125 96.2246 19.8131 95.7737 20.5777C95.3495 21.3413 94.8889 22.1996 94.3919 23.1528C93.9205 24.0783 93.4373 25.0443 92.9424 26.0508C92.4464 27.0306 92.0027 27.9817 91.6112 28.9041C91.2454 29.7989 90.9565 30.6106 90.7444 31.3393C90.5312 32.0414 90.4585 32.5779 90.5262 32.9489C89.9973 33.076 89.6607 32.9956 89.5161 32.7076C89.3726 32.4463 89.3706 32.0461 89.5099 31.507C89.8788 29.9983 90.5535 28.1176 91.5342 25.8648C92.5148 23.6121 93.7046 21.2445 95.1033 18.7622ZM95.8504 17.3724C96.3013 16.6078 96.8157 15.7607 97.3937 14.8311C97.9717 13.9015 98.5758 12.9575 99.206 11.9992C99.8629 11.0399 100.506 10.0677 101.135 9.08275C101.764 8.0978 102.368 7.15384 102.947 6.25087C101.782 7.17642 100.565 8.13067 99.295 9.11362C98.0519 10.0955 96.7954 11.078 95.5257 12.0609C94.2825 13.0429 93.0389 14.0115 91.7948 14.9667C90.5762 15.8943 89.3967 16.7938 88.256 17.665L95.8504 17.3724Z" fill="black"/>
  <path d="M56.1886 21.3025C56.0769 21.1734 55.9657 21.0576 55.855 20.9551C55.7433 20.826 55.6582 20.6958 55.5998 20.5646C56.2373 20.4867 56.7994 20.1848 57.2862 19.659C57.773 19.1332 58.2065 18.6095 58.5866 18.0878C58.9668 17.5661 59.3117 17.1659 59.6212 16.8871C59.9297 16.5816 60.2115 16.6241 60.4667 17.0146C60.1378 17.481 59.8093 17.9606 59.4814 18.4536C59.1801 18.9456 58.8799 19.4642 58.5806 20.0095C58.9803 19.994 59.5527 19.9587 60.2978 19.9033C61.0695 19.8468 61.8157 19.8181 62.5362 19.817C63.2556 19.7893 63.8577 19.8328 64.3425 19.9476C64.8263 20.0357 64.9944 20.2427 64.8468 20.5686L59.4124 20.818C59.5477 21.56 59.4607 22.4174 59.1512 23.39C58.8418 24.3626 58.4124 25.3399 57.8631 26.3218C57.3395 27.276 56.7472 28.1794 56.0862 29.0322C55.3985 29.886 54.757 30.5512 54.1616 31.0278C53.5651 31.4777 53.0532 31.6976 52.6258 31.6874C52.1985 31.6772 51.9566 31.2862 51.9001 30.5144C51.8888 30.2213 51.9175 29.9267 51.9862 29.6305C52.0538 29.3076 52.1486 28.9971 52.2705 28.6988C52.707 27.5612 53.2127 26.4876 53.7876 25.478C54.3359 24.4695 54.9236 23.4461 55.5507 22.4079C55.6768 22.2162 55.79 22.0384 55.8904 21.8744C55.9632 21.6848 56.0626 21.4942 56.1886 21.3025ZM58.6284 21.2485C58.1969 21.1317 57.8392 21.1989 57.5553 21.45C57.2981 21.7001 57.0696 22.0024 56.8697 22.3571C56.0919 23.6413 55.3188 25.0454 54.5502 26.5695C53.755 28.0946 53.1571 29.5453 52.7565 30.9218C53.3304 30.5794 53.976 30.0208 54.6934 29.246C55.4097 28.4445 56.0697 27.5651 56.6733 26.6078C57.2769 25.6505 57.7605 24.6978 58.1243 23.7498C58.5137 22.7741 58.6817 21.9403 58.6284 21.2485Z" fill="black"/>
  <path d="M46.3525 19.0794C46.4437 18.6756 46.3893 18.3041 46.1895 17.9649C46.5359 17.9515 46.8403 17.8864 47.1026 17.7695C47.364 17.626 47.5843 17.4574 47.7636 17.2637C47.9696 17.069 48.1613 16.8481 48.3385 16.6011C48.5158 16.3541 48.7064 16.1066 48.9104 15.8585C49.804 14.81 50.7653 13.7856 51.7942 12.7852C52.8231 11.7849 53.8956 10.8762 55.0116 10.0593C55.9729 9.38181 56.7446 8.97846 57.3267 8.84929C57.9355 8.71909 58.326 8.81079 58.4982 9.12439C58.696 9.41032 58.6735 9.86485 58.4307 10.488C58.1878 11.1111 57.7077 11.8101 56.9903 12.585C55.9666 13.7186 54.8603 14.7887 53.6715 15.7952C52.5083 16.774 51.2472 17.6365 49.8883 18.3827C49.5224 18.5837 49.1299 18.7856 48.7107 18.9885C48.2916 19.1915 47.9134 19.4196 47.5762 19.6727C47.2657 19.9249 47.0234 20.2144 46.8491 20.5414C46.6749 20.8683 46.6493 21.2429 46.7724 21.6652C47.4426 21.7461 48.2702 21.7542 49.2551 21.6896C50.24 21.6249 51.2106 21.5342 52.1668 21.4173C53.1497 21.2993 54.0393 21.185 54.8356 21.0743C55.6309 20.9369 56.2012 20.8482 56.5466 20.8082C56.6788 20.7764 56.7608 20.8266 56.7926 20.9588C56.8244 21.091 56.869 21.2094 56.9264 21.3139C56.376 21.5753 55.7037 21.788 54.9094 21.9521C54.1418 22.1151 53.3465 22.2525 52.5235 22.3642C51.7272 22.475 50.9299 22.5591 50.1315 22.6165C49.3587 22.6463 48.6925 22.672 48.133 22.6935C47.6267 22.713 47.1706 22.6505 46.7647 22.5061C46.3589 22.3616 46.0565 22.1331 45.8577 21.8205C45.6588 21.5079 45.5906 21.1236 45.6531 20.6675C45.7156 20.2114 45.9487 19.6821 46.3525 19.0794ZM48.2787 18.1646C48.4908 18.1297 48.8577 17.9554 49.3794 17.6418C49.9277 17.3271 50.5395 16.9299 51.2149 16.4502C51.9159 15.9429 52.6286 15.395 53.3532 14.8067C54.1033 14.1907 54.7869 13.5772 55.4038 12.9664C56.0474 12.3545 56.5721 11.7738 56.9779 11.2245C57.3827 10.6485 57.5907 10.1601 57.602 9.75937C56.818 10.1899 55.9976 10.7152 55.1408 11.3353C54.3107 11.9544 53.4832 12.6401 52.6582 13.3924C51.8588 14.1171 51.0882 14.894 50.3462 15.7231C49.6032 16.5257 48.9141 17.3395 48.2787 18.1646Z" fill="black"/>
  <path d="M40.4471 21.3487C40.6357 21.3948 40.957 21.4224 41.411 21.4316C41.8907 21.4131 42.4103 21.3931 42.9699 21.3715C43.5284 21.3233 44.087 21.2751 44.6455 21.2269C45.2041 21.1787 45.6966 21.1464 46.1229 21.13C46.1578 21.3421 46.1373 21.503 46.0614 21.6127C46.0123 21.7213 45.961 21.7767 45.9077 21.7787C45.5377 21.873 45.1001 21.9433 44.5949 21.9894C44.0896 22.0356 43.5572 22.0694 42.9976 22.091C42.4646 22.1115 41.945 22.1316 41.4387 22.1511C40.9325 22.1706 40.48 22.2014 40.0813 22.2434C39.6027 22.2885 39.1415 22.4397 38.6977 22.697C38.2529 22.9276 37.8092 23.1849 37.3665 23.4688C36.9227 23.7261 36.4651 23.9706 35.9937 24.2022C35.5222 24.4339 35.0201 24.56 34.4871 24.5805C34.1674 24.5928 33.9111 24.5227 33.7184 24.37C33.4981 24.1916 33.3428 23.9708 33.2526 23.7074C33.1357 23.445 33.085 23.1668 33.1003 22.8726C33.1157 22.5785 33.1843 22.2823 33.3063 21.9841C33.379 21.7945 33.5041 21.5761 33.6813 21.3291C33.9847 20.8905 34.3818 20.4615 34.8727 20.0423C35.3892 19.5954 35.9339 19.1875 36.5068 18.8185C37.1063 18.4485 37.6812 18.1328 38.2316 17.8714C38.8076 17.5823 39.3195 17.3624 39.7673 17.2118C40.4263 16.9996 41.0202 17.1768 41.5491 17.7436C41.8002 18.0274 41.9186 18.3298 41.9043 18.6506C41.889 18.9447 41.7937 19.2419 41.6184 19.5422C41.4688 19.8148 41.2669 20.1162 41.0128 20.4462C40.7853 20.7752 40.5967 21.076 40.4471 21.3487ZM36.7944 21.0891C37.311 21.3361 37.807 21.397 38.2826 21.2719C38.7847 21.1458 39.2295 20.9152 39.6169 20.5801C40.0043 20.2449 40.3225 19.8457 40.5715 19.3824C40.8472 18.9181 41.0039 18.4851 41.0418 18.0833C40.1348 18.0916 39.2652 18.3786 38.4331 18.9444C37.6275 19.5092 37.0813 20.2241 36.7944 21.0891ZM33.9982 23.3184C34.1345 23.3932 34.3226 23.426 34.5624 23.4168C34.8288 23.4065 35.1071 23.3557 35.3971 23.2645C35.7138 23.1722 36.0295 23.0533 36.3441 22.9078C36.6843 22.7346 36.9841 22.5495 37.2434 22.3527C36.4081 22.1448 35.8674 21.6185 35.6214 20.774C35.1848 21.2178 34.8395 21.6047 34.5853 21.9348C34.3302 22.2382 34.1344 22.6994 33.9982 23.3184Z" fill="black"/>
  <path d="M12.3568 8.06027C12.6581 8.26215 12.7991 8.45687 12.7796 8.64442C12.7858 8.8043 12.7141 9.02056 12.5644 9.29319C11.8102 10.4965 10.9827 11.876 10.0819 13.4318C9.2068 14.96 8.32192 16.5819 7.42732 18.2977C6.55936 20.0123 5.74675 21.7783 4.98948 23.5954C4.23222 25.4126 3.63278 27.1703 3.19118 28.8686C2.44731 31.726 2.33673 33.3581 2.85945 33.765C3.40779 34.1442 4.75955 33.2114 6.91472 30.9668C7.73559 30.1079 8.56517 29.1285 9.40345 28.0288C10.2417 26.929 11.0405 25.8441 11.7999 24.7741C12.5849 23.6764 13.2925 22.6484 13.9227 21.6901C14.5796 20.7307 15.1228 19.9359 15.5522 19.3056C16.0574 18.5656 16.5083 17.801 16.9048 17.0118C17.3014 16.2226 17.7523 15.458 18.2575 14.718L19.2569 15.7203C19.0816 16.0206 18.9069 16.3342 18.7327 16.6612C18.5585 16.9881 18.3704 17.3023 18.1686 17.6036C18.0179 17.8496 17.7443 18.3671 17.3477 19.1563C16.9768 19.9178 16.5715 20.8275 16.1319 21.8852C15.6913 22.9162 15.2532 24.0139 14.8177 25.1782C14.4089 26.3415 14.104 27.434 13.9032 28.4558C13.7024 29.4777 13.6564 30.3601 13.765 31.1031C13.9004 31.8451 14.2781 32.2976 14.8982 32.4605C15.1943 32.5292 15.3921 32.4682 15.4915 32.2775C15.6176 32.0859 15.7298 31.8814 15.8282 31.6641C16.7115 29.6553 17.788 27.4655 19.0576 25.0949C20.354 22.7232 21.7307 20.3618 23.188 18.0106C24.6442 15.6328 26.1583 13.3728 27.7303 11.2307C29.3023 9.0886 30.819 7.24217 32.2804 5.69142C32.4853 5.47003 32.78 5.15178 33.1643 4.73668C33.5752 4.32055 34.0139 3.93004 34.4802 3.56515C34.9465 3.20026 35.403 2.92915 35.8499 2.75181C36.2957 2.54783 36.6697 2.5601 36.9721 2.78863C37.3021 3.04278 37.5276 3.35432 37.6486 3.72327C37.7696 4.09222 37.7706 4.46579 37.6517 4.84398C37.372 5.89553 36.8996 7.14131 36.2346 8.58132C35.5695 10.0213 34.7877 11.5459 33.8889 13.155C32.9892 14.7375 31.9972 16.3502 30.913 17.9932C29.8554 19.6351 28.7953 21.2104 27.7326 22.7191C26.6689 24.2012 25.6405 25.5618 24.6475 26.801C23.6534 28.0135 22.77 28.9815 21.9973 29.7051C21.7135 29.9563 21.3789 30.276 20.9935 30.6645C20.6072 31.0263 20.1942 31.3891 19.7545 31.753C19.3415 32.1158 18.9275 32.452 18.5124 32.7616C18.123 33.0434 17.7833 33.23 17.4932 33.3212C16.9644 33.4484 16.5211 33.719 16.1635 34.133C15.8325 34.5461 15.544 35.0242 15.2981 35.5674C15.0798 36.1362 14.8887 36.7174 14.7248 37.3108C14.5608 37.9042 14.3943 38.431 14.2252 38.8912C13.927 38.7693 13.7471 38.6027 13.6856 38.3916C13.6241 38.1805 13.6415 37.9396 13.7378 37.6691C13.8987 36.9957 14.0729 36.3218 14.2604 35.6474C14.4479 34.973 14.662 34.2976 14.9028 33.6212L14.7306 33.3076C13.9917 32.829 13.4879 32.2213 13.2193 31.4844C12.9774 30.7465 12.8677 29.9768 12.8902 29.1754C12.9116 28.3473 13.0131 27.5161 13.1944 26.6818C13.3747 25.8209 13.5182 25.0415 13.6247 24.3435C13.3654 24.5403 13.1466 24.7489 12.9683 24.9693C12.3801 25.6324 11.7303 26.4313 11.0191 27.3661C10.3335 28.2732 9.62183 29.1946 8.88398 30.1303C8.1451 31.0395 7.39084 31.8958 6.62121 32.6994C5.8772 33.4753 5.13984 34.0774 4.40912 34.5059C3.70403 34.9067 3.05118 34.9318 2.45058 34.5813C1.87559 34.2032 1.54503 33.5888 1.45888 32.7382C1.39424 31.7532 1.54892 30.5731 1.92291 29.1977C2.26922 27.7966 2.74569 26.3105 3.35231 24.7393C3.98456 23.1405 4.69623 21.5252 5.48732 19.8935C6.30404 18.2342 7.12384 16.6548 7.94672 15.1553C8.76857 13.6292 9.56942 12.2507 10.3493 11.0198C11.1291 9.78882 11.7983 8.80232 12.3568 8.06027ZM34.0914 5.94188C33.0829 6.78133 32.0171 7.86316 30.894 9.18739C29.7964 10.4839 28.6773 11.9148 27.5367 13.4798C26.4228 15.0439 25.3119 16.6879 24.2042 18.4118C23.123 20.1347 22.0947 21.8422 21.1191 23.5344C20.1702 25.2255 19.2986 26.8469 18.5044 28.3987C17.7359 29.9227 17.0944 31.2817 16.58 32.4758C17.3015 32.5013 18.2064 32.0929 19.2948 31.2503C20.3822 30.3812 21.5525 29.2419 22.8058 27.8326C24.0592 26.4233 25.3581 24.8121 26.7026 22.999C28.0461 21.1592 29.3204 19.2554 30.5256 17.2876C31.7573 15.3187 32.883 13.3672 33.9027 11.4332C34.9223 9.49919 35.7477 7.71943 36.3789 6.09392C36.6699 5.33548 36.8231 4.8092 36.8385 4.51505C36.8528 4.19426 36.7406 4.05181 36.5018 4.0877C36.2896 4.12256 35.9632 4.3086 35.5225 4.64582C35.1085 4.98201 34.6315 5.41403 34.0914 5.94188Z" fill="black"/>
</svg>
