<svg width="561" height="51" viewBox="0 0 561 51" fill="none" xmlns="http://www.w3.org/2000/svg">
  <path d="M560.459 37.6481L554.699 42.3841C553.163 41.4027 552.117 40.3574 551.563 39.2481C551.051 38.1387 550.795 36.6241 550.795 34.7041V19.4081L547.915 16.9121L543.371 20.2401V36.1121L545.099 38.2881L540.491 42.3841L535.627 38.2881L537.419 36.3041V19.8561C537.419 18.7467 536.907 17.7654 535.883 16.9121L534.859 17.6161L534.219 16.9121L539.467 12.1121C542.155 13.7334 543.499 15.9734 543.499 18.8321C545.291 17.5094 546.869 16.2934 548.235 15.1841C549.6 14.0747 550.752 13.0934 551.691 12.2401L556.107 16.3361L558.859 14.1601L559.499 14.8641C559.029 15.4614 558.56 16.1014 558.091 16.7841C557.621 17.4667 557.152 18.1707 556.683 18.8961V35.7281C556.981 36.4961 557.579 37.1787 558.475 37.7761L559.819 37.0081L560.459 37.6481Z" fill="black" fill-opacity="0.85"/>
  <path d="M530.525 37.4561C526.77 38.5654 523.613 40.2081 521.053 42.3841C517.682 39.9094 513.842 38.2241 509.533 37.3281C510.685 36.3894 511.261 34.7467 511.261 32.4001V17.2321C514.674 16.2934 517.703 14.5867 520.349 12.1121C524.359 14.7147 527.751 16.2081 530.525 16.5921V37.4561ZM524.509 37.3281V19.7281L517.149 16.9121V34.5761C517.874 34.8747 518.599 35.1734 519.325 35.4721C520.093 35.7707 520.882 36.0694 521.693 36.3681C522.802 36.7947 523.741 37.1147 524.509 37.3281Z" fill="black" fill-opacity="0.85"/>
  <path d="M505.765 2.7041L500.325 9.2321H499.493L501.029 2.7041H505.765ZM507.429 37.5841L501.605 42.3201C498.704 40.7841 497.36 38.6294 497.573 35.8561L497.637 34.7041V18.0001L495.781 16.0161L500.517 12.1121L505.445 16.2081L503.845 18.0001V35.7281C504.059 36.5814 504.656 37.2641 505.637 37.7761L506.789 37.0081L507.429 37.5841Z" fill="black" fill-opacity="0.85"/>
  <path d="M493.75 16.2721H487.222V34.8961L490.614 37.7121L492.406 36.3041L493.11 37.2001L487.35 42.1921C484.32 39.7601 481.632 38.1388 479.286 37.3281C480.438 36.1335 481.014 34.5975 481.014 32.7201V16.2081H478.774L478.838 15.3121L487.158 4.88013L487.222 13.0081H493.75V16.2721Z" fill="black" fill-opacity="0.85"/>
  <path d="M477.163 20.3681C472.469 23.6534 468.779 26.4481 466.091 28.7521V35.4081L471.467 37.7761L475.691 35.0881L476.395 35.8561C475.84 36.1974 475.264 36.5601 474.667 36.9441C474.112 37.3281 473.515 37.7547 472.875 38.2241L467.307 42.1281C464.448 40.5494 461.504 39.4827 458.475 38.9281C459.669 37.6907 460.267 36.1334 460.267 34.2561V17.1681C461.76 16.4854 463.211 15.7174 464.619 14.8641C466.069 14.0107 467.499 13.0934 468.907 12.1121L477.163 20.3681ZM472.107 22.4801L466.027 16.2721V27.2801L472.107 22.4801Z" fill="black" fill-opacity="0.85"/>
  <path d="M456.388 37.2001L450.564 42.1921C448.559 40.4428 445.53 38.8214 441.476 37.3281C442.586 36.0908 443.14 34.5548 443.14 32.7201V7.1841C443.14 5.94677 442.436 4.58144 441.028 3.0881C442.607 3.4721 444.015 4.15477 445.252 5.1361L445.956 5.07211C447.919 3.23744 450.116 2.14944 452.548 1.80811C450.458 3.34411 449.412 5.28544 449.412 7.63211V34.5761L454.084 37.5201L455.62 36.3681L456.388 37.2001Z" fill="black" fill-opacity="0.85"/>
  <path d="M438.757 36.1121C437.52 36.8374 436.176 37.7334 434.725 38.8001C434.426 39.0134 433.957 39.3974 433.317 39.9521C432.72 40.4641 431.952 41.1468 431.013 42.0001C429.776 41.4881 427.984 40.6561 425.637 39.5041L425.445 41.8081C425.317 43.1734 425.509 44.6241 426.021 46.1601C426.362 47.2694 427.173 48.6988 428.453 50.4481C426.618 50.1921 425.168 49.5948 424.101 48.6561C423.93 48.5708 423.674 48.3361 423.333 47.9521C422.992 47.5681 422.523 47.0561 421.925 46.4161C421.456 46.8428 421.029 47.1841 420.645 47.4401C420.261 47.7388 419.962 47.9734 419.749 48.1441C418.896 48.6561 418.064 48.9761 417.253 49.1041C418.96 47.0561 419.77 44.7734 419.685 42.2561L419.557 38.0321C419.088 37.8614 418.469 37.7761 417.701 37.7761H416.293V35.9201C416.976 35.6214 418.106 35.2374 419.685 34.7681V20.1761C419.685 18.2561 419.194 16.9974 418.213 16.4001L416.677 17.3601L415.973 16.8481L421.349 12.0481C423.909 13.4134 425.381 15.5041 425.765 18.3201L432.357 12.1121C436.624 13.5628 438.757 16.8268 438.757 21.9041V36.1121ZM433.061 37.2001V20.4321C433.061 20.0908 432.933 19.7494 432.677 19.4081C432.464 19.0241 432.186 18.6614 431.845 18.3201C431.504 17.9788 431.12 17.6801 430.693 17.4241C430.266 17.1681 429.861 16.9761 429.477 16.8481L425.637 20.2401V34.8961C426.96 35.2374 428.218 35.6001 429.413 35.9841C430.65 36.3681 431.866 36.7734 433.061 37.2001Z" fill="black" fill-opacity="0.85"/>
  <path d="M413.292 37.6481L407.532 42.3841C405.91 41.4881 404.823 40.4427 404.268 39.2481C403.756 38.1814 403.5 36.6667 403.5 34.7041V19.4081L400.748 16.9121L396.204 20.2401V36.1121L397.868 38.2881L393.324 42.3841L388.396 38.2881L390.316 36.3041V19.8561C390.316 18.9174 389.462 17.8721 387.756 16.7201L382.7 20.4961V36.1121L384.428 38.2881L379.756 42.3841L375.02 38.2881L376.748 36.3041V19.8561C376.748 18.7041 376.214 17.7227 375.148 16.9121L374.124 17.6161L373.548 16.9121L378.668 12.1121C381.441 13.6054 382.828 15.8667 382.828 18.8961L392.108 12.1121C394.199 13.9894 395.564 16.2294 396.204 18.8321C398.166 17.3814 400.94 15.1841 404.524 12.2401L408.876 16.3361L411.5 14.1601L412.204 14.8641C411.948 15.2054 411.692 15.5467 411.436 15.8881C411.223 16.1867 411.009 16.4854 410.796 16.7841C410.497 17.2107 410.22 17.5947 409.964 17.9361C409.751 18.2774 409.559 18.5974 409.388 18.8961V35.7281C409.729 36.4961 410.369 37.1787 411.308 37.7761L412.524 37.0081L413.292 37.6481Z" fill="black" fill-opacity="0.85"/>
  <path d="M369.15 37.4561C365.395 38.5654 362.238 40.2081 359.678 42.3841C356.307 39.9094 352.467 38.2241 348.158 37.3281C349.31 36.3894 349.886 34.7467 349.886 32.4001V17.2321C353.299 16.2934 356.328 14.5867 358.974 12.1121C362.984 14.7147 366.376 16.2081 369.15 16.5921V37.4561ZM363.134 37.3281V19.7281L355.774 16.9121V34.5761C356.499 34.8747 357.224 35.1734 357.95 35.4721C358.718 35.7707 359.507 36.0694 360.318 36.3681C361.427 36.7947 362.366 37.1147 363.134 37.3281Z" fill="black" fill-opacity="0.85"/>
  <path d="M347.005 31.4401C343.805 37.7974 339.432 41.4241 333.885 42.3201C333.245 42.4054 332.563 42.4694 331.837 42.5121C331.155 42.5974 330.429 42.6401 329.661 42.6401C326.333 42.6401 323.24 41.9574 320.381 40.5921C317.309 39.0134 314.984 36.8587 313.405 34.1281C311.656 31.0134 310.781 27.5787 310.781 23.8241C310.781 19.3867 311.869 15.3761 314.045 11.7921C316.392 7.95208 319.571 5.37074 323.581 4.04808C318.419 8.31474 315.837 13.5414 315.837 19.7281C315.837 23.6107 317.139 27.2587 319.741 30.6721C320.339 29.5627 320.637 27.9414 320.637 25.8081V10.5761L333.053 0.0800781C337.064 2.51208 341.245 3.72808 345.597 3.72808L340.093 9.74408C338.728 9.18941 337.299 8.65608 335.805 8.14408C334.355 7.58941 332.861 7.05608 331.325 6.54408V36.8801C331.667 36.8801 332.179 36.9441 332.861 37.0721C333.544 37.1574 334.056 37.2001 334.397 37.2001C337.085 37.2001 339.688 36.3681 342.205 34.7041C342.333 34.6187 342.76 34.2987 343.485 33.7441C344.253 33.1894 345.32 32.4001 346.685 31.3761L347.005 31.4401ZM329.789 36.6881V5.52008L327.037 7.76008V19.7921C327.037 22.2667 326.461 24.4214 325.309 26.2561C324.456 27.5787 322.877 29.2641 320.573 31.3121C322.792 33.9574 325.864 35.7494 329.789 36.6881Z" fill="black" fill-opacity="0.85"/>
  <path d="M288.189 36.4961L281.853 42.1921C279.549 40.4428 276.477 38.8215 272.637 37.3281C273.704 36.2615 274.237 34.7255 274.237 32.7201V16.2721H270.973L271.549 13.0081H274.365V6.48014C276.584 5.49881 278.909 3.92014 281.341 1.74414L287.485 3.21614L286.205 7.63214L280.701 6.48014V13.0081H285.501L285.053 16.2721H280.701V34.5761L285.309 37.5201L287.485 35.7281L288.189 36.4961Z" fill="black" fill-opacity="0.85"/>
  <path d="M267.087 37.4561C263.333 38.5654 260.175 40.2081 257.615 42.3841C254.245 39.9094 250.405 38.2241 246.095 37.3281C247.247 36.3894 247.823 34.7467 247.823 32.4001V17.2321C251.237 16.2934 254.266 14.5867 256.911 12.1121C260.922 14.7147 264.314 16.2081 267.087 16.5921V37.4561ZM261.071 37.3281V19.7281L253.711 16.9121V34.5761C254.437 34.8747 255.162 35.1734 255.887 35.4721C256.655 35.7707 257.445 36.0694 258.255 36.3681C259.365 36.7947 260.303 37.1147 261.071 37.3281Z" fill="black" fill-opacity="0.85"/>
  <path d="M223.475 20.3681C218.782 23.6534 215.091 26.4481 212.403 28.7521V35.4081L217.779 37.7761L222.003 35.0881L222.707 35.8561C222.152 36.1974 221.576 36.5601 220.979 36.9441C220.424 37.3281 219.827 37.7547 219.187 38.2241L213.619 42.1281C210.76 40.5494 207.816 39.4827 204.787 38.9281C205.982 37.6907 206.579 36.1334 206.579 34.2561V17.1681C208.072 16.4854 209.523 15.7174 210.931 14.8641C212.382 14.0107 213.811 13.0934 215.219 12.1121L223.475 20.3681ZM218.419 22.4801L212.339 16.2721V27.2801L218.419 22.4801Z" fill="black" fill-opacity="0.85"/>
  <path d="M202.5 16.2721H195.972V34.8961L199.364 37.7121L201.156 36.3041L201.86 37.2001L196.1 42.1921C193.07 39.7601 190.382 38.1388 188.036 37.3281C189.188 36.1335 189.764 34.5975 189.764 32.7201V16.2081H187.524L187.588 15.3121L195.908 4.88013L195.972 13.0081H202.5V16.2721Z" fill="black" fill-opacity="0.85"/>
  <path d="M185.829 37.5841L180.325 42.1921C177.594 40.7414 176.229 38.4374 176.229 35.2801L167.525 42.2561H167.205C164.175 39.4401 162.661 36.7094 162.661 34.0641C162.661 30.1388 164.773 26.2774 168.997 22.4801L165.925 14.4801L166.757 14.5441C169.146 14.7574 171.343 13.9254 173.349 12.0481L182.437 15.0561L184.229 13.6481L184.357 13.9041C183.333 15.4828 182.607 17.1254 182.181 18.8321V35.6001C182.479 36.6668 183.077 37.3281 183.973 37.5841L185.125 37.0081L185.829 37.5841ZM176.229 25.5521V18.5121L166.949 15.0561L169.637 22.3521L176.229 25.5521ZM176.293 33.6161V26.7041L169.637 23.3761C168.399 25.5948 167.781 27.6854 167.781 29.6481C167.781 32.5494 169.018 35.2374 171.493 37.7121L176.293 33.6161Z" fill="black" fill-opacity="0.85"/>
  <path d="M160.054 36.4321C158.731 37.4134 157.43 38.3734 156.15 39.3121C154.87 40.2507 153.59 41.1894 152.31 42.1281C149.238 39.9947 146.294 38.6294 143.478 38.0321C144.63 37.0081 145.206 35.4934 145.206 33.4881V17.1681C146.656 16.5707 148.022 15.8454 149.302 14.9921C150.624 14.1387 151.883 13.1787 153.078 12.1121L159.542 16.1441L156.79 20.0481L151.03 16.7841V34.9601L156.662 37.7761L159.414 35.7281L160.054 36.4321Z" fill="black" fill-opacity="0.85"/>
  <path d="M139.39 2.7041L133.95 9.2321H133.118L134.654 2.7041H139.39ZM141.054 37.5841L135.23 42.3201C132.329 40.7841 130.985 38.6294 131.198 35.8561L131.262 34.7041V18.0001L129.406 16.0161L134.142 12.1121L139.07 16.2081L137.47 18.0001V35.7281C137.684 36.5814 138.281 37.2641 139.262 37.7761L140.414 37.0081L141.054 37.5841Z" fill="black" fill-opacity="0.85"/>
  <path d="M127.439 36.4961L121.103 42.1921C118.799 40.4428 115.727 38.8215 111.887 37.3281C112.954 36.2615 113.487 34.7255 113.487 32.7201V16.2721H110.223L110.799 13.0081H113.615V6.48014C115.834 5.49881 118.159 3.92014 120.591 1.74414L126.735 3.21614L125.455 7.63214L119.951 6.48014V13.0081H124.751L124.303 16.2721H119.951V34.5761L124.559 37.5201L126.735 35.7281L127.439 36.4961Z" fill="black" fill-opacity="0.85"/>
  <path d="M106.328 2.7041L100.888 9.2321H100.056L101.592 2.7041H106.328ZM107.992 37.5841L102.168 42.3201C99.2664 40.7841 97.9224 38.6294 98.1357 35.8561L98.1998 34.7041V18.0001L96.3438 16.0161L101.08 12.1121L106.008 16.2081L104.408 18.0001V35.7281C104.621 36.5814 105.218 37.2641 106.2 37.7761L107.352 37.0081L107.992 37.5841Z" fill="black" fill-opacity="0.85"/>
  <path d="M94.3122 16.2721H87.7842V34.8961L91.1762 37.7121L92.9682 36.3041L93.6722 37.2001L87.9122 42.1921C84.8828 39.7601 82.1948 38.1388 79.8482 37.3281C81.0002 36.1335 81.5762 34.5975 81.5762 32.7201V16.2081H79.3362L79.4002 15.3121L87.7202 4.88013L87.7842 13.0081H94.3122V16.2721Z" fill="black" fill-opacity="0.85"/>
  <path d="M78.7537 16.7201L74.5297 20.3681L70.6897 16.5921L68.1937 18.5121V35.0881L71.6497 37.7761L73.5057 36.4321L74.2737 37.2001L68.4497 42.1921C66.0604 40.1441 63.3297 38.5227 60.2577 37.3281C61.4097 36.3894 61.9857 34.8534 61.9857 32.7201V19.8561C61.9857 18.7467 61.4737 17.7654 60.4497 16.9121L59.3617 17.6161L58.6577 16.9121L64.0977 12.1121C65.4204 12.7947 66.3377 13.4347 66.8497 14.0321C67.5324 14.7574 67.9591 15.7814 68.1297 17.1041L74.5937 12.1761L78.7537 16.7201Z" fill="black" fill-opacity="0.85"/>
  <path d="M56.6629 20.3681C51.9695 23.6534 48.2789 26.4481 45.5909 28.7521V35.4081L50.9669 37.7761L55.1909 35.0881L55.8949 35.8561C55.3402 36.1974 54.7642 36.5601 54.1669 36.9441C53.6122 37.3281 53.0149 37.7547 52.3749 38.2241L46.8069 42.1281C43.9482 40.5494 41.0042 39.4827 37.9749 38.9281C39.1695 37.6907 39.7669 36.1334 39.7669 34.2561V17.1681C41.2602 16.4854 42.7109 15.7174 44.1189 14.8641C45.5695 14.0107 46.9989 13.0934 48.4069 12.1121L56.6629 20.3681ZM51.6069 22.4801L45.5269 16.2721V27.2801L51.6069 22.4801Z" fill="black" fill-opacity="0.85"/>
  <path d="M36.6303 31.4401C33.4303 37.7974 29.0569 41.4241 23.5103 42.3201C22.8703 42.4054 22.1876 42.4694 21.4623 42.5121C20.7796 42.5974 20.0543 42.6401 19.2863 42.6401C15.9583 42.6401 12.8649 41.9574 10.0063 40.5921C6.93425 39.0134 4.60892 36.8587 3.03025 34.1281C1.28092 31.0134 0.40625 27.5787 0.40625 23.8241C0.40625 19.3867 1.49425 15.3761 3.67025 11.7921C6.01692 7.95208 9.19558 5.37074 13.2063 4.04808C8.04358 8.31474 5.46225 13.5414 5.46225 19.7281C5.46225 23.6107 6.76358 27.2587 9.36625 30.6721C9.96358 29.5627 10.2623 27.9414 10.2623 25.8081V10.5761L22.6783 0.0800781C26.6889 2.51208 30.8703 3.72808 35.2223 3.72808L29.7183 9.74408C28.3529 9.18941 26.9236 8.65608 25.4303 8.14408C23.9796 7.58941 22.4863 7.05608 20.9503 6.54408V36.8801C21.2916 36.8801 21.8036 36.9441 22.4863 37.0721C23.1689 37.1574 23.6809 37.2001 24.0223 37.2001C26.7103 37.2001 29.3129 36.3681 31.8303 34.7041C31.9583 34.6187 32.3849 34.2987 33.1103 33.7441C33.8783 33.1894 34.9449 32.4001 36.3103 31.3761L36.6303 31.4401ZM19.4143 36.6881V5.52008L16.6623 7.76008V19.7921C16.6623 22.2667 16.0863 24.4214 14.9343 26.2561C14.0809 27.5787 12.5023 29.2641 10.1983 31.3121C12.4169 33.9574 15.4889 35.7494 19.4143 36.6881Z" fill="black" fill-opacity="0.85"/>
</svg>
