<svg width="162" height="39" viewBox="0 0 162 39" fill="none" xmlns="http://www.w3.org/2000/svg">
  <mask id="mask0_631_309" style="mask-type:luminance" maskUnits="userSpaceOnUse" x="0" y="0" width="39" height="39">
    <path d="M38.8556 0.0415039H0.864746V38.0324H38.8556V0.0415039Z" fill="white"/>
  </mask>
  <g mask="url(#mask0_631_309)">
    <path d="M19.8842 7.16475V4.79004C16.0744 4.79004 12.4931 6.27194 9.79904 8.96231C7.10409 11.6527 5.62036 15.2313 5.62036 19.0356C5.62036 22.8399 7.10409 26.4176 9.79904 29.1107C12.494 31.8001 16.0762 33.2811 19.8842 33.2811V30.9064C16.7085 30.9064 13.7226 29.6713 11.4764 27.4287C9.23106 25.1852 7.99416 22.204 7.99416 19.0337C7.99416 15.8635 9.23106 12.8832 11.4764 10.6397C13.7217 8.39799 16.7075 7.16383 19.8842 7.16383V7.16475Z" fill="#BF8C0A"/>
    <path d="M19.8831 24.9716C23.1662 24.9716 25.8272 22.3143 25.8272 19.0357C25.8272 15.7572 23.1653 13.0999 19.8831 13.0999C16.6009 13.0999 13.939 15.7572 13.939 19.0357C13.939 22.3143 16.6 24.9716 19.8831 24.9716Z" fill="#BF8C0A"/>
    <path d="M36.4864 20.2403C36.2515 23.4757 35.0834 26.5478 33.1115 29.1262C31.1387 31.7046 28.4759 33.638 25.4093 34.7134C22.3464 35.7906 19.0587 35.9503 15.9013 35.174C12.7457 34.3977 9.90852 32.7305 7.6953 30.3539C5.48208 27.9783 4.02405 25.0328 3.47717 21.8341C2.93028 18.6373 3.32668 15.3743 4.62415 12.3995C5.92162 9.42469 8.04491 6.91233 10.7619 5.13496C13.4816 3.35576 16.6363 2.41524 19.8854 2.41524V0.0405273C16.1729 0.0405273 12.5686 1.11502 9.46257 3.14656C6.35654 5.17809 3.93137 8.04831 2.44855 11.4489C0.964811 14.8495 0.512447 18.5785 1.13641 22.2333C1.76128 25.889 3.42854 29.2556 5.95741 31.9707C8.48628 34.6859 11.7281 36.5899 15.3342 37.4772C16.8363 37.8479 18.3641 38.0314 19.89 38.0314C22.0262 38.0314 24.1559 37.6689 26.1976 36.9523C29.7 35.7237 32.7427 33.515 34.9972 30.5677C37.2517 27.6223 38.5858 24.1107 38.8547 20.411L36.4874 20.2403H36.4864Z" fill="#BF8C0A"/>
    <path d="M38.7183 16.4051C38.1696 12.4824 36.4409 8.8855 33.7175 6.00244L31.9924 7.63208C34.3745 10.1536 35.8867 13.3009 36.3675 16.7336L38.7183 16.4051Z" fill="#BF8C0A"/>
    <path d="M31.9299 4.338C31.2647 3.7957 30.5609 3.29562 29.836 2.85059L28.5955 4.87478C29.2295 5.26383 29.8452 5.70245 30.4279 6.17684L31.9309 4.338H31.9299Z" fill="#BF8C0A"/>
  </g>
  <path d="M148.869 30.683V9.67188H162.001V11.7292H151.014V18.9956H160.25V21.0529H151.014V28.6256H162.001V30.683H148.869Z" fill="#BF8C0A"/>
  <path d="M130.459 30.683V9.67188H138.571C138.776 9.67188 139.004 9.6816 139.257 9.70106C139.52 9.71078 139.782 9.73997 140.045 9.7886C141.144 9.95397 142.073 10.3382 142.832 10.9413C143.6 11.5347 144.179 12.2837 144.568 13.1883C144.967 14.093 145.167 15.0949 145.167 16.1941C145.167 17.7796 144.748 19.1561 143.912 20.3233C143.075 21.4906 141.879 22.225 140.322 22.5266L139.578 22.7017H132.604V30.683H130.459ZM143.182 30.683L139.038 22.1326L141.096 21.3447L145.648 30.683H143.182ZM132.604 20.6589H138.513C138.688 20.6589 138.892 20.6492 139.126 20.6298C139.359 20.6103 139.588 20.5763 139.812 20.5276C140.531 20.372 141.12 20.0753 141.577 19.6376C142.044 19.1998 142.389 18.6794 142.613 18.0763C142.847 17.4732 142.963 16.8458 142.963 16.1941C142.963 15.5423 142.847 14.9149 142.613 14.3118C142.389 13.699 142.044 13.1737 141.577 12.736C141.12 12.2983 140.531 12.0016 139.812 11.8459C139.588 11.7973 139.359 11.7681 139.126 11.7584C138.892 11.7389 138.688 11.7292 138.513 11.7292H132.604V20.6589Z" fill="#BF8C0A"/>
  <path d="M117.847 31.1205C115.756 31.1205 113.99 30.6584 112.551 29.7343C111.111 28.8005 110.022 27.5116 109.282 25.8677C108.543 24.2238 108.173 22.3269 108.173 20.1772C108.173 18.0274 108.543 16.1306 109.282 14.4867C110.022 12.8427 111.111 11.5587 112.551 10.6346C113.99 9.7008 115.756 9.23389 117.847 9.23389C119.948 9.23389 121.714 9.7008 123.144 10.6346C124.583 11.5587 125.673 12.8427 126.412 14.4867C127.161 16.1306 127.536 18.0274 127.536 20.1772C127.536 22.3269 127.161 24.2238 126.412 25.8677C125.673 27.5116 124.583 28.8005 123.144 29.7343C121.714 30.6584 119.948 31.1205 117.847 31.1205ZM117.847 29.0631C119.491 29.0631 120.863 28.6886 121.962 27.9396C123.061 27.1906 123.883 26.1498 124.428 24.8171C124.982 23.4747 125.259 21.9281 125.259 20.1772C125.259 18.4262 124.982 16.8845 124.428 15.5518C123.883 14.2192 123.061 13.1783 121.962 12.4293C120.863 11.6803 119.491 11.301 117.847 11.2912C116.203 11.2912 114.837 11.6657 113.747 12.4147C112.658 13.1637 111.836 14.2094 111.281 15.5518C110.737 16.8845 110.459 18.4262 110.45 20.1772C110.44 21.9281 110.707 23.4699 111.252 24.8025C111.807 26.1255 112.633 27.1663 113.733 27.925C114.832 28.674 116.203 29.0534 117.847 29.0631Z" fill="#BF8C0A"/>
  <path d="M96.958 31.1205C94.8667 31.1205 93.1011 30.6584 91.6615 29.7343C90.2218 28.8005 89.1324 27.5116 88.3931 25.8677C87.6538 24.2238 87.2842 22.3269 87.2842 20.1772C87.2842 18.0274 87.6538 16.1306 88.3931 14.4867C89.1324 12.8427 90.2218 11.5587 91.6615 10.6346C93.1011 9.7008 94.8667 9.23389 96.958 9.23389C99.3996 9.23389 101.394 9.8613 102.94 11.1161C104.487 12.3612 105.547 14.0343 106.121 16.1355L103.933 16.7045C103.485 15.0411 102.683 13.7231 101.525 12.7503C100.367 11.7776 98.8452 11.2912 96.958 11.2912C95.3141 11.2912 93.9474 11.6657 92.858 12.4147C91.7685 13.1637 90.9465 14.2094 90.3921 15.5518C89.8473 16.8845 89.5652 18.4262 89.5458 20.1772C89.5361 21.9281 89.8036 23.4699 90.3483 24.8025C90.9028 26.1352 91.7296 27.1809 92.8288 27.9396C93.9377 28.6886 95.3141 29.0631 96.958 29.0631C98.8452 29.0631 100.367 28.5767 101.525 27.604C102.683 26.6215 103.485 25.3035 103.933 23.6498L106.121 24.2189C105.547 26.32 104.487 27.998 102.94 29.2528C101.394 30.4979 99.3996 31.1205 96.958 31.1205Z" fill="#BF8C0A"/>
  <path d="M69.8889 30.683L77.1698 20.0461L70.0786 9.67188H72.6758L78.4393 18.2514L84.2027 9.67188H86.8145L79.7233 20.0461L86.9896 30.683H84.3924L78.4393 21.8554L72.5007 30.683H69.8889Z" fill="#BF8C0A"/>
  <path d="M59.3486 31.1207C57.7436 31.1207 56.3234 30.79 55.088 30.1285C53.8624 29.4671 52.8994 28.5332 52.199 27.327C51.4986 26.1208 51.1484 24.7104 51.1484 23.0956V9.68647L53.3079 9.67188V22.8184C53.3079 23.9079 53.4927 24.8514 53.8624 25.6491C54.232 26.437 54.7135 27.0887 55.3069 27.6043C55.91 28.1101 56.5666 28.4846 57.2767 28.7278C57.9868 28.971 58.6774 29.0926 59.3486 29.0926C60.0295 29.0926 60.725 28.971 61.4351 28.7278C62.1452 28.4846 62.797 28.1101 63.3903 27.6043C63.9837 27.0887 64.4652 26.437 64.8348 25.6491C65.2045 24.8514 65.3893 23.9079 65.3893 22.8184V9.67188H67.5488V23.0956C67.5488 24.7104 67.1986 26.1208 66.4982 27.327C65.7978 28.5235 64.83 29.4573 63.5946 30.1285C62.369 30.79 60.9536 31.1207 59.3486 31.1207Z" fill="#BF8C0A"/>
</svg>
