<svg width="0" height="0" class="hidden">
  <symbol fill="none" xmlns="http://www.w3.org/2000/svg" viewBox="0 0 20 19" id="GoogleIcon">
    <path d="M9.64383 3.834C11.0724 3.834 12.3476 4.326 13.3565 5.28675L16.1167 2.526C14.446 
    0.960747 12.2589 0 9.64383 0C5.85865 0 2.58993 2.17949 1 5.34299L4.21218 7.83674C4.9789 
    5.53649 7.11768 3.834 9.64383 3.834Z" fill="#D43B28"></path>
    <path d="M4.50333 10.7833C4.30158 10.202 4.19665 9.58028 4.19665 8.93528C4.19665 8.28953 4.3096 7.66777 
    4.50333 7.08652V4.59277H1.29115C0.629349 5.90002 0.25 7.36928 0.25 8.93528C0.25 10.5005 0.629349 11.9698 
    1.29115 13.277L4.50333 10.7833Z" fill="#FBBC05"></path>
    <path d="M9.93484 18.62C12.5499 18.62 14.737 17.7485 16.335 16.2717L13.2197 13.85C12.348 14.4312 11.2423 
    14.786 9.93484 14.786C7.40869 14.786 5.26992 13.0835 4.50319 10.7832H1.29102V13.277C2.88094 16.4412 6.14967 18.62 9.93484 18.62Z" fill="#34A853"></path>
    <path d="M19.2089 9.15305C19.2089 8.51555 19.1524 7.90955 19.0555 7.3208H9.93555V10.9605H15.1573C14.9233 12.1553 14.2372 
    13.164 13.2203 13.8503V16.2713H16.3357C18.1597 14.5845 19.2089 12.0983 19.2089 9.15305Z" fill="#4285F4"></path>
  </symbol>
  <symbol xmlns="http://www.w3.org/2000/svg" fill="none" viewBox="0 0 75 29" id="GoogleIconGrey">
    <path d="M32.096 14.612c0 3.465-2.779 6.018-6.189 6.018s-6.189-2.553-6.189-6.018c0-3.489 2.779-6.018 6.189-6.018s6.189 2.529 6.189 6.018zm-2.709 0c0-2.165-1.611-3.647-3.48-3.647s-3.48 1.481-3.48 3.647c0 2.144 1.611 3.647 3.48 3.647s3.48-1.506 3.48-3.647zm16.06 0c0 3.465-2.779 6.018-6.189 6.018s-6.189-2.553-6.189-6.018c0-3.487 2.779-6.018 6.189-6.018s6.189 2.529 6.189 6.018zm-2.709 0c0-2.165-1.611-3.647-3.48-3.647s-3.48 1.481-3.48 3.647c0 2.144 1.611 3.647 3.48 3.647s3.48-1.506 3.48-3.647zm15.503-5.654v10.804c0 4.444-2.687 6.259-5.863 6.259a5.87 5.87 0 0 1-5.469-3.546l2.359-.958c.42.979 1.449 2.135 3.107 2.135 2.033 0 3.293-1.224 3.293-3.527v-.865h-.095c-.606.73-1.775 1.367-3.249 1.367-3.085 0-5.91-2.621-5.91-5.994 0-3.397 2.826-6.04 5.91-6.04 1.471 0 2.64.638 3.249 1.346h.095V8.96h2.573v-.003zm-2.381 5.676c0-2.119-1.449-3.668-3.293-3.668-1.869 0-3.435 1.549-3.435 3.668 0 2.097 1.566 3.625 3.435 3.625 1.844 0 3.293-1.528 3.293-3.625zm6.623-12.009v17.636h-2.642V2.625h2.642zm10.298 13.968l2.103 1.367c-.679.98-2.314 2.667-5.14 2.667-3.505 0-6.122-2.643-6.122-6.018 0-3.579 2.64-6.018 5.819-6.018 3.201 0 4.767 2.485 5.279 3.829l.281.684-8.247 3.332c.631 1.207 1.613 1.823 2.99 1.823s2.337-.662 3.037-1.666zm-6.472-2.165l5.513-2.233c-.303-.752-1.215-1.275-2.289-1.275a3.34 3.34 0 0 0-3.224 3.508zM9.716 13.047v-2.553h8.82a8.26 8.26 0 0 1 .131 1.541c0 1.916-.537 4.284-2.267 5.972-1.683 1.709-3.833 2.621-6.681 2.621-5.28 0-9.719-4.195-9.719-9.345s4.439-9.345 9.719-9.345a9.24 9.24 0 0 1 6.564 2.575l-1.847 1.802c-1.121-1.026-2.64-1.823-4.72-1.823-3.855 0-6.87 3.031-6.87 6.791s3.015 6.791 6.87 6.791c2.501 0 3.925-.98 4.837-1.869.74-.722 1.227-1.753 1.419-3.161l-6.256.003z" fill="#9e9e9e"></path>
    <defs>
      <clipPath>
        <path fill="#fff" d="M0 0h75v29H0z"></path>
      </clipPath>
    </defs>
  </symbol>
  <symbol fill="none" xmlns="http://www.w3.org/2000/svg" viewBox="0 0 102 29" id="MetaLogo">
    <path d="M3.3419 16.7115C3.3419 17.8516 3.6012 18.727 3.94013 19.2566C4.38449 19.9502 5.04728 20.2441 5.72297 20.2441C6.59449 20.2441 7.39177 20.0354 8.92823 17.9845C10.1591 16.3407 11.6095 14.0334 12.5854 12.5869L14.238 10.1363C15.3861 8.43441 16.7149 6.54246 18.2384 5.26004C19.4822 4.21334 20.8239 3.63184 22.1742 3.63184C24.4413 3.63184 26.6007 4.89972 28.2534 7.27764C30.062 9.88193 30.94 13.1622 30.94 16.5474C30.94 18.5598 30.529 20.0385 29.8296 21.2067C29.1539 22.3364 27.837 23.4652 25.6216 23.4652V20.2441C27.5185 20.2441 27.9919 18.5619 27.9919 16.6367C27.9919 13.8932 27.3291 10.8487 25.8691 8.67324C24.8329 7.13019 23.4901 6.18732 22.0128 6.18732C20.4151 6.18732 19.1293 7.35033 17.6843 9.424C16.9161 10.5257 16.1274 11.8684 15.2419 13.3834L14.2671 15.05C12.3089 18.4009 11.8128 19.1641 10.8337 20.4237C9.1176 22.6293 7.65215 23.4652 5.72297 23.4652C3.43443 23.4652 1.98728 22.5088 1.09101 21.0675C0.359367 19.8931 0 18.3521 0 16.5962L3.3419 16.7115Z" fill="#0081FB"></path>
    <path d="M2.63525 7.50505C4.16741 5.22577 6.37848 3.63184 8.91449 3.63184C10.3832 3.63184 11.8432 4.05135 13.3678 5.25277C15.0356 6.56634 16.813 8.72931 19.0306 12.2941L19.8257 13.5734C21.7452 16.6595 22.8373 18.2472 23.4764 18.9959C24.2984 19.9575 24.8741 20.2441 25.6218 20.2441C27.5187 20.2441 27.9922 18.5619 27.9922 16.6367L30.9403 16.5474C30.9403 18.5598 30.5292 20.0385 29.8299 21.2067C29.1542 22.3364 27.8372 23.4652 25.6218 23.4652C24.2446 23.4652 23.0245 23.1765 21.6753 21.9481C20.638 21.0052 19.4254 19.3303 18.4926 17.8246L15.7177 13.3512C14.3254 11.1062 13.0483 9.43231 12.3091 8.67428C11.514 7.85914 10.4918 6.87474 8.8607 6.87474C7.54051 6.87474 6.41937 7.7688 5.48114 9.13636L2.63525 7.50505Z" fill="url(#paint0_linear_42616_901)"></path>
    <path d="M8.86044 6.87474C7.54025 6.87474 6.41911 7.7688 5.48089 9.13636C4.15424 11.0688 3.3419 13.9472 3.3419 16.7115C3.3419 17.8516 3.6012 18.727 3.94013 19.2566L1.09101 21.0675C0.359367 19.8931 0 18.3521 0 16.5962C0 13.4031 0.908101 10.0751 2.635 7.50505C4.16715 5.22577 6.37823 3.63184 8.91424 3.63184L8.86044 6.87474Z" fill="url(#paint1_linear_42616_901)"></path>
    <path d="M37.4365 4.25879H41.3024L47.8754 15.7351L54.4494 4.25879H58.2314V23.116H55.0778V8.66366L49.3129 18.6717H46.354L40.5901 8.66366V23.116H37.4365V4.25879ZM68.1129 11.2898C65.8513 11.2898 64.4891 12.9325 64.1631 14.9667H71.8389C71.6808 12.8712 70.4284 11.2898 68.1129 11.2898ZM61.0364 16.1256C61.0364 11.8453 63.9027 8.73012 68.1678 8.73012C72.3629 8.73012 74.8677 11.8058 74.8677 16.354V17.1899H64.1631C64.5429 19.4027 66.0643 20.8939 68.5175 20.8939C70.4746 20.8939 71.698 20.3176 72.8579 19.2636L74.5331 21.2438C72.9547 22.6446 70.947 23.4525 68.4056 23.4525C63.7887 23.4525 61.0364 20.2033 61.0364 16.1256ZM78.6917 11.5597H75.7887V9.06759H78.6917V4.94621H81.7344V9.06759H86.1448V11.5597H81.7344V17.8763C81.7344 20.033 82.4489 20.7994 84.2048 20.7994C85.0064 20.7994 85.4658 20.7329 86.1448 20.6239V23.089C85.2991 23.3196 84.4921 23.4255 83.6184 23.4255C80.3335 23.4255 78.6917 21.6934 78.6917 18.2262V11.5597ZM98.9572 13.9834C98.346 12.4943 96.9828 11.3978 94.9794 11.3978C92.3756 11.3978 90.7089 13.1807 90.7089 16.0851C90.7089 18.9168 92.2432 20.7859 94.8546 20.7859C96.9075 20.7859 98.3729 19.6333 98.9572 18.1992V13.9834ZM102 23.116H99.0131V21.1493C98.1782 22.3071 96.6589 23.4525 94.1982 23.4525C90.2409 23.4525 87.5962 20.2553 87.5962 16.0851C87.5962 11.8754 90.3044 8.73012 94.3661 8.73012C96.3738 8.73012 97.949 9.50476 99.0131 10.8723V9.06759H102V23.116Z" fill="#192830"></path>
    <defs>
      <linearGradient id="paint0_linear_42616_901" x1="6.56354" y1="15.7811" x2="27.8634" y2="16.8957" gradientUnits="userSpaceOnUse">
        <stop stop-color="#0064E1"></stop>
        <stop offset="0.4" stop-color="#0064E1"></stop>
        <stop offset="0.83" stop-color="#0073EE"></stop>
        <stop offset="1" stop-color="#0082FB"></stop>
      </linearGradient>
      <linearGradient id="paint1_linear_42616_901" x1="4.84177" y1="18.0655" x2="4.84177" y2="10.4852" gradientUnits="userSpaceOnUse">
        <stop stop-color="#0082FB"></stop>
        <stop offset="1" stop-color="#0064E0"></stop>
      </linearGradient>
    </defs>
  </symbol>
</svg>
