<svg width="31" height="30" viewBox="0 0 31 30" fill="none" xmlns="http://www.w3.org/2000/svg">
  <path d="M15.1025 12.1248C13.5202 12.1248 12.2363 13.4087 12.2363 14.9909C12.2363 16.5732 13.5202 17.8571 15.1025 17.8571C16.6848 17.8571 17.9687 16.5732 17.9687 14.9909C17.9687 13.4087 16.6848 12.1248 15.1025 12.1248Z" fill="#303030"/>
  <path d="M18.6572 7.61279H11.3968C9.32627 7.61279 7.64453 9.29453 7.64453 11.3651V18.6255C7.64453 20.696 9.32627 22.3777 11.3968 22.3777H18.6572C20.7277 22.3777 22.4094 20.696 22.4094 18.6255V11.3651C22.4094 9.29453 20.7277 7.61279 18.6572 7.61279ZM15.1038 19.4663C12.6355 19.4663 10.6283 17.4591 10.6283 14.9907C10.6283 12.5224 12.6355 10.5151 15.1038 10.5151C17.5722 10.5151 19.5794 12.5224 19.5794 14.9907C19.5794 17.4591 17.5722 19.4663 15.1038 19.4663ZM19.8416 11.2746C19.2539 11.2746 18.7747 10.7954 18.7747 10.2077C18.7747 9.62003 19.2539 9.14082 19.8416 9.14082C20.4293 9.14082 20.9085 9.62003 20.9085 10.2077C20.9085 10.7954 20.4293 11.2746 19.8416 11.2746Z" fill="#303030"/>
  <path d="M15.0312 0C6.74915 0 0.03125 6.70886 0.03125 15C0.03125 23.2911 6.74915 30 15.0312 30C23.3133 30 30.0312 23.2821 30.0312 15C30.0312 6.7179 23.3133 0 15.0312 0ZM24.118 18.6257C24.118 21.6365 21.6678 24.0868 18.6569 24.0868H11.3965C8.38568 24.0868 5.93541 21.6365 5.93541 18.6257V11.3653C5.93541 8.35443 8.38568 5.90416 11.3965 5.90416H18.6569C21.6678 5.90416 24.118 8.35443 24.118 11.3653V18.6257Z" fill="#303030"/>
</svg>
