<svg xmlns="http://www.w3.org/2000/svg" width="131" height="27" fill="#000">
  <path
    d="M1.029.644V21H.313V.644h.716zm9.224 6.017L3.11 13.274.897 15.169l-.265-.517 2.081-1.961 6.52-6.03h1.02zM9.736 21l-6.852-8.058.464-.557L10.664 21h-.928zm8.323.265a5.86 5.86 0 0 1-2.452-.517 6.19 6.19 0 0 1-2.001-1.484 7.03 7.03 0 0 1-1.352-2.253c-.318-.875-.477-1.833-.477-2.876v-.583c0-1.051.155-2.01.464-2.876.318-.875.751-1.63 1.299-2.266.557-.645 1.197-1.14 1.922-1.484a5.25 5.25 0 0 1 2.333-.53c.795 0 1.524.15 2.187.451.663.292 1.237.707 1.723 1.246.495.539.875 1.184 1.14 1.935s.398 1.582.398 2.492v.835h-11v-.716h10.284v-.172c0-.963-.194-1.846-.583-2.651-.389-.813-.936-1.467-1.643-1.961s-1.542-.742-2.505-.742a4.68 4.68 0 0 0-2.173.504 5.14 5.14 0 0 0-1.67 1.392c-.468.583-.831 1.263-1.087 2.041-.247.777-.371 1.612-.371 2.505v.583c0 .892.141 1.727.424 2.505s.676 1.462 1.179 2.054a5.65 5.65 0 0 0 1.763 1.378c.68.327 1.414.49 2.2.49a6.29 6.29 0 0 0 2.293-.411c.716-.274 1.369-.795 1.961-1.564l.504.358c-.318.451-.702.853-1.153 1.206-.442.345-.963.618-1.564.822-.592.194-1.272.291-2.041.291zm13.677 0a5.86 5.86 0 0 1-2.452-.517 6.18 6.18 0 0 1-2.001-1.484 7.03 7.03 0 0 1-1.352-2.253c-.318-.875-.477-1.833-.477-2.876v-.583c0-1.051.155-2.01.464-2.876.318-.875.751-1.63 1.299-2.266.557-.645 1.197-1.14 1.922-1.484a5.25 5.25 0 0 1 2.332-.53c.795 0 1.524.15 2.187.451a5.01 5.01 0 0 1 1.723 1.246c.495.539.875 1.184 1.14 1.935s.398 1.582.398 2.492v.835h-11v-.716h10.284v-.172c0-.963-.194-1.846-.583-2.651-.389-.813-.936-1.467-1.643-1.961s-1.542-.742-2.505-.742a4.68 4.68 0 0 0-2.173.504 5.14 5.14 0 0 0-1.67 1.392c-.468.583-.831 1.263-1.087 2.041-.247.777-.371 1.612-.371 2.505v.583c0 .892.141 1.727.424 2.505a6.64 6.64 0 0 0 1.18 2.054 5.65 5.65 0 0 0 1.763 1.378c.68.327 1.414.49 2.2.49a6.29 6.29 0 0 0 2.293-.411c.716-.274 1.37-.795 1.961-1.564l.504.358c-.318.451-.702.853-1.153 1.206-.442.345-.963.618-1.564.822-.592.194-1.272.291-2.041.291zm9.21-11.848v17.096h-.716V6.661h.716v2.757zm10.271 4.267v.278c0 1.095-.124 2.089-.371 2.982-.239.892-.587 1.661-1.047 2.306a4.82 4.82 0 0 1-1.696 1.498c-.663.345-1.418.517-2.266.517-.804 0-1.528-.115-2.173-.344a5.31 5.31 0 0 1-1.683-.954c-.468-.406-.848-.866-1.14-1.378a5.61 5.61 0 0 1-.61-1.63v-5.831a7.66 7.66 0 0 1 .702-1.869 5.69 5.69 0 0 1 1.153-1.498 4.9 4.9 0 0 1 1.617-1.007c.627-.239 1.33-.358 2.107-.358.848 0 1.608.168 2.279.504s1.237.822 1.696 1.458c.468.627.822 1.392 1.06 2.293.247.892.371 1.904.371 3.035zm-.729.278v-.278c0-.954-.097-1.829-.292-2.624-.185-.804-.473-1.498-.861-2.081a4.03 4.03 0 0 0-1.458-1.378c-.583-.327-1.268-.49-2.054-.49-.901 0-1.661.15-2.279.451-.61.292-1.109.671-1.498 1.14-.38.459-.676.95-.888 1.471-.203.512-.353.99-.451 1.431v5.023c.159.724.451 1.383.875 1.975s.989 1.065 1.696 1.418c.716.353 1.573.53 2.571.53.786 0 1.467-.163 2.041-.49.583-.327 1.065-.782 1.444-1.365.389-.592.676-1.29.861-2.094.194-.804.292-1.683.292-2.637zm13.028 3.38a2.51 2.51 0 0 0-.291-1.153c-.194-.38-.57-.729-1.126-1.047-.548-.318-1.356-.588-2.425-.808-.795-.177-1.506-.376-2.134-.596-.618-.221-1.14-.486-1.564-.795s-.747-.68-.967-1.113-.331-.945-.331-1.537a3.37 3.37 0 0 1 .344-1.498 3.78 3.78 0 0 1 1.007-1.246c.442-.362.972-.645 1.59-.848.627-.203 1.33-.305 2.107-.305 1.104 0 2.05.19 2.836.57.795.371 1.4.879 1.816 1.524.424.645.636 1.374.636 2.187h-1.577c0-.495-.146-.963-.437-1.405-.283-.442-.702-.804-1.259-1.087-.548-.283-1.219-.424-2.014-.424-.822 0-1.489.124-2.001.371s-.888.561-1.126.941a2.25 2.25 0 0 0-.345 1.179 2.53 2.53 0 0 0 .146.875c.106.256.292.495.557.716.274.221.663.428 1.166.623s1.157.384 1.961.57c1.157.256 2.103.57 2.836.941.742.362 1.29.813 1.643 1.352.353.53.53 1.175.53 1.935 0 .592-.124 1.135-.371 1.63a3.63 3.63 0 0 1-1.073 1.259c-.459.353-1.016.627-1.67.822-.645.194-1.369.291-2.173.291-1.211 0-2.235-.199-3.075-.596-.831-.407-1.462-.937-1.895-1.59-.424-.663-.636-1.365-.636-2.107h1.577c.053.742.287 1.33.702 1.763.415.424.923.725 1.524.901a6.44 6.44 0 0 0 1.802.265c.813 0 1.493-.119 2.041-.358s.963-.552 1.246-.941.424-.808.424-1.259zm6.931-10.681V21H68.87V6.661h1.577zm-1.855-4.148a1.08 1.08 0 0 1 .278-.755c.194-.212.459-.318.795-.318s.601.106.795.318c.203.203.305.455.305.755 0 .292-.102.543-.305.755-.194.203-.459.305-.795.305s-.601-.102-.795-.305a1.11 1.11 0 0 1-.278-.755zm7.686 7.116V21h-1.59V6.661h1.524l.066 2.969zm-.292 3.313l-.769-.398c.053-.848.212-1.643.477-2.385a6.35 6.35 0 0 1 1.14-1.961 5.17 5.17 0 0 1 1.749-1.325c.68-.318 1.453-.477 2.319-.477.698 0 1.33.097 1.895.292.574.186 1.06.482 1.458.888.406.398.72.919.941 1.564s.331 1.418.331 2.319V21H83.95v-9.489c0-.954-.15-1.701-.451-2.24a2.51 2.51 0 0 0-1.233-1.153c-.521-.23-1.126-.345-1.816-.345-.813 0-1.502.168-2.067.504a4.12 4.12 0 0 0-1.365 1.286 5.93 5.93 0 0 0-.769 1.683 6.62 6.62 0 0 0-.265 1.696zm9.529-1.246l-1.06.027a5.97 5.97 0 0 1 .477-2.001 5.71 5.71 0 0 1 1.153-1.696c.486-.504 1.065-.901 1.736-1.193.68-.292 1.445-.437 2.293-.437.742 0 1.405.102 1.988.305.583.194 1.073.508 1.471.941.406.424.716.967.928 1.63s.318 1.458.318 2.385V21h-1.59v-9.356c0-1.016-.15-1.802-.451-2.359-.291-.565-.698-.959-1.219-1.179s-1.131-.331-1.829-.331c-.689.009-1.294.137-1.816.384a3.9 3.9 0 0 0-1.312.954 4.42 4.42 0 0 0-.795 1.259c-.177.451-.274.892-.292 1.325zm14.896-2.279v17.096h-1.59V6.661h1.484l.106 2.757zm9.966 4.281v.278c0 1.069-.123 2.05-.371 2.942s-.605 1.666-1.073 2.319a4.78 4.78 0 0 1-1.71 1.497c-.681.353-1.453.53-2.319.53-.857 0-1.621-.133-2.293-.398s-1.25-.641-1.736-1.126a5.96 5.96 0 0 1-1.153-1.723 8.73 8.73 0 0 1-.596-2.173v-3.671c.133-.866.349-1.652.649-2.359s.685-1.316 1.153-1.829a4.85 4.85 0 0 1 1.697-1.179c.653-.274 1.4-.411 2.239-.411.875 0 1.652.172 2.333.517.689.336 1.268.826 1.736 1.471.477.636.835 1.405 1.073 2.306.248.892.371 1.895.371 3.008zm-1.59.278v-.278c0-.839-.088-1.617-.265-2.332-.168-.716-.429-1.339-.782-1.869a3.69 3.69 0 0 0-1.325-1.259c-.53-.3-1.162-.451-1.895-.451-.76 0-1.41.128-1.948.384a3.85 3.85 0 0 0-1.326.994 4.96 4.96 0 0 0-.835 1.338 7.75 7.75 0 0 0-.45 1.431v4.228a6.2 6.2 0 0 0 .808 1.869 4.17 4.17 0 0 0 1.484 1.365c.628.336 1.392.504 2.293.504.725 0 1.352-.15 1.882-.451a3.73 3.73 0 0 0 1.312-1.259c.353-.539.614-1.166.782-1.882.177-.716.265-1.493.265-2.332zM115.665.644V21h-1.577V.644h1.577zm9.873 20.621c-.936 0-1.797-.172-2.584-.517a6.18 6.18 0 0 1-2.041-1.458 6.72 6.72 0 0 1-1.338-2.227c-.309-.866-.464-1.811-.464-2.836v-.57c0-1.104.163-2.103.49-2.995s.778-1.657 1.352-2.293 1.228-1.122 1.961-1.458a5.48 5.48 0 0 1 2.333-.517c.91 0 1.718.163 2.425.49.707.318 1.299.773 1.776 1.365.486.583.853 1.277 1.1 2.081.247.795.371 1.674.371 2.637v.967h-10.854v-1.352h9.277v-.186a5.83 5.83 0 0 0-.49-2.253c-.301-.707-.751-1.281-1.352-1.723s-1.352-.663-2.253-.663c-.672 0-1.29.141-1.855.424-.557.283-1.039.689-1.445 1.219-.398.521-.707 1.144-.928 1.869-.212.716-.318 1.511-.318 2.385v.57a6.99 6.99 0 0 0 .345 2.226 5.78 5.78 0 0 0 1.007 1.802 4.75 4.75 0 0 0 1.564 1.219c.601.292 1.263.437 1.988.437.848 0 1.599-.155 2.253-.464.653-.318 1.241-.817 1.762-1.498l.994.769a6.06 6.06 0 0 1-1.166 1.272c-.459.389-1.012.698-1.657.928s-1.396.345-2.253.345z"
    fill-opacity=".85"/>
</svg>
