<svg width="131" height="27" viewBox="0 0 131 27" fill="none" xmlns="http://www.w3.org/2000/svg">
  <path d="M1.02912 0.643814V21H0.313477V0.643814H1.02912ZM10.253 6.66055L3.1098 13.2737L0.896596 15.1688L0.631542 14.6519L2.71222 12.6905L9.23256 6.66055H10.253ZM9.73616 21L2.8845 12.9423L3.34835 12.3857L10.6639 21H9.73616Z" fill="black" fill-opacity="0.85"/>
  <path d="M18.0589 21.2651C17.1842 21.2651 16.3669 21.0928 15.6071 20.7482C14.8473 20.3948 14.1802 19.9 13.606 19.2639C13.0317 18.6278 12.5811 17.8768 12.2542 17.0109C11.9361 16.1362 11.7771 15.1776 11.7771 14.1351V13.552C11.7771 12.5006 11.9317 11.542 12.2409 10.6761C12.559 9.80145 12.9919 9.04604 13.5397 8.40991C14.0963 7.76494 14.7369 7.27018 15.4613 6.92561C16.1858 6.5722 16.9633 6.3955 17.7938 6.3955C18.589 6.3955 19.3179 6.54569 19.9805 6.84609C20.6432 7.13765 21.2174 7.5529 21.7034 8.09185C22.1981 8.63079 22.5781 9.27575 22.8431 10.0267C23.1082 10.7777 23.2407 11.6082 23.2407 12.5183V13.3532H12.2409V12.6375H22.525V12.4652C22.525 11.5022 22.3307 10.6187 21.9419 9.8147C21.5532 9.00187 21.0054 8.34806 20.2986 7.8533C19.5918 7.35853 18.7569 7.11114 17.7938 7.11114C16.9987 7.11114 16.2742 7.27901 15.6204 7.61475C14.9754 7.95048 14.4188 8.41433 13.9505 9.00628C13.4823 9.5894 13.12 10.2697 12.8638 11.0472C12.6164 11.8247 12.4927 12.6596 12.4927 13.552V14.1351C12.4927 15.0274 12.6341 15.8624 12.9168 16.6399C13.1995 17.4173 13.5927 18.1021 14.0963 18.694C14.5999 19.2771 15.1874 19.7366 15.8589 20.0723C16.5392 20.3992 17.2725 20.5627 18.0589 20.5627C18.8805 20.5627 19.6448 20.4257 20.3516 20.1518C21.0672 19.8779 21.721 19.3567 22.313 18.588L22.8166 18.9458C22.4985 19.3964 22.1142 19.7984 21.6636 20.1518C21.2219 20.4964 20.7006 20.7703 20.0998 20.9735C19.5078 21.1679 18.8275 21.2651 18.0589 21.2651Z" fill="black" fill-opacity="0.85"/>
  <path d="M31.7357 21.2651C30.861 21.2651 30.0438 21.0928 29.2839 20.7482C28.5241 20.3948 27.8571 19.9 27.2828 19.2639C26.7085 18.6278 26.2579 17.8768 25.931 17.0109C25.6129 16.1362 25.4539 15.1776 25.4539 14.1351V13.552C25.4539 12.5006 25.6085 11.542 25.9177 10.6761C26.2358 9.80145 26.6687 9.04604 27.2165 8.40991C27.7731 7.76494 28.4137 7.27018 29.1382 6.92561C29.8626 6.5722 30.6401 6.3955 31.4706 6.3955C32.2658 6.3955 32.9947 6.54569 33.6573 6.84609C34.32 7.13765 34.8943 7.5529 35.3802 8.09185C35.875 8.63079 36.2549 9.27575 36.5199 10.0267C36.785 10.7777 36.9175 11.6082 36.9175 12.5183V13.3532H25.9177V12.6375H36.2019V12.4652C36.2019 11.5022 36.0075 10.6187 35.6187 9.8147C35.23 9.00187 34.6822 8.34806 33.9754 7.8533C33.2686 7.35853 32.4337 7.11114 31.4706 7.11114C30.6755 7.11114 29.951 7.27901 29.2972 7.61475C28.6522 7.95048 28.0956 8.41433 27.6273 9.00628C27.1591 9.5894 26.7968 10.2697 26.5406 11.0472C26.2932 11.8247 26.1695 12.6596 26.1695 13.552V14.1351C26.1695 15.0274 26.3109 15.8624 26.5936 16.6399C26.8764 17.4173 27.2695 18.1021 27.7731 18.694C28.2767 19.2771 28.8643 19.7366 29.5357 20.0723C30.216 20.3992 30.9494 20.5627 31.7357 20.5627C32.5574 20.5627 33.3216 20.4257 34.0284 20.1518C34.7441 19.8779 35.3979 19.3567 35.9898 18.588L36.4934 18.9458C36.1753 19.3964 35.791 19.7984 35.3404 20.1518C34.8987 20.4964 34.3774 20.7703 33.7766 20.9735C33.1847 21.1679 32.5043 21.2651 31.7357 21.2651Z" fill="black" fill-opacity="0.85"/>
  <path d="M40.9463 9.41712V26.5131H40.2307V6.66055H40.9463V9.41712ZM51.2172 13.6845V13.9628C51.2172 15.0584 51.0935 16.0523 50.8461 16.9447C50.6076 17.837 50.2586 18.6057 49.7991 19.2506C49.3397 19.8956 48.7743 20.3948 48.1028 20.7482C47.4402 21.0928 46.6848 21.2651 45.8366 21.2651C45.0326 21.2651 44.3081 21.1502 43.6631 20.9205C43.0182 20.6908 42.4571 20.3727 41.98 19.9663C41.5118 19.5599 41.1319 19.1004 40.8403 18.588C40.5487 18.0667 40.3455 17.5234 40.2307 16.9579V11.1267C40.3897 10.4552 40.6238 9.83237 40.9331 9.25809C41.2423 8.6838 41.6266 8.18461 42.0861 7.76053C42.5455 7.3276 43.0844 6.99187 43.7029 6.75332C44.3302 6.51477 45.0326 6.3955 45.8101 6.3955C46.6583 6.3955 47.4181 6.56336 48.0895 6.8991C48.761 7.23484 49.3265 7.72077 49.7859 8.3569C50.2542 8.98419 50.6076 9.74844 50.8461 10.6496C51.0935 11.542 51.2172 12.5536 51.2172 13.6845ZM50.4883 13.9628V13.6845C50.4883 12.7303 50.3911 11.8556 50.1967 11.0605C50.0112 10.2565 49.7241 9.5629 49.3353 8.97978C48.9554 8.38782 48.4695 7.92839 47.8775 7.60149C47.2944 7.27459 46.6097 7.11114 45.8233 7.11114C44.9221 7.11114 44.1623 7.26134 43.5439 7.56174C42.9342 7.8533 42.4351 8.23321 42.0463 8.70147C41.6664 9.1609 41.3704 9.65125 41.1584 10.1725C40.9552 10.685 40.805 11.1621 40.7078 11.6038V16.6266C40.8668 17.3511 41.1584 18.0093 41.5825 18.6013C42.0065 19.1932 42.572 19.6659 43.2788 20.0193C43.9945 20.3727 44.8515 20.5494 45.8498 20.5494C46.6362 20.5494 47.3165 20.386 47.8908 20.0591C48.4739 19.7322 48.9554 19.2771 49.3353 18.694C49.7241 18.1021 50.0112 17.4041 50.1967 16.6001C50.3911 15.7961 50.4883 14.917 50.4883 13.9628Z" fill="black" fill-opacity="0.85"/>
  <path d="M63.5157 17.3422C63.5157 16.9535 63.4185 16.5692 63.2242 16.1893C63.0298 15.8093 62.6543 15.4604 62.0977 15.1423C61.5499 14.8242 60.7415 14.5548 59.6724 14.3339C58.8773 14.1572 58.166 13.9584 57.5387 13.7375C56.9203 13.5166 56.399 13.2516 55.9749 12.9423C55.5508 12.6331 55.2283 12.262 55.0075 11.8291C54.7866 11.3962 54.6762 10.8838 54.6762 10.2918C54.6762 9.76169 54.791 9.2625 55.0207 8.79424C55.2593 8.31714 55.595 7.90189 56.0279 7.54848C56.4697 7.18624 56.9998 6.90352 57.6183 6.70031C58.2456 6.4971 58.9479 6.3955 59.7254 6.3955C60.8298 6.3955 61.7752 6.58545 62.5615 6.96536C63.3567 7.33644 63.9619 7.84446 64.3772 8.48943C64.8012 9.13439 65.0133 9.86329 65.0133 10.6761H63.4362C63.4362 10.1814 63.2904 9.71309 62.9989 9.27134C62.7161 8.82958 62.2965 8.46734 61.7399 8.18461C61.1921 7.90189 60.5206 7.76053 59.7254 7.76053C58.9038 7.76053 58.2367 7.88422 57.7243 8.1316C57.2118 8.37899 56.8363 8.69263 56.5978 9.07255C56.3681 9.45246 56.2532 9.84562 56.2532 10.252C56.2532 10.5701 56.3018 10.8617 56.399 11.1267C56.505 11.3829 56.6906 11.6215 56.9556 11.8424C57.2295 12.0632 57.6183 12.2709 58.1219 12.4652C58.6255 12.6596 59.2793 12.8496 60.0833 13.0351C61.2407 13.2913 62.186 13.605 62.9193 13.9761C63.6615 14.3383 64.2093 14.7889 64.5627 15.3278C64.9161 15.8579 65.0928 16.5029 65.0928 17.2627C65.0928 17.8547 64.9691 18.398 64.7217 18.8928C64.4743 19.3787 64.1165 19.7984 63.6482 20.1518C63.1888 20.5052 62.6322 20.7791 61.9784 20.9735C61.3334 21.1679 60.609 21.2651 59.805 21.2651C58.5945 21.2651 57.5697 21.0663 56.7303 20.6687C55.8998 20.2623 55.2681 19.7322 54.8352 19.0784C54.4111 18.4157 54.1991 17.7133 54.1991 16.9712H55.7761C55.8291 17.7133 56.0633 18.3009 56.4785 18.7338C56.8938 19.1579 57.4018 19.4583 58.0026 19.635C58.6122 19.8117 59.213 19.9 59.805 19.9C60.6178 19.9 61.2981 19.7807 61.8459 19.5422C62.3937 19.3036 62.8089 18.99 63.0916 18.6013C63.3744 18.2125 63.5157 17.7928 63.5157 17.3422Z" fill="black" fill-opacity="0.85"/>
  <path d="M70.4469 6.66055V21H68.8698V6.66055H70.4469ZM68.5915 2.51245C68.5915 2.21205 68.6843 1.96025 68.8698 1.75704C69.0642 1.545 69.3292 1.43898 69.665 1.43898C70.0007 1.43898 70.2658 1.545 70.4601 1.75704C70.6634 1.96025 70.765 2.21205 70.765 2.51245C70.765 2.80401 70.6634 3.05581 70.4601 3.26785C70.2658 3.47106 70.0007 3.57267 69.665 3.57267C69.3292 3.57267 69.0642 3.47106 68.8698 3.26785C68.6843 3.05581 68.5915 2.80401 68.5915 2.51245Z" fill="black" fill-opacity="0.85"/>
  <path d="M76.2781 9.62916V21H74.6878V6.66055H76.2118L76.2781 9.62916ZM75.9865 12.9423L75.2179 12.5448C75.2709 11.6966 75.4299 10.9014 75.695 10.1593C75.9689 9.41712 76.3488 8.76332 76.8347 8.19787C77.3206 7.63242 77.9038 7.19066 78.5841 6.87259C79.2644 6.55453 80.0374 6.3955 80.9033 6.3955C81.6013 6.3955 82.233 6.49268 82.7984 6.68706C83.3727 6.87259 83.8586 7.16857 84.2562 7.57499C84.6626 7.97257 84.9763 8.49384 85.1972 9.13881C85.4181 9.78378 85.5285 10.5569 85.5285 11.458V21H83.9514V11.511C83.9514 10.5569 83.8012 9.81028 83.5008 9.27134C83.2093 8.73239 82.7984 8.34806 82.2683 8.11835C81.7471 7.88864 81.1418 7.77378 80.4527 7.77378C79.6399 7.77378 78.9507 7.94165 78.3853 8.27738C77.8287 8.60428 77.3737 9.03279 77.0202 9.5629C76.6757 10.0842 76.4195 10.6452 76.2516 11.246C76.0837 11.8379 75.9954 12.4034 75.9865 12.9423ZM85.5152 11.6966L84.455 11.7231C84.4992 11.0251 84.6582 10.3581 84.9321 9.72193C85.2148 9.0858 85.5992 8.52035 86.0851 8.02558C86.571 7.52198 87.1497 7.1244 87.8212 6.83284C88.5015 6.54128 89.2658 6.3955 90.1139 6.3955C90.8561 6.3955 91.5187 6.4971 92.1018 6.70031C92.685 6.89468 93.1753 7.20833 93.5729 7.64125C93.9793 8.06534 94.2885 8.6087 94.5006 9.27134C94.7126 9.93397 94.8186 10.7291 94.8186 11.6568V21H93.2283V11.6436C93.2283 10.6275 93.0781 9.8412 92.7777 9.28459C92.4862 8.71914 92.0798 8.32598 91.5585 8.1051C91.0372 7.88422 90.4276 7.77378 89.7296 7.77378C89.0405 7.78261 88.4353 7.91072 87.914 8.15811C87.3927 8.39666 86.9554 8.71472 86.602 9.1123C86.2574 9.50105 85.9923 9.92072 85.8068 10.3713C85.6301 10.8219 85.5329 11.2637 85.5152 11.6966Z" fill="black" fill-opacity="0.85"/>
  <path d="M100.411 9.41712V26.5131H98.821V6.66055H100.305L100.411 9.41712ZM110.377 13.6977V13.9761C110.377 15.0451 110.254 16.0258 110.006 16.9182C109.759 17.8105 109.401 18.5836 108.933 19.2374C108.473 19.8824 107.904 20.3815 107.223 20.7349C106.543 21.0884 105.77 21.2651 104.904 21.2651C104.047 21.2651 103.283 21.1325 102.611 20.8675C101.94 20.6024 101.361 20.2269 100.875 19.741C100.398 19.2462 100.014 18.6719 99.7222 18.0181C99.4394 17.3555 99.2407 16.631 99.1258 15.8447V12.1737C99.2583 11.3078 99.4748 10.5215 99.7752 9.8147C100.076 9.10789 100.46 8.49826 100.928 7.98582C101.405 7.47338 101.971 7.08022 102.625 6.80633C103.278 6.53244 104.025 6.3955 104.864 6.3955C105.739 6.3955 106.516 6.56778 107.197 6.91235C107.886 7.24809 108.465 7.73844 108.933 8.3834C109.41 9.01954 109.768 9.78819 110.006 10.6894C110.254 11.5817 110.377 12.5845 110.377 13.6977ZM108.787 13.9761V13.6977C108.787 12.8584 108.699 12.0809 108.522 11.3653C108.354 10.6496 108.093 10.0267 107.74 9.49663C107.395 8.95769 106.954 8.53802 106.415 8.23763C105.885 7.93723 105.253 7.78703 104.52 7.78703C103.76 7.78703 103.11 7.91514 102.572 8.17136C102.041 8.41875 101.6 8.75006 101.246 9.16532C100.893 9.57173 100.615 10.0179 100.411 10.5038C100.208 10.9898 100.058 11.4669 99.9607 11.9351V16.1628C100.129 16.8342 100.398 17.4571 100.769 18.0314C101.14 18.5968 101.635 19.0518 102.253 19.3964C102.881 19.7322 103.645 19.9 104.546 19.9C105.271 19.9 105.898 19.7498 106.428 19.4494C106.958 19.149 107.395 18.7294 107.74 18.1904C108.093 17.6515 108.354 17.0242 108.522 16.3085C108.699 15.5929 108.787 14.8154 108.787 13.9761Z" fill="black" fill-opacity="0.85"/>
  <path d="M115.665 0.643814V21H114.088V0.643814H115.665Z" fill="black" fill-opacity="0.85"/>
  <path d="M125.538 21.2651C124.602 21.2651 123.741 21.0928 122.954 20.7482C122.177 20.4036 121.496 19.9177 120.913 19.2904C120.339 18.6631 119.893 17.9209 119.575 17.0639C119.266 16.1981 119.111 15.2527 119.111 14.2279V13.658C119.111 12.5536 119.274 11.5552 119.601 10.6629C119.928 9.77052 120.379 9.00628 120.953 8.37015C121.527 7.73402 122.181 7.24809 122.914 6.91235C123.657 6.56778 124.434 6.3955 125.247 6.3955C126.157 6.3955 126.965 6.55895 127.672 6.88585C128.379 7.20391 128.971 7.65892 129.448 8.25088C129.934 8.834 130.301 9.52756 130.548 10.3316C130.795 11.1267 130.919 12.0058 130.919 12.9688V13.9363H120.065V12.5845H129.342V12.399C129.324 11.595 129.161 10.844 128.852 10.146C128.551 9.43921 128.101 8.86492 127.5 8.42316C126.899 7.98141 126.148 7.76053 125.247 7.76053C124.575 7.76053 123.957 7.90189 123.392 8.18461C122.835 8.46734 122.353 8.87376 121.947 9.40386C121.549 9.92514 121.24 10.548 121.019 11.2725C120.807 11.9881 120.701 12.7833 120.701 13.658V14.2279C120.701 15.023 120.816 15.7652 121.046 16.4543C121.284 17.1346 121.62 17.7354 122.053 18.2567C122.495 18.778 123.016 19.1844 123.617 19.4759C124.218 19.7675 124.88 19.9133 125.605 19.9133C126.453 19.9133 127.204 19.7587 127.858 19.4494C128.511 19.1314 129.099 18.6322 129.62 17.9519L130.614 18.7205C130.305 19.18 129.916 19.604 129.448 19.9928C128.989 20.3815 128.436 20.6908 127.791 20.9205C127.146 21.1502 126.395 21.2651 125.538 21.2651Z" fill="black" fill-opacity="0.85"/>
</svg>
