<svg width="106" height="32" viewBox="0 0 106 32" fill="none" xmlns="http://www.w3.org/2000/svg">
  <rect x="0.5" y="0.5" width="104.032" height="31" rx="15.5" fill="#303030"/>
  <rect x="0.5" y="0.5" width="104.032" height="31" rx="15.5" stroke="#303030"/>
  <path d="M19.6734 11.9017L22.3431 9.15724L23.893 10.7444L21.0926 13.4142H25.0316V15.6174H21.0739L23.893 18.3558L22.3431 19.9117L18.5161 16.066L14.6891 19.9117L13.1392 18.3618L15.9583 15.6234H12V13.4142H15.939L13.1386 10.7444L14.6884 9.15724L17.3582 11.9017V8H19.6734V11.9017ZM17.3582 18.7724H19.6734V24H17.3582V18.7724Z" fill="white"/>
  <path d="M36.3113 10.3H37.7833V20.284H43.1913V21.5H36.3113V10.3ZM45.7489 12.108C45.4502 12.108 45.2155 12.028 45.0449 11.868C44.8742 11.708 44.7889 11.4893 44.7889 11.212C44.7889 10.9347 44.8742 10.716 45.0449 10.556C45.2155 10.3853 45.4502 10.3 45.7489 10.3C46.0475 10.3 46.2822 10.3853 46.4529 10.556C46.6342 10.716 46.7249 10.9347 46.7249 11.212C46.7249 11.4893 46.6342 11.708 46.4529 11.868C46.2822 12.028 46.0475 12.108 45.7489 12.108ZM45.0769 13.5H46.4369V21.5H45.0769V13.5ZM48.6788 15.516C48.6788 14.5027 48.6574 13.8307 48.6148 13.5H49.8788C49.9214 13.852 49.9428 14.3267 49.9428 14.924H49.9908C50.2254 14.4333 50.5828 14.0493 51.0628 13.772C51.5534 13.484 52.0974 13.34 52.6948 13.34C53.6334 13.34 54.3374 13.644 54.8068 14.252C55.2761 14.86 55.5108 15.7667 55.5108 16.972V21.5H54.1508V16.956C54.1508 16.1027 54.0068 15.468 53.7188 15.052C53.4308 14.636 52.9934 14.428 52.4068 14.428C51.9588 14.428 51.5534 14.5453 51.1908 14.78C50.8281 15.004 50.5454 15.324 50.3428 15.74C50.1401 16.1453 50.0388 16.604 50.0388 17.116V21.5H48.6788V15.516ZM62.644 21.5L60.004 17.484L58.836 18.652V21.5H57.476V9.628H58.836V17.02L62.34 13.5H63.972L60.916 16.572L64.196 21.5H62.644ZM68.1689 21.66C67.4649 21.66 66.9102 21.436 66.5049 20.988C66.0995 20.5293 65.8969 19.9 65.8969 19.1V14.556H64.4569V13.5H65.8969V11.372L67.1929 10.972H67.2569V13.5H69.5289V14.556H67.2569V18.972C67.2569 19.516 67.3582 19.9213 67.5609 20.188C67.7635 20.444 68.0782 20.572 68.5049 20.572C68.9635 20.572 69.3369 20.5133 69.6249 20.396L69.7209 21.404C69.3689 21.5747 68.8515 21.66 68.1689 21.66ZM71.4001 15.452C71.4001 14.5453 71.3841 13.8947 71.3521 13.5H72.6161C72.6588 13.9267 72.6801 14.396 72.6801 14.908V15.068H72.7281C72.9308 14.5133 73.2561 14.0867 73.7041 13.788C74.1521 13.4893 74.6801 13.34 75.2881 13.34C75.4588 13.34 75.6135 13.356 75.7521 13.388V14.508C75.6135 14.476 75.4268 14.46 75.1921 14.46C74.7441 14.46 74.3335 14.5987 73.9601 14.876C73.5868 15.1427 73.2935 15.5107 73.0801 15.98C72.8668 16.4493 72.7601 16.9613 72.7601 17.516V21.5H71.4001V15.452ZM83.6339 18.028H77.8739C77.9485 18.8387 78.1885 19.4573 78.5939 19.884C78.9992 20.3 79.5592 20.508 80.2739 20.508C81.2339 20.508 81.9965 20.1293 82.5619 19.372L83.3299 20.108C83.0205 20.5987 82.5885 20.9827 82.0339 21.26C81.4899 21.5267 80.8872 21.66 80.2259 21.66C79.0419 21.66 78.1245 21.2973 77.4739 20.572C76.8232 19.8467 76.4979 18.828 76.4979 17.516C76.4979 16.2147 76.8232 15.196 77.4739 14.46C78.1352 13.7133 79.0419 13.34 80.1939 13.34C81.2712 13.34 82.1139 13.708 82.7219 14.444C83.3299 15.1693 83.6339 16.188 83.6339 17.5V18.028ZM82.3859 16.908C82.3859 16.14 82.1832 15.5373 81.7779 15.1C81.3832 14.6627 80.8339 14.444 80.1299 14.444C79.4685 14.444 78.9405 14.668 78.5459 15.116C78.1619 15.564 77.9379 16.1987 77.8739 17.02H82.3859V16.908ZM91.9151 18.028H86.1551C86.2298 18.8387 86.4698 19.4573 86.8751 19.884C87.2805 20.3 87.8405 20.508 88.5551 20.508C89.5151 20.508 90.2778 20.1293 90.8431 19.372L91.6111 20.108C91.3018 20.5987 90.8698 20.9827 90.3151 21.26C89.7711 21.5267 89.1685 21.66 88.5071 21.66C87.3231 21.66 86.4058 21.2973 85.7551 20.572C85.1045 19.8467 84.7791 18.828 84.7791 17.516C84.7791 16.2147 85.1045 15.196 85.7551 14.46C86.4165 13.7133 87.3231 13.34 88.4751 13.34C89.5525 13.34 90.3951 13.708 91.0031 14.444C91.6111 15.1693 91.9151 16.188 91.9151 17.5V18.028ZM90.6671 16.908C90.6671 16.14 90.4645 15.5373 90.0591 15.1C89.6645 14.6627 89.1151 14.444 88.4111 14.444C87.7498 14.444 87.2218 14.668 86.8271 15.116C86.4431 15.564 86.2191 16.1987 86.1551 17.02H90.6671V16.908Z" fill="white"/>
</svg>
