<svg width="31" height="30" viewBox="0 0 31 30" fill="none" xmlns="http://www.w3.org/2000/svg">
  <path d="M15.0313 30C23.3155 30 30.0312 23.2843 30.0312 15C30.0312 6.71573 23.3155 0 15.0313 0C6.747 0 0.03125 6.71573 0.03125 15C0.03125 23.2843 6.747 30 15.0313 30Z" fill="#303030"/>
  <path d="M7.48484 11.4804H10.7217V21.8782H7.48484V11.4804ZM9.10327 6.30859C10.1431 6.30859 10.9749 7.14946 10.9749 8.1802C10.9749 9.21095 10.134 10.0518 9.10327 10.0518C8.07253 10.0518 7.22266 9.21095 7.22266 8.1802C7.22266 7.14946 8.06348 6.30859 9.10327 6.30859Z" fill="white"/>
  <path d="M12.7461 11.4802H15.8474V12.8998H15.8926C16.3265 12.077 17.3754 11.218 18.9577 11.218C22.2307 11.218 22.8365 13.3699 22.8365 16.1728V21.8781H19.6086V16.8238C19.6086 15.6122 19.5815 14.0661 17.9269 14.0661C16.2723 14.0661 15.983 15.3772 15.983 16.7334V21.8781H12.7551V11.4802H12.7461Z" fill="white"/>
</svg>
