<svg width="31" height="30" viewBox="0 0 31 30" fill="none" xmlns="http://www.w3.org/2000/svg">
  <path d="M15.0312 0C6.74915 0 0.03125 6.7179 0.03125 15C0.03125 23.2821 6.74915 30 15.0312 30C23.3133 30 30.0312 23.2821 30.0312 15C30.0312 6.7179 23.3133 0 15.0312 0ZM22.1832 9.75588C22.1379 10.3617 21.7944 12.4864 21.4508 14.783C20.9264 18.038 20.3658 21.5913 20.3658 21.5913C20.3658 21.5913 20.2754 22.5859 19.543 22.7577C18.8106 22.9295 17.59 22.1519 17.373 21.9801C17.2012 21.8535 14.118 19.9005 12.9969 18.9421C12.6895 18.6799 12.3459 18.1646 13.0421 17.5588C14.6063 16.1302 16.4689 14.349 17.59 13.2279C18.1144 12.7034 18.6298 11.4919 16.4598 12.9656C13.3857 15.0904 10.3477 17.0796 10.3477 17.0796C10.3477 17.0796 9.65152 17.5136 8.34953 17.1248C7.04754 16.736 5.52853 16.2116 5.52853 16.2116C5.52853 16.2116 4.48874 15.5606 6.26089 14.8644C6.26089 14.8644 13.7564 11.7902 16.3604 10.7052C17.3549 10.2712 20.7365 8.88789 20.7365 8.88789C20.7365 8.88789 22.3007 8.2821 22.1651 9.75588H22.1832Z" fill="#303030"/>
</svg>
