<svg width="31" height="30" viewBox="0 0 31 30" fill="none" xmlns="http://www.w3.org/2000/svg">
  <path d="M15.1847 13.716L11.1702 7.97461H9.02734L14.0002 15.0903L14.6241 15.9764L18.8827 22.0704H21.0255L15.8085 14.6111L15.1847 13.716Z" fill="#303030"/>
  <path d="M15.0312 0C6.74915 0 0.03125 6.7179 0.03125 15C0.03125 23.2821 6.74915 30 15.0312 30C23.3133 30 30.0312 23.2821 30.0312 15C30.0312 6.7179 23.3133 0 15.0312 0ZM18.2229 23.0651L13.9191 16.7993L8.53035 23.0651H7.13794L13.3043 15.8951L7.13794 6.91682H11.8396L15.9173 12.8481L21.0258 6.91682H22.4182L16.5412 13.7523L22.9336 23.0561H18.232L18.2229 23.0651Z" fill="#303030"/>
</svg>
